<svg xmlns="http://www.w3.org/2000/svg" xmlns:xlink="http://www.w3.org/1999/xlink" width="940" zoomAndPan="magnify" viewBox="0 0 705 591.000005" height="788" preserveAspectRatio="xMidYMid meet" version="1.0"><defs><clipPath id="3fc519931c"><path d="M 236.429688 177 L 468.539062 177 L 468.539062 412.851562 L 236.429688 412.851562 Z M 236.429688 177 " clip-rule="nonzero"/></clipPath><clipPath id="c6e393881d"><path d="M 362.316406 287.0625 C 362.316406 289.234375 364.078125 290.996094 366.25 290.996094 C 368.421875 290.996094 370.183594 289.234375 370.183594 287.0625 C 370.183594 280.5625 364.890625 275.273438 358.382812 275.273438 C 358.382812 273.101562 356.621094 271.339844 354.449219 271.339844 C 352.277344 271.339844 350.519531 273.101562 350.519531 275.273438 C 344.011719 275.273438 338.71875 280.5625 338.71875 287.0625 C 338.71875 293.566406 344.011719 298.855469 350.519531 298.855469 L 350.519531 306.71875 C 348.347656 306.71875 346.585938 304.953125 346.585938 302.789062 C 346.585938 300.617188 344.824219 298.855469 342.652344 298.855469 C 340.480469 298.855469 338.71875 300.617188 338.71875 302.789062 C 338.71875 309.289062 344.011719 314.582031 350.519531 314.582031 C 350.519531 316.75 352.277344 318.511719 354.449219 318.511719 C 356.621094 318.511719 358.382812 316.75 358.382812 314.582031 C 364.890625 314.582031 370.183594 309.289062 370.183594 302.789062 C 370.183594 296.285156 364.890625 290.996094 358.382812 290.996094 L 358.382812 283.132812 C 360.550781 283.132812 362.316406 284.898438 362.316406 287.0625 Z M 362.316406 302.789062 C 362.316406 304.953125 360.550781 306.71875 358.382812 306.71875 L 358.382812 298.855469 C 360.550781 298.855469 362.316406 300.621094 362.316406 302.789062 Z M 350.519531 290.996094 C 348.347656 290.996094 346.585938 289.230469 346.585938 287.0625 C 346.585938 284.898438 348.347656 283.132812 350.519531 283.132812 Z M 468.5 236.109375 C 468.5 233.476562 467.148438 231.097656 464.886719 229.746094 L 461.667969 227.828125 L 464.136719 225.011719 C 465.871094 223.03125 466.421875 220.351562 465.609375 217.84375 C 464.792969 215.339844 462.773438 213.496094 460.203125 212.910156 L 456.550781 212.082031 L 458.023438 208.640625 C 459.0625 206.21875 458.757812 203.5 457.207031 201.367188 C 455.65625 199.234375 453.167969 198.105469 450.539062 198.34375 L 446.8125 198.683594 L 447.148438 194.953125 C 447.386719 192.332031 446.257812 189.839844 444.125 188.289062 C 441.992188 186.742188 439.273438 186.4375 436.847656 187.472656 L 433.40625 188.949219 L 432.574219 185.296875 C 431.992188 182.726562 430.144531 180.707031 427.640625 179.894531 C 425.132812 179.082031 422.449219 179.628906 420.46875 181.363281 L 417.648438 183.832031 L 415.730469 180.617188 C 414.378906 178.351562 412 177 409.363281 177 C 406.726562 177 404.347656 178.351562 402.996094 180.613281 L 401.078125 183.828125 L 398.257812 181.363281 C 396.277344 179.628906 393.59375 179.078125 391.089844 179.894531 C 388.582031 180.707031 386.734375 182.726562 386.152344 185.296875 L 385.320312 188.949219 L 381.878906 187.472656 C 379.453125 186.433594 376.734375 186.742188 374.601562 188.289062 C 372.46875 189.839844 371.339844 192.328125 371.578125 194.953125 L 371.917969 198.679688 L 368.1875 198.34375 C 365.5625 198.105469 363.066406 199.234375 361.519531 201.367188 C 359.96875 203.496094 359.664062 206.214844 360.703125 208.636719 L 362.175781 212.078125 L 358.523438 212.910156 C 355.953125 213.492188 353.933594 215.335938 353.117188 217.84375 C 352.304688 220.347656 352.855469 223.027344 354.589844 225.011719 L 357.054688 227.828125 L 353.839844 229.746094 C 351.574219 231.097656 350.222656 233.476562 350.222656 236.109375 C 350.222656 238.746094 351.578125 241.121094 353.839844 242.472656 L 357.054688 244.390625 L 354.589844 247.207031 C 354.433594 247.382812 354.292969 247.566406 354.15625 247.753906 L 271.863281 247.753906 C 269.691406 247.753906 267.929688 249.515625 267.929688 251.6875 L 267.929688 338.164062 C 267.929688 340.335938 269.691406 342.09375 271.863281 342.09375 L 437.039062 342.09375 C 439.210938 342.09375 440.972656 340.335938 440.972656 338.164062 L 440.972656 285.253906 C 442.085938 285.070312 443.164062 284.628906 444.125 283.929688 C 446.257812 282.382812 447.386719 279.890625 447.148438 277.265625 L 446.808594 273.539062 L 450.539062 273.878906 C 453.167969 274.117188 455.65625 272.984375 457.207031 270.851562 C 458.753906 268.722656 459.0625 266.003906 458.023438 263.582031 L 456.546875 260.140625 L 460.199219 259.3125 C 462.773438 258.726562 464.792969 256.882812 465.605469 254.375 C 466.421875 251.871094 465.871094 249.191406 464.136719 247.207031 L 461.667969 244.390625 L 464.886719 242.472656 C 467.148438 241.125 468.5 238.746094 468.5 236.109375 Z M 374.601562 283.929688 C 376.253906 285.132812 378.261719 285.582031 380.207031 285.242188 C 381.351562 288.253906 381.980469 291.515625 381.980469 294.925781 C 381.980469 310.097656 369.628906 322.441406 354.449219 322.441406 C 339.269531 322.441406 326.921875 310.097656 326.921875 294.925781 C 326.921875 279.753906 339.269531 267.410156 354.449219 267.410156 C 356.445312 267.410156 358.386719 267.628906 360.257812 268.035156 C 360.472656 269.03125 360.890625 269.992188 361.519531 270.855469 C 363.066406 272.984375 365.558594 274.113281 368.183594 273.878906 L 371.914062 273.539062 L 371.578125 277.265625 C 371.339844 279.890625 372.46875 282.382812 374.601562 283.929688 Z M 389.847656 294.925781 C 389.847656 293.84375 389.792969 292.769531 389.695312 291.714844 C 390.132812 291.960938 390.597656 292.167969 391.089844 292.328125 C 393.59375 293.140625 396.277344 292.589844 398.257812 290.855469 L 401.078125 288.390625 L 402.996094 291.605469 C 404.347656 293.867188 406.726562 295.21875 409.363281 295.21875 C 412 295.21875 414.378906 293.867188 415.726562 291.605469 L 417.648438 288.390625 L 420.464844 290.855469 C 420.734375 291.089844 421.015625 291.300781 421.308594 291.492188 L 421.308594 307.113281 C 413.613281 308.679688 407.539062 314.753906 405.972656 322.441406 L 376.664062 322.441406 C 384.695312 315.949219 389.847656 306.03125 389.847656 294.925781 Z M 332.238281 322.441406 L 302.929688 322.441406 C 301.359375 314.753906 295.285156 308.679688 287.59375 307.113281 L 287.59375 282.738281 C 295.285156 281.171875 301.359375 275.101562 302.929688 267.410156 L 332.238281 267.410156 C 324.203125 273.902344 319.054688 283.820312 319.054688 294.925781 C 319.054688 306.03125 324.203125 315.949219 332.238281 322.441406 Z M 275.792969 334.234375 L 275.792969 255.617188 L 353.652344 255.617188 C 354.652344 257.484375 356.398438 258.828125 358.523438 259.3125 L 359.570312 259.546875 L 299.390625 259.546875 C 297.21875 259.546875 295.457031 261.308594 295.457031 263.480469 C 295.457031 269.980469 290.167969 275.273438 283.660156 275.273438 C 281.488281 275.273438 279.726562 277.03125 279.726562 279.203125 L 279.726562 310.648438 C 279.726562 312.820312 281.488281 314.582031 283.660156 314.582031 C 290.167969 314.582031 295.457031 319.871094 295.457031 326.371094 C 295.457031 328.542969 297.21875 330.304688 299.390625 330.304688 L 409.507812 330.304688 C 411.679688 330.304688 413.441406 328.542969 413.441406 326.371094 C 413.441406 319.871094 418.734375 314.582031 425.242188 314.582031 C 427.414062 314.582031 429.171875 312.820312 429.171875 310.648438 L 429.171875 291.625 C 430.886719 290.601562 432.117188 288.933594 432.574219 286.921875 L 433.105469 284.585938 L 433.105469 334.234375 Z M 457.171875 237.917969 C 455.277344 239.046875 453.992188 240.941406 453.648438 243.121094 C 453.304688 245.296875 453.9375 247.5 455.390625 249.160156 L 457.714844 251.8125 L 454.273438 252.59375 C 452.125 253.085938 450.316406 254.492188 449.3125 256.457031 C 448.3125 258.421875 448.238281 260.710938 449.105469 262.738281 L 450.496094 265.980469 L 446.980469 265.660156 C 444.78125 265.464844 442.628906 266.242188 441.070312 267.800781 C 439.507812 269.359375 438.730469 271.511719 438.929688 273.710938 L 439.246094 277.222656 L 436.003906 275.832031 C 433.976562 274.964844 431.683594 275.042969 429.71875 276.042969 C 427.753906 277.042969 426.347656 278.851562 425.855469 281 L 425.074219 284.441406 L 422.417969 282.117188 C 420.757812 280.664062 418.554688 280.027344 416.378906 280.375 C 414.199219 280.71875 412.300781 282.003906 411.171875 283.898438 L 409.363281 286.925781 L 407.554688 283.898438 C 406.425781 282.003906 404.527344 280.71875 402.347656 280.375 C 401.960938 280.3125 401.570312 280.28125 401.183594 280.28125 C 399.402344 280.28125 397.671875 280.925781 396.308594 282.117188 L 393.652344 284.441406 L 392.871094 281 C 392.378906 278.851562 390.972656 277.042969 389.007812 276.042969 C 387.042969 275.039062 384.75 274.964844 382.722656 275.832031 L 379.480469 277.222656 L 379.796875 273.710938 C 379.996094 271.511719 379.21875 269.359375 377.65625 267.800781 C 376.097656 266.242188 373.945312 265.464844 371.746094 265.660156 L 368.230469 265.980469 L 369.621094 262.738281 C 370.492188 260.710938 370.414062 258.421875 369.414062 256.457031 C 368.410156 254.492188 366.601562 253.085938 364.453125 252.597656 L 361.011719 251.8125 L 363.335938 249.160156 C 364.789062 247.5 365.421875 245.300781 365.078125 243.121094 C 364.734375 240.945312 363.449219 239.046875 361.554688 237.917969 L 358.523438 236.109375 L 361.554688 234.304688 C 363.449219 233.175781 364.734375 231.277344 365.078125 229.101562 C 365.421875 226.921875 364.789062 224.722656 363.335938 223.0625 L 361.011719 220.40625 L 364.453125 219.625 C 366.605469 219.136719 368.410156 217.730469 369.414062 215.765625 C 370.414062 213.800781 370.492188 211.511719 369.621094 209.484375 L 368.234375 206.242188 L 371.746094 206.558594 C 373.945312 206.757812 376.097656 205.980469 377.660156 204.421875 C 379.21875 202.863281 380 200.707031 379.800781 198.511719 L 379.480469 195 L 382.722656 196.390625 C 384.753906 197.257812 387.042969 197.179688 389.007812 196.179688 C 390.972656 195.179688 392.382812 193.371094 392.871094 191.222656 L 393.652344 187.78125 L 396.308594 190.105469 C 397.96875 191.558594 400.171875 192.191406 402.351562 191.847656 C 404.527344 191.5 406.425781 190.21875 407.558594 188.324219 L 409.363281 185.292969 L 411.171875 188.324219 C 412.300781 190.21875 414.199219 191.5 416.378906 191.847656 C 418.554688 192.191406 420.757812 191.558594 422.417969 190.105469 L 425.074219 187.78125 L 425.859375 191.222656 C 426.347656 193.371094 427.753906 195.179688 429.71875 196.179688 C 431.6875 197.179688 433.976562 197.257812 436.003906 196.386719 L 439.246094 195 L 438.929688 198.511719 C 438.730469 200.707031 439.507812 202.863281 441.070312 204.421875 C 442.628906 205.980469 444.785156 206.757812 446.980469 206.558594 L 450.496094 206.242188 L 449.105469 209.484375 C 448.238281 211.511719 448.3125 213.800781 449.3125 215.765625 C 450.316406 217.730469 452.125 219.136719 454.273438 219.625 L 457.714844 220.40625 L 455.390625 223.0625 C 453.9375 224.722656 453.304688 226.921875 453.648438 229.101562 C 453.996094 231.277344 455.277344 233.175781 457.171875 234.304688 L 460.203125 236.109375 Z M 409.507812 196.949219 C 387.824219 196.949219 370.183594 214.582031 370.183594 236.257812 C 370.183594 257.933594 387.824219 275.566406 409.507812 275.566406 C 431.195312 275.566406 448.835938 257.933594 448.835938 236.257812 C 448.835938 214.582031 431.195312 196.949219 409.507812 196.949219 Z M 409.507812 267.703125 C 392.160156 267.703125 378.046875 253.597656 378.046875 236.257812 C 378.046875 218.917969 392.160156 204.808594 409.507812 204.808594 C 426.859375 204.808594 440.972656 218.917969 440.972656 236.257812 C 440.972656 253.597656 426.859375 267.703125 409.507812 267.703125 Z M 428.023438 223.3125 L 396.558594 254.761719 C 395.792969 255.527344 394.785156 255.910156 393.777344 255.910156 C 392.773438 255.910156 391.765625 255.527344 390.996094 254.761719 C 389.460938 253.226562 389.460938 250.738281 390.996094 249.203125 L 422.460938 217.753906 C 423.996094 216.21875 426.484375 216.21875 428.019531 217.753906 C 429.558594 219.289062 429.558594 221.777344 428.023438 223.3125 Z M 405.578125 228.394531 C 405.578125 221.894531 400.285156 216.601562 393.777344 216.601562 C 387.273438 216.601562 381.980469 221.894531 381.980469 228.394531 C 381.980469 234.898438 387.273438 240.1875 393.777344 240.1875 C 400.285156 240.1875 405.578125 234.898438 405.578125 228.394531 Z M 389.847656 228.394531 C 389.847656 226.226562 391.609375 224.464844 393.777344 224.464844 C 395.945312 224.464844 397.710938 226.226562 397.710938 228.394531 C 397.710938 230.5625 395.945312 232.328125 393.777344 232.328125 C 391.609375 232.328125 389.847656 230.5625 389.847656 228.394531 Z M 413.441406 244.117188 C 413.441406 250.621094 418.734375 255.910156 425.242188 255.910156 C 431.746094 255.910156 437.039062 250.621094 437.039062 244.117188 C 437.039062 237.617188 431.746094 232.328125 425.242188 232.328125 C 418.734375 232.328125 413.441406 237.617188 413.441406 244.117188 Z M 429.171875 244.117188 C 429.171875 246.285156 427.410156 248.050781 425.242188 248.050781 C 423.074219 248.050781 421.308594 246.285156 421.308594 244.117188 C 421.308594 241.953125 423.074219 240.1875 425.242188 240.1875 C 427.410156 240.1875 429.171875 241.953125 429.171875 244.117188 Z M 441.949219 350.28125 C 439.691406 347.9375 436.617188 346.628906 433.296875 346.597656 C 430.375 346.570312 427.511719 347.574219 425.257812 349.386719 C 420.71875 345.582031 414.054688 345.578125 409.507812 349.375 C 404.691406 345.347656 397.488281 345.59375 392.964844 350.113281 L 389.328125 353.746094 C 384.511719 349.757812 377.335938 350.011719 372.824219 354.523438 L 371.429688 355.914062 C 369.765625 355.234375 367.933594 354.859375 366.011719 354.859375 L 345.382812 354.859375 C 341.839844 354.859375 338.300781 355.082031 334.785156 355.503906 L 334.785156 353.890625 C 334.785156 351.71875 333.027344 349.957031 330.855469 349.957031 L 307.257812 349.957031 C 305.085938 349.957031 303.324219 351.71875 303.324219 353.890625 L 240.398438 353.890625 C 238.226562 353.890625 236.46875 355.648438 236.46875 357.820312 L 236.46875 404.988281 C 236.46875 407.160156 238.226562 408.921875 240.398438 408.921875 L 303.324219 408.921875 C 303.324219 411.089844 305.085938 412.851562 307.257812 412.851562 L 330.855469 412.851562 C 333.027344 412.851562 334.785156 411.089844 334.785156 408.921875 L 334.785156 402.242188 L 350.253906 407.394531 C 353.300781 408.410156 356.472656 408.921875 359.652344 408.921875 C 361.894531 408.921875 364.136719 408.667969 366.339844 408.160156 L 402.320312 399.859375 C 408.320312 398.476562 413.796875 395.445312 418.148438 391.089844 L 441.785156 367.464844 C 446.484375 362.769531 446.558594 355.0625 441.949219 350.28125 Z M 303.324219 401.058594 L 244.332031 401.058594 L 244.332031 361.75 L 303.324219 361.75 Z M 326.921875 404.988281 L 311.191406 404.988281 L 311.191406 357.820312 L 326.921875 357.820312 Z M 414.257812 355.671875 C 415.695312 354.238281 417.882812 354.007812 419.566406 354.972656 L 402.011719 372.519531 C 400.722656 373.804688 399.011719 374.515625 397.191406 374.515625 L 395.40625 374.515625 Z M 398.527344 355.671875 C 399.964844 354.238281 402.152344 354.007812 403.835938 354.972656 L 384.285156 374.515625 L 379.675781 374.515625 Z M 378.382812 360.082031 C 379.820312 358.644531 382.011719 358.414062 383.695312 359.378906 L 379.175781 363.894531 C 378.777344 362.8125 378.246094 361.796875 377.601562 360.863281 Z M 436.226562 361.90625 L 412.589844 385.53125 C 409.277344 388.839844 405.113281 391.148438 400.550781 392.199219 L 364.570312 400.5 C 360.648438 401.402344 356.558594 401.210938 352.742188 399.9375 L 336.296875 394.457031 L 334.785156 393.703125 L 334.785156 363.425781 C 338.300781 362.964844 341.839844 362.722656 345.382812 362.722656 L 366.011719 362.722656 C 369.28125 362.722656 372.03125 365.269531 372.144531 368.398438 C 372.191406 369.699219 371.816406 370.9375 371.085938 371.980469 L 369.582031 373.484375 C 368.609375 374.152344 367.460938 374.515625 366.25 374.515625 L 350.515625 374.515625 C 348.34375 374.515625 346.585938 376.273438 346.585938 378.445312 C 346.585938 380.617188 348.34375 382.375 350.515625 382.375 L 397.191406 382.375 C 401.113281 382.375 404.796875 380.851562 407.570312 378.078125 L 429.832031 355.828125 C 430.707031 354.957031 431.921875 354.457031 433.179688 354.457031 L 433.222656 354.457031 C 434.414062 354.46875 435.5 354.921875 436.285156 355.734375 C 437.9375 357.453125 437.914062 360.21875 436.226562 361.90625 Z M 315.128906 397.128906 C 315.128906 394.957031 316.886719 393.195312 319.058594 393.195312 L 319.066406 393.195312 C 321.238281 393.195312 323 394.957031 323 397.128906 C 323 399.300781 321.238281 401.058594 319.066406 401.058594 C 316.894531 401.058594 315.128906 399.300781 315.128906 397.128906 Z M 315.128906 397.128906 " clip-rule="nonzero"/></clipPath><linearGradient x1="30.49401" gradientTransform="matrix(0.491599, 0, 0, 0.491356, 228.601242, 169.138821)" y1="510.493993" x2="506.493987" gradientUnits="userSpaceOnUse" y2="34.49399" id="ded3fd5d55"><stop stop-opacity="1" stop-color="rgb(36.898804%, 73.699951%, 89.7995%)" offset="0"/><stop stop-opacity="1" stop-color="rgb(36.984253%, 73.632812%, 89.7995%)" offset="0.015625"/><stop stop-opacity="1" stop-color="rgb(37.362671%, 73.34137%, 89.804077%)" offset="0.0195312"/><stop stop-opacity="1" stop-color="rgb(37.654114%, 73.117065%, 89.808655%)" offset="0.0234375"/><stop stop-opacity="1" stop-color="rgb(37.945557%, 72.891235%, 89.811707%)" offset="0.0273438"/><stop stop-opacity="1" stop-color="rgb(38.238525%, 72.666931%, 89.814758%)" offset="0.03125"/><stop stop-opacity="1" stop-color="rgb(38.529968%, 72.441101%, 89.81781%)" offset="0.0351563"/><stop stop-opacity="1" stop-color="rgb(38.822937%, 72.216797%, 89.820862%)" offset="0.0390625"/><stop stop-opacity="1" stop-color="rgb(39.11438%, 71.990967%, 89.823914%)" offset="0.0429688"/><stop stop-opacity="1" stop-color="rgb(39.405823%, 71.766663%, 89.828491%)" offset="0.046875"/><stop stop-opacity="1" stop-color="rgb(39.697266%, 71.540833%, 89.831543%)" offset="0.0507813"/><stop stop-opacity="1" stop-color="rgb(39.990234%, 71.316528%, 89.834595%)" offset="0.0546875"/><stop stop-opacity="1" stop-color="rgb(40.281677%, 71.090698%, 89.837646%)" offset="0.0585937"/><stop stop-opacity="1" stop-color="rgb(40.57312%, 70.866394%, 89.842224%)" offset="0.0625"/><stop stop-opacity="1" stop-color="rgb(40.864563%, 70.640564%, 89.845276%)" offset="0.0664062"/><stop stop-opacity="1" stop-color="rgb(41.157532%, 70.41626%, 89.848328%)" offset="0.0703125"/><stop stop-opacity="1" stop-color="rgb(41.448975%, 70.19043%, 89.851379%)" offset="0.0742188"/><stop stop-opacity="1" stop-color="rgb(41.740417%, 69.966125%, 89.855957%)" offset="0.078125"/><stop stop-opacity="1" stop-color="rgb(42.03186%, 69.740295%, 89.859009%)" offset="0.0820312"/><stop stop-opacity="1" stop-color="rgb(42.324829%, 69.515991%, 89.862061%)" offset="0.0859375"/><stop stop-opacity="1" stop-color="rgb(42.616272%, 69.290161%, 89.865112%)" offset="0.0898438"/><stop stop-opacity="1" stop-color="rgb(42.907715%, 69.065857%, 89.868164%)" offset="0.09375"/><stop stop-opacity="1" stop-color="rgb(43.199158%, 68.840027%, 89.871216%)" offset="0.0976563"/><stop stop-opacity="1" stop-color="rgb(43.492126%, 68.615723%, 89.875793%)" offset="0.101562"/><stop stop-opacity="1" stop-color="rgb(43.783569%, 68.389893%, 89.878845%)" offset="0.105469"/><stop stop-opacity="1" stop-color="rgb(44.075012%, 68.165588%, 89.881897%)" offset="0.109375"/><stop stop-opacity="1" stop-color="rgb(44.366455%, 67.939758%, 89.884949%)" offset="0.113281"/><stop stop-opacity="1" stop-color="rgb(44.659424%, 67.715454%, 89.889526%)" offset="0.117187"/><stop stop-opacity="1" stop-color="rgb(44.950867%, 67.489624%, 89.892578%)" offset="0.121094"/><stop stop-opacity="1" stop-color="rgb(45.243835%, 67.26532%, 89.89563%)" offset="0.125"/><stop stop-opacity="1" stop-color="rgb(45.535278%, 67.03949%, 89.898682%)" offset="0.128906"/><stop stop-opacity="1" stop-color="rgb(45.826721%, 66.815186%, 89.903259%)" offset="0.132812"/><stop stop-opacity="1" stop-color="rgb(46.118164%, 66.589355%, 89.906311%)" offset="0.136719"/><stop stop-opacity="1" stop-color="rgb(46.411133%, 66.365051%, 89.909363%)" offset="0.140625"/><stop stop-opacity="1" stop-color="rgb(46.702576%, 66.140747%, 89.912415%)" offset="0.144531"/><stop stop-opacity="1" stop-color="rgb(46.994019%, 65.916443%, 89.916992%)" offset="0.148438"/><stop stop-opacity="1" stop-color="rgb(47.285461%, 65.690613%, 89.920044%)" offset="0.152344"/><stop stop-opacity="1" stop-color="rgb(47.57843%, 65.466309%, 89.923096%)" offset="0.15625"/><stop stop-opacity="1" stop-color="rgb(47.869873%, 65.240479%, 89.926147%)" offset="0.160156"/><stop stop-opacity="1" stop-color="rgb(48.161316%, 65.016174%, 89.929199%)" offset="0.164062"/><stop stop-opacity="1" stop-color="rgb(48.452759%, 64.790344%, 89.932251%)" offset="0.167969"/><stop stop-opacity="1" stop-color="rgb(48.745728%, 64.56604%, 89.936829%)" offset="0.171875"/><stop stop-opacity="1" stop-color="rgb(49.03717%, 64.34021%, 89.93988%)" offset="0.175781"/><stop stop-opacity="1" stop-color="rgb(49.328613%, 64.115906%, 89.942932%)" offset="0.179688"/><stop stop-opacity="1" stop-color="rgb(49.620056%, 63.890076%, 89.945984%)" offset="0.183594"/><stop stop-opacity="1" stop-color="rgb(49.913025%, 63.665771%, 89.950562%)" offset="0.1875"/><stop stop-opacity="1" stop-color="rgb(50.204468%, 63.439941%, 89.953613%)" offset="0.191406"/><stop stop-opacity="1" stop-color="rgb(50.497437%, 63.215637%, 89.956665%)" offset="0.195312"/><stop stop-opacity="1" stop-color="rgb(50.788879%, 62.989807%, 89.959717%)" offset="0.199219"/><stop stop-opacity="1" stop-color="rgb(51.080322%, 62.765503%, 89.964294%)" offset="0.203125"/><stop stop-opacity="1" stop-color="rgb(51.371765%, 62.539673%, 89.967346%)" offset="0.207031"/><stop stop-opacity="1" stop-color="rgb(51.664734%, 62.315369%, 89.970398%)" offset="0.210937"/><stop stop-opacity="1" stop-color="rgb(51.956177%, 62.089539%, 89.97345%)" offset="0.214844"/><stop stop-opacity="1" stop-color="rgb(52.24762%, 61.865234%, 89.976501%)" offset="0.21875"/><stop stop-opacity="1" stop-color="rgb(52.539062%, 61.639404%, 89.979553%)" offset="0.222656"/><stop stop-opacity="1" stop-color="rgb(52.832031%, 61.4151%, 89.984131%)" offset="0.226562"/><stop stop-opacity="1" stop-color="rgb(53.123474%, 61.18927%, 89.987183%)" offset="0.230469"/><stop stop-opacity="1" stop-color="rgb(53.414917%, 60.964966%, 89.990234%)" offset="0.234375"/><stop stop-opacity="1" stop-color="rgb(53.70636%, 60.739136%, 89.993286%)" offset="0.238281"/><stop stop-opacity="1" stop-color="rgb(53.999329%, 60.514832%, 89.997864%)" offset="0.242187"/><stop stop-opacity="1" stop-color="rgb(54.290771%, 60.289001%, 90.000916%)" offset="0.246094"/><stop stop-opacity="1" stop-color="rgb(54.582214%, 60.064697%, 90.003967%)" offset="0.25"/><stop stop-opacity="1" stop-color="rgb(54.873657%, 59.838867%, 90.007019%)" offset="0.253906"/><stop stop-opacity="1" stop-color="rgb(55.166626%, 59.614563%, 90.011597%)" offset="0.257813"/><stop stop-opacity="1" stop-color="rgb(55.458069%, 59.388733%, 90.014648%)" offset="0.261719"/><stop stop-opacity="1" stop-color="rgb(55.749512%, 59.164429%, 90.0177%)" offset="0.265625"/><stop stop-opacity="1" stop-color="rgb(56.040955%, 58.938599%, 90.020752%)" offset="0.269531"/><stop stop-opacity="1" stop-color="rgb(56.333923%, 58.714294%, 90.02533%)" offset="0.273438"/><stop stop-opacity="1" stop-color="rgb(56.625366%, 58.488464%, 90.028381%)" offset="0.277344"/><stop stop-opacity="1" stop-color="rgb(56.918335%, 58.26416%, 90.031433%)" offset="0.28125"/><stop stop-opacity="1" stop-color="rgb(57.209778%, 58.03833%, 90.034485%)" offset="0.285156"/><stop stop-opacity="1" stop-color="rgb(57.501221%, 57.814026%, 90.037537%)" offset="0.289062"/><stop stop-opacity="1" stop-color="rgb(57.792664%, 57.588196%, 90.040588%)" offset="0.292969"/><stop stop-opacity="1" stop-color="rgb(58.085632%, 57.363892%, 90.045166%)" offset="0.296875"/><stop stop-opacity="1" stop-color="rgb(58.377075%, 57.138062%, 90.048218%)" offset="0.300781"/><stop stop-opacity="1" stop-color="rgb(58.668518%, 56.913757%, 90.05127%)" offset="0.304688"/><stop stop-opacity="1" stop-color="rgb(58.959961%, 56.689453%, 90.054321%)" offset="0.308594"/><stop stop-opacity="1" stop-color="rgb(59.25293%, 56.465149%, 90.058899%)" offset="0.3125"/><stop stop-opacity="1" stop-color="rgb(59.544373%, 56.239319%, 90.061951%)" offset="0.316406"/><stop stop-opacity="1" stop-color="rgb(59.835815%, 56.015015%, 90.065002%)" offset="0.320312"/><stop stop-opacity="1" stop-color="rgb(60.127258%, 55.789185%, 90.068054%)" offset="0.324219"/><stop stop-opacity="1" stop-color="rgb(60.420227%, 55.56488%, 90.072632%)" offset="0.328125"/><stop stop-opacity="1" stop-color="rgb(60.71167%, 55.33905%, 90.075684%)" offset="0.332031"/><stop stop-opacity="1" stop-color="rgb(61.003113%, 55.114746%, 90.078735%)" offset="0.335938"/><stop stop-opacity="1" stop-color="rgb(61.294556%, 54.888916%, 90.081787%)" offset="0.339844"/><stop stop-opacity="1" stop-color="rgb(61.587524%, 54.664612%, 90.084839%)" offset="0.34375"/><stop stop-opacity="1" stop-color="rgb(61.878967%, 54.438782%, 90.087891%)" offset="0.347656"/><stop stop-opacity="1" stop-color="rgb(62.171936%, 54.214478%, 90.092468%)" offset="0.351562"/><stop stop-opacity="1" stop-color="rgb(62.463379%, 53.988647%, 90.09552%)" offset="0.355469"/><stop stop-opacity="1" stop-color="rgb(62.754822%, 53.764343%, 90.098572%)" offset="0.359375"/><stop stop-opacity="1" stop-color="rgb(63.046265%, 53.538513%, 90.101624%)" offset="0.363281"/><stop stop-opacity="1" stop-color="rgb(63.339233%, 53.314209%, 90.106201%)" offset="0.367188"/><stop stop-opacity="1" stop-color="rgb(63.630676%, 53.088379%, 90.109253%)" offset="0.371094"/><stop stop-opacity="1" stop-color="rgb(63.922119%, 52.864075%, 90.112305%)" offset="0.375"/><stop stop-opacity="1" stop-color="rgb(64.213562%, 52.638245%, 90.115356%)" offset="0.378906"/><stop stop-opacity="1" stop-color="rgb(64.506531%, 52.41394%, 90.119934%)" offset="0.382813"/><stop stop-opacity="1" stop-color="rgb(64.797974%, 52.18811%, 90.122986%)" offset="0.386719"/><stop stop-opacity="1" stop-color="rgb(65.089417%, 51.963806%, 90.126038%)" offset="0.390625"/><stop stop-opacity="1" stop-color="rgb(65.380859%, 51.737976%, 90.129089%)" offset="0.394531"/><stop stop-opacity="1" stop-color="rgb(65.673828%, 51.513672%, 90.132141%)" offset="0.398438"/><stop stop-opacity="1" stop-color="rgb(65.965271%, 51.287842%, 90.135193%)" offset="0.402344"/><stop stop-opacity="1" stop-color="rgb(66.256714%, 51.063538%, 90.139771%)" offset="0.40625"/><stop stop-opacity="1" stop-color="rgb(66.548157%, 50.837708%, 90.142822%)" offset="0.410156"/><stop stop-opacity="1" stop-color="rgb(66.841125%, 50.613403%, 90.145874%)" offset="0.414063"/><stop stop-opacity="1" stop-color="rgb(67.132568%, 50.387573%, 90.148926%)" offset="0.417969"/><stop stop-opacity="1" stop-color="rgb(67.425537%, 50.163269%, 90.153503%)" offset="0.421875"/><stop stop-opacity="1" stop-color="rgb(67.71698%, 49.937439%, 90.156555%)" offset="0.425781"/><stop stop-opacity="1" stop-color="rgb(68.008423%, 49.713135%, 90.159607%)" offset="0.429688"/><stop stop-opacity="1" stop-color="rgb(68.299866%, 49.487305%, 90.162659%)" offset="0.433594"/><stop stop-opacity="1" stop-color="rgb(68.592834%, 49.263%, 90.167236%)" offset="0.4375"/><stop stop-opacity="1" stop-color="rgb(68.884277%, 49.03717%, 90.170288%)" offset="0.441406"/><stop stop-opacity="1" stop-color="rgb(69.17572%, 48.812866%, 90.17334%)" offset="0.445312"/><stop stop-opacity="1" stop-color="rgb(69.467163%, 48.587036%, 90.176392%)" offset="0.449219"/><stop stop-opacity="1" stop-color="rgb(69.760132%, 48.362732%, 90.180969%)" offset="0.453125"/><stop stop-opacity="1" stop-color="rgb(70.051575%, 48.136902%, 90.184021%)" offset="0.457031"/><stop stop-opacity="1" stop-color="rgb(70.343018%, 47.912598%, 90.187073%)" offset="0.460938"/><stop stop-opacity="1" stop-color="rgb(70.63446%, 47.688293%, 90.190125%)" offset="0.464844"/><stop stop-opacity="1" stop-color="rgb(70.927429%, 47.463989%, 90.193176%)" offset="0.46875"/><stop stop-opacity="1" stop-color="rgb(71.191406%, 47.262573%, 90.109253%)" offset="0.472656"/><stop stop-opacity="1" stop-color="rgb(71.456909%, 47.061157%, 90.02533%)" offset="0.476563"/><stop stop-opacity="1" stop-color="rgb(71.606445%, 46.961975%, 89.570618%)" offset="0.480469"/><stop stop-opacity="1" stop-color="rgb(71.755981%, 46.862793%, 89.117432%)" offset="0.484375"/><stop stop-opacity="1" stop-color="rgb(71.905518%, 46.763611%, 88.66272%)" offset="0.488281"/><stop stop-opacity="1" stop-color="rgb(72.055054%, 46.664429%, 88.209534%)" offset="0.492188"/><stop stop-opacity="1" stop-color="rgb(72.20459%, 46.565247%, 87.754822%)" offset="0.496094"/><stop stop-opacity="1" stop-color="rgb(72.354126%, 46.466064%, 87.30011%)" offset="0.5"/><stop stop-opacity="1" stop-color="rgb(72.503662%, 46.366882%, 86.845398%)" offset="0.503906"/><stop stop-opacity="1" stop-color="rgb(72.653198%, 46.2677%, 86.392212%)" offset="0.507812"/><stop stop-opacity="1" stop-color="rgb(72.802734%, 46.168518%, 85.9375%)" offset="0.511719"/><stop stop-opacity="1" stop-color="rgb(72.952271%, 46.069336%, 85.484314%)" offset="0.515625"/><stop stop-opacity="1" stop-color="rgb(73.101807%, 45.970154%, 85.029602%)" offset="0.519531"/><stop stop-opacity="1" stop-color="rgb(73.252869%, 45.870972%, 84.576416%)" offset="0.523438"/><stop stop-opacity="1" stop-color="rgb(73.402405%, 45.77179%, 84.121704%)" offset="0.527344"/><stop stop-opacity="1" stop-color="rgb(73.551941%, 45.672607%, 83.666992%)" offset="0.53125"/><stop stop-opacity="1" stop-color="rgb(73.701477%, 45.573425%, 83.21228%)" offset="0.535156"/><stop stop-opacity="1" stop-color="rgb(73.851013%, 45.474243%, 82.759094%)" offset="0.539063"/><stop stop-opacity="1" stop-color="rgb(74.000549%, 45.375061%, 82.304382%)" offset="0.542969"/><stop stop-opacity="1" stop-color="rgb(74.150085%, 45.275879%, 81.851196%)" offset="0.546875"/><stop stop-opacity="1" stop-color="rgb(74.299622%, 45.176697%, 81.396484%)" offset="0.550781"/><stop stop-opacity="1" stop-color="rgb(74.449158%, 45.077515%, 80.943298%)" offset="0.554688"/><stop stop-opacity="1" stop-color="rgb(74.598694%, 44.978333%, 80.488586%)" offset="0.558594"/><stop stop-opacity="1" stop-color="rgb(74.74823%, 44.87915%, 80.033875%)" offset="0.5625"/><stop stop-opacity="1" stop-color="rgb(74.897766%, 44.779968%, 79.579163%)" offset="0.566406"/><stop stop-opacity="1" stop-color="rgb(75.047302%, 44.680786%, 79.125977%)" offset="0.570313"/><stop stop-opacity="1" stop-color="rgb(75.196838%, 44.581604%, 78.671265%)" offset="0.574219"/><stop stop-opacity="1" stop-color="rgb(75.346375%, 44.482422%, 78.218079%)" offset="0.578125"/><stop stop-opacity="1" stop-color="rgb(75.495911%, 44.38324%, 77.763367%)" offset="0.582031"/><stop stop-opacity="1" stop-color="rgb(75.646973%, 44.284058%, 77.310181%)" offset="0.585938"/><stop stop-opacity="1" stop-color="rgb(75.796509%, 44.184875%, 76.855469%)" offset="0.589844"/><stop stop-opacity="1" stop-color="rgb(75.946045%, 44.085693%, 76.400757%)" offset="0.59375"/><stop stop-opacity="1" stop-color="rgb(76.095581%, 43.986511%, 75.946045%)" offset="0.597656"/><stop stop-opacity="1" stop-color="rgb(76.245117%, 43.887329%, 75.492859%)" offset="0.601562"/><stop stop-opacity="1" stop-color="rgb(76.394653%, 43.788147%, 75.038147%)" offset="0.605469"/><stop stop-opacity="1" stop-color="rgb(76.544189%, 43.688965%, 74.584961%)" offset="0.609375"/><stop stop-opacity="1" stop-color="rgb(76.693726%, 43.589783%, 74.130249%)" offset="0.613281"/><stop stop-opacity="1" stop-color="rgb(76.843262%, 43.490601%, 73.677063%)" offset="0.617188"/><stop stop-opacity="1" stop-color="rgb(76.992798%, 43.391418%, 73.222351%)" offset="0.621094"/><stop stop-opacity="1" stop-color="rgb(77.142334%, 43.292236%, 72.767639%)" offset="0.625"/><stop stop-opacity="1" stop-color="rgb(77.29187%, 43.193054%, 72.312927%)" offset="0.628906"/><stop stop-opacity="1" stop-color="rgb(77.441406%, 43.093872%, 71.859741%)" offset="0.632813"/><stop stop-opacity="1" stop-color="rgb(77.590942%, 42.99469%, 71.405029%)" offset="0.636719"/><stop stop-opacity="1" stop-color="rgb(77.742004%, 42.895508%, 70.951843%)" offset="0.640625"/><stop stop-opacity="1" stop-color="rgb(77.891541%, 42.796326%, 70.497131%)" offset="0.644531"/><stop stop-opacity="1" stop-color="rgb(78.041077%, 42.697144%, 70.043945%)" offset="0.648438"/><stop stop-opacity="1" stop-color="rgb(78.190613%, 42.597961%, 69.589233%)" offset="0.652344"/><stop stop-opacity="1" stop-color="rgb(78.340149%, 42.498779%, 69.134521%)" offset="0.65625"/><stop stop-opacity="1" stop-color="rgb(78.489685%, 42.399597%, 68.67981%)" offset="0.660156"/><stop stop-opacity="1" stop-color="rgb(78.639221%, 42.300415%, 68.226624%)" offset="0.664063"/><stop stop-opacity="1" stop-color="rgb(78.788757%, 42.201233%, 67.771912%)" offset="0.667969"/><stop stop-opacity="1" stop-color="rgb(78.938293%, 42.102051%, 67.318726%)" offset="0.671875"/><stop stop-opacity="1" stop-color="rgb(79.08783%, 42.002869%, 66.864014%)" offset="0.675781"/><stop stop-opacity="1" stop-color="rgb(79.237366%, 41.903687%, 66.410828%)" offset="0.679688"/><stop stop-opacity="1" stop-color="rgb(79.386902%, 41.804504%, 65.956116%)" offset="0.683594"/><stop stop-opacity="1" stop-color="rgb(79.536438%, 41.705322%, 65.501404%)" offset="0.6875"/><stop stop-opacity="1" stop-color="rgb(79.685974%, 41.60614%, 65.046692%)" offset="0.691406"/><stop stop-opacity="1" stop-color="rgb(79.837036%, 41.506958%, 64.593506%)" offset="0.695312"/><stop stop-opacity="1" stop-color="rgb(79.986572%, 41.407776%, 64.138794%)" offset="0.699219"/><stop stop-opacity="1" stop-color="rgb(80.136108%, 41.308594%, 63.685608%)" offset="0.703125"/><stop stop-opacity="1" stop-color="rgb(80.285645%, 41.209412%, 63.230896%)" offset="0.707031"/><stop stop-opacity="1" stop-color="rgb(80.435181%, 41.110229%, 62.77771%)" offset="0.710938"/><stop stop-opacity="1" stop-color="rgb(80.584717%, 41.011047%, 62.322998%)" offset="0.714844"/><stop stop-opacity="1" stop-color="rgb(80.734253%, 40.911865%, 61.868286%)" offset="0.71875"/><stop stop-opacity="1" stop-color="rgb(80.883789%, 40.812683%, 61.413574%)" offset="0.722656"/><stop stop-opacity="1" stop-color="rgb(81.033325%, 40.713501%, 60.960388%)" offset="0.726563"/><stop stop-opacity="1" stop-color="rgb(81.182861%, 40.614319%, 60.505676%)" offset="0.730469"/><stop stop-opacity="1" stop-color="rgb(81.332397%, 40.515137%, 60.05249%)" offset="0.734375"/><stop stop-opacity="1" stop-color="rgb(81.481934%, 40.415955%, 59.597778%)" offset="0.738281"/><stop stop-opacity="1" stop-color="rgb(81.63147%, 40.316772%, 59.144592%)" offset="0.742188"/><stop stop-opacity="1" stop-color="rgb(81.781006%, 40.21759%, 58.68988%)" offset="0.746094"/><stop stop-opacity="1" stop-color="rgb(81.932068%, 40.118408%, 58.235168%)" offset="0.75"/><stop stop-opacity="1" stop-color="rgb(82.081604%, 40.019226%, 57.780457%)" offset="0.753906"/><stop stop-opacity="1" stop-color="rgb(82.23114%, 39.920044%, 57.327271%)" offset="0.757813"/><stop stop-opacity="1" stop-color="rgb(82.380676%, 39.820862%, 56.872559%)" offset="0.761719"/><stop stop-opacity="1" stop-color="rgb(82.530212%, 39.72168%, 56.419373%)" offset="0.765625"/><stop stop-opacity="1" stop-color="rgb(82.679749%, 39.622498%, 55.964661%)" offset="0.769531"/><stop stop-opacity="1" stop-color="rgb(82.829285%, 39.523315%, 55.511475%)" offset="0.773438"/><stop stop-opacity="1" stop-color="rgb(82.978821%, 39.424133%, 55.056763%)" offset="0.777344"/><stop stop-opacity="1" stop-color="rgb(83.128357%, 39.324951%, 54.602051%)" offset="0.78125"/><stop stop-opacity="1" stop-color="rgb(83.277893%, 39.225769%, 54.147339%)" offset="0.785156"/><stop stop-opacity="1" stop-color="rgb(83.427429%, 39.126587%, 53.694153%)" offset="0.789062"/><stop stop-opacity="1" stop-color="rgb(83.576965%, 39.027405%, 53.239441%)" offset="0.792969"/><stop stop-opacity="1" stop-color="rgb(83.726501%, 38.928223%, 52.786255%)" offset="0.796875"/><stop stop-opacity="1" stop-color="rgb(83.876038%, 38.829041%, 52.331543%)" offset="0.800781"/><stop stop-opacity="1" stop-color="rgb(84.025574%, 38.729858%, 51.878357%)" offset="0.804688"/><stop stop-opacity="1" stop-color="rgb(84.17511%, 38.630676%, 51.423645%)" offset="0.808594"/><stop stop-opacity="1" stop-color="rgb(84.326172%, 38.531494%, 50.968933%)" offset="0.8125"/><stop stop-opacity="1" stop-color="rgb(84.475708%, 38.432312%, 50.514221%)" offset="0.816406"/><stop stop-opacity="1" stop-color="rgb(84.625244%, 38.33313%, 50.061035%)" offset="0.820313"/><stop stop-opacity="1" stop-color="rgb(84.77478%, 38.233948%, 49.606323%)" offset="0.824219"/><stop stop-opacity="1" stop-color="rgb(84.924316%, 38.134766%, 49.153137%)" offset="0.828125"/><stop stop-opacity="1" stop-color="rgb(85.073853%, 38.035583%, 48.698425%)" offset="0.832031"/><stop stop-opacity="1" stop-color="rgb(85.223389%, 37.936401%, 48.245239%)" offset="0.835938"/><stop stop-opacity="1" stop-color="rgb(85.372925%, 37.837219%, 47.790527%)" offset="0.839844"/><stop stop-opacity="1" stop-color="rgb(85.522461%, 37.738037%, 47.335815%)" offset="0.84375"/><stop stop-opacity="1" stop-color="rgb(85.671997%, 37.638855%, 46.881104%)" offset="0.847656"/><stop stop-opacity="1" stop-color="rgb(85.821533%, 37.539673%, 46.427917%)" offset="0.851563"/><stop stop-opacity="1" stop-color="rgb(85.971069%, 37.440491%, 45.973206%)" offset="0.855469"/><stop stop-opacity="1" stop-color="rgb(86.120605%, 37.341309%, 45.52002%)" offset="0.859375"/><stop stop-opacity="1" stop-color="rgb(86.270142%, 37.242126%, 45.065308%)" offset="0.863281"/><stop stop-opacity="1" stop-color="rgb(86.421204%, 37.142944%, 44.610596%)" offset="0.867188"/><stop stop-opacity="1" stop-color="rgb(86.57074%, 37.043762%, 44.155884%)" offset="0.871094"/><stop stop-opacity="1" stop-color="rgb(86.720276%, 36.94458%, 43.702698%)" offset="0.875"/><stop stop-opacity="1" stop-color="rgb(86.869812%, 36.845398%, 43.247986%)" offset="0.878906"/><stop stop-opacity="1" stop-color="rgb(87.019348%, 36.746216%, 42.7948%)" offset="0.882812"/><stop stop-opacity="1" stop-color="rgb(87.168884%, 36.647034%, 42.340088%)" offset="0.886719"/><stop stop-opacity="1" stop-color="rgb(87.31842%, 36.547852%, 41.886902%)" offset="0.890625"/><stop stop-opacity="1" stop-color="rgb(87.467957%, 36.448669%, 41.43219%)" offset="0.894531"/><stop stop-opacity="1" stop-color="rgb(87.617493%, 36.349487%, 40.977478%)" offset="0.898438"/><stop stop-opacity="1" stop-color="rgb(87.767029%, 36.250305%, 40.522766%)" offset="0.902344"/><stop stop-opacity="1" stop-color="rgb(87.916565%, 36.151123%, 40.06958%)" offset="0.90625"/><stop stop-opacity="1" stop-color="rgb(88.066101%, 36.051941%, 39.614868%)" offset="0.910156"/><stop stop-opacity="1" stop-color="rgb(88.215637%, 35.952759%, 39.161682%)" offset="0.914062"/><stop stop-opacity="1" stop-color="rgb(88.365173%, 35.853577%, 38.70697%)" offset="0.917969"/><stop stop-opacity="1" stop-color="rgb(88.516235%, 35.754395%, 38.253784%)" offset="0.921875"/><stop stop-opacity="1" stop-color="rgb(88.557434%, 35.726929%, 38.12561%)" offset="0.9375"/><stop stop-opacity="1" stop-color="rgb(88.598633%, 35.699463%, 37.998962%)" offset="1"/></linearGradient></defs><g clip-path="url(#3fc519931c)"><g clip-path="url(#c6e393881d)"><path fill="url(#ded3fd5d55)" d="M 236.46875 177 L 236.46875 412.851562 L 468.5 412.851562 L 468.5 177 Z M 236.46875 177 " fill-rule="nonzero"/></g></g></svg>