<?xml version="1.0" encoding="utf-8"?><!-- Uploaded to: SVG Repo, www.svgrepo.com, Generator: SVG Repo Mixer Tools --><svg xmlns="http://www.w3.org/2000/svg" width="800px" height="800px" viewBox="0 0 1024 1024" class="icon" version="1.1"><path d="M511.8 154.1L916 277v45.7H108V277l403.8-122.9m0-46L64 244.4v122.3h896V244.4L511.8 108.1zM113 831.4h798v16H113z" fill="#ffffff"/><path d="M113 391.1h798v16H113z" fill="#E73B37"/><path d="M64.3 871.8h895.3v44H64.3zM204.2 475.6v287.3h52v44h-120v-44h52V475.6h-52v-44h120v44zM414.7 475.6v287.3h52v44h-120v-44h52V475.6h-52v-44h120v44zM625.2 475.6v287.3h52v44h-120v-44h52V475.6h-52v-44h120v44zM835.8 475.6v287.3h52v44h-120v-44h52V475.6h-52v-44h120v44z" fill="#ffffff"/></svg>