<!DOCTYPE svg PUBLIC "-//W3C//DTD SVG 1.1//EN" "http://www.w3.org/Graphics/SVG/1.1/DTD/svg11.dtd">
<!-- Uploaded to: SVG Repo, www.svgrepo.com, Transformed by: SVG Repo Mixer Tools -->
<svg width="800px" height="800px" viewBox="0 0 1024.00 1024.00" class="icon" version="1.1" xmlns="http://www.w3.org/2000/svg" fill="#000000" stroke="#000000" stroke-width="5.12">
<g id="SVGRepo_bgCarrier" stroke-width="0"/>
<g id="SVGRepo_tracerCarrier" stroke-linecap="round" stroke-linejoin="round" stroke="#CCCCCC" stroke-width="22.528">
<path d="M511.8 154.1L916 277v45.7H108V277l403.8-122.9m0-46L64 244.4v122.3h896V244.4L511.8 108.1zM113 831.4h798v16H113z" fill="#ffffff"/>
<path d="M113 391.1h798v16H113z" fill="#9d5bc2"/>
<path d="M64.3 871.8h895.3v44H64.3zM204.2 475.6v287.3h52v44h-120v-44h52V475.6h-52v-44h120v44zM414.7 475.6v287.3h52v44h-120v-44h52V475.6h-52v-44h120v44zM625.2 475.6v287.3h52v44h-120v-44h52V475.6h-52v-44h120v44zM835.8 475.6v287.3h52v44h-120v-44h52V475.6h-52v-44h120v44z" fill="#ffffff"/>
</g>
<g id="SVGRepo_iconCarrier">
<path d="M511.8 154.1L916 277v45.7H108V277l403.8-122.9m0-46L64 244.4v122.3h896V244.4L511.8 108.1zM113 831.4h798v16H113z" fill="#ffffff"/>
<path d="M113 391.1h798v16H113z" fill="#9d5bc2"/>
<path d="M64.3 871.8h895.3v44H64.3zM204.2 475.6v287.3h52v44h-120v-44h52V475.6h-52v-44h120v44zM414.7 475.6v287.3h52v44h-120v-44h52V475.6h-52v-44h120v44zM625.2 475.6v287.3h52v44h-120v-44h52V475.6h-52v-44h120v44zM835.8 475.6v287.3h52v44h-120v-44h52V475.6h-52v-44h120v44z" fill="#ffffff"/>
</g>
</svg>