<!DOCTYPE svg PUBLIC "-//W3C//DTD SVG 1.1//EN" "http://www.w3.org/Graphics/SVG/1.1/DTD/svg11.dtd">
<!-- Uploaded to: SVG Repo, www.svgrepo.com, Transformed by: SVG Repo Mixer Tools -->
<svg width="800px" height="800px" viewBox="0 0 1024.00 1024.00" class="icon" version="1.1" xmlns="http://www.w3.org/2000/svg" fill="#000000" stroke="#000000" stroke-width="6.144">
<g id="SVGRepo_bgCarrier" stroke-width="0"/>
<g id="SVGRepo_tracerCarrier" stroke-linecap="round" stroke-linejoin="round" stroke="#CCCCCC" stroke-width="22.528">
<path d="M928.1 881v44H95.9V99h44v782z" fill="#ffffff"/>
<path d="M352 435.7v403.4H204V435.7h148m22-22H182v447.4h192V413.7zM608 307.9v531.2H460V307.9h148m22-22H438v575.2h192V285.9z" fill="#ffffff"/>
<path d="M866.1 177.3v663.9H714V177.3h152.1m20-20H694v703.9h192V157.3h0.1z" fill="#9d5bc2"/>
</g>
<g id="SVGRepo_iconCarrier">
<path d="M928.1 881v44H95.9V99h44v782z" fill="#ffffff"/>
<path d="M352 435.7v403.4H204V435.7h148m22-22H182v447.4h192V413.7zM608 307.9v531.2H460V307.9h148m22-22H438v575.2h192V285.9z" fill="#ffffff"/>
<path d="M866.1 177.3v663.9H714V177.3h152.1m20-20H694v703.9h192V157.3h0.1z" fill="#9d5bc2"/>
</g>
</svg>