<svg xmlns="http://www.w3.org/2000/svg" xmlns:xlink="http://www.w3.org/1999/xlink" width="940" zoomAndPan="magnify" viewBox="0 0 705 591.000005" height="788" preserveAspectRatio="xMidYMid meet" version="1.0"><defs><clipPath id="7b4a9eb12b"><path d="M 252.789062 177 L 451.953125 177 L 451.953125 412.851562 L 252.789062 412.851562 Z M 252.789062 177 " clip-rule="nonzero"/></clipPath><clipPath id="d23924eede"><path d="M 285 375 L 303 375 L 303 412.851562 L 285 412.851562 Z M 285 375 " clip-rule="nonzero"/></clipPath><clipPath id="81d6377def"><path d="M 285 375 L 294 375 L 294 412.851562 L 285 412.851562 Z M 285 375 " clip-rule="nonzero"/></clipPath><clipPath id="456851c980"><path d="M 321 342 L 341 342 L 341 412.851562 L 321 412.851562 Z M 321 342 " clip-rule="nonzero"/></clipPath><clipPath id="dc3ee473f6"><path d="M 321 342 L 332 342 L 332 412.851562 L 321 412.851562 Z M 321 342 " clip-rule="nonzero"/></clipPath><clipPath id="0c43dd0024"><path d="M 357 303 L 376 303 L 376 412.851562 L 357 412.851562 Z M 357 303 " clip-rule="nonzero"/></clipPath><clipPath id="d36ac94836"><path d="M 357 303 L 367 303 L 367 412.851562 L 357 412.851562 Z M 357 303 " clip-rule="nonzero"/></clipPath><clipPath id="0aec4f16ba"><path d="M 398 241 L 417 241 L 417 412.851562 L 398 412.851562 Z M 398 241 " clip-rule="nonzero"/></clipPath><clipPath id="d4a11aaca9"><path d="M 398 247 L 408 247 L 408 412.851562 L 398 412.851562 Z M 398 247 " clip-rule="nonzero"/></clipPath></defs><g clip-path="url(#7b4a9eb12b)"><path fill="#f6b30b" d="M 451.941406 177.007812 L 399.644531 190.550781 L 408.863281 199.773438 L 359.707031 234.539062 L 359.707031 270.203125 L 324.066406 270.203125 L 324.066406 305.867188 L 288.425781 305.867188 L 288.425781 341.535156 L 252.789062 341.535156 L 252.789062 412.863281 L 276.789062 412.863281 L 276.789062 367.445312 L 312.429688 367.445312 L 312.429688 331.777344 L 348.070312 331.777344 L 348.070312 296.113281 L 387.625 296.113281 L 387.863281 250.007812 L 428.984375 219.914062 L 439.457031 230.390625 L 451.941406 177.007812 " fill-opacity="1" fill-rule="nonzero"/><path fill="#fae004" d="M 262.355469 352.203125 L 297.992188 352.203125 L 297.992188 316.535156 L 333.632812 316.535156 L 333.632812 280.871094 L 369.277344 280.871094 L 369.277344 245.207031 L 418.425781 210.441406 L 409.210938 201.214844 L 448.667969 191 L 451.941406 177.007812 L 399.644531 190.550781 L 408.863281 199.773438 L 359.707031 234.539062 L 359.707031 270.203125 L 324.066406 270.203125 L 324.066406 305.867188 L 288.425781 305.867188 L 288.425781 341.535156 L 252.789062 341.535156 L 252.789062 412.863281 L 262.355469 412.863281 L 262.355469 352.203125 " fill-opacity="1" fill-rule="nonzero"/></g><g clip-path="url(#d23924eede)"><path fill="#ed0f7a" d="M 302.804688 412.863281 L 285.035156 412.863281 L 285.035156 375.996094 L 302.804688 375.996094 L 302.804688 412.863281 " fill-opacity="1" fill-rule="nonzero"/></g><g clip-path="url(#81d6377def)"><path fill="#f13e8f" d="M 293.921875 412.863281 L 285.035156 412.863281 L 285.035156 375.996094 L 293.921875 375.996094 L 293.921875 412.863281 " fill-opacity="1" fill-rule="nonzero"/></g><g clip-path="url(#456851c980)"><path fill="#39a7e4" d="M 340.710938 412.863281 L 321.757812 412.863281 L 321.757812 342.015625 L 340.710938 342.015625 L 340.710938 412.863281 " fill-opacity="1" fill-rule="nonzero"/></g><g clip-path="url(#dc3ee473f6)"><path fill="#5fb6e9" d="M 331.234375 412.863281 L 321.757812 412.863281 L 321.757812 342.015625 L 331.234375 342.015625 L 331.234375 412.863281 " fill-opacity="1" fill-rule="nonzero"/></g><g clip-path="url(#0c43dd0024)"><path fill="#40b93c" d="M 375.851562 412.863281 L 357.292969 412.863281 L 357.292969 303.691406 L 375.851562 303.691406 L 375.851562 412.863281 " fill-opacity="1" fill-rule="nonzero"/></g><g clip-path="url(#d36ac94836)"><path fill="#80cc28" d="M 366.570312 412.863281 L 357.292969 412.863281 L 357.292969 303.691406 L 366.570312 303.691406 L 366.570312 412.863281 " fill-opacity="1" fill-rule="nonzero"/></g><g clip-path="url(#0aec4f16ba)"><path fill="#7842a5" d="M 416.914062 412.863281 L 398.355469 412.863281 L 398.355469 255.089844 L 416.914062 241.121094 L 416.914062 412.863281 " fill-opacity="1" fill-rule="nonzero"/></g><g clip-path="url(#d4a11aaca9)"><path fill="#8f5eb5" d="M 407.832031 247.957031 L 398.355469 255.089844 L 398.355469 412.863281 L 407.832031 412.863281 L 407.832031 247.957031 " fill-opacity="1" fill-rule="nonzero"/></g></svg>