<?xml version="1.0" encoding="utf-8"?>
<!-- Generator: Adobe Illustrator 27.0.0, SVG Export Plug-In . SVG Version: 6.00 Build 0)  -->
<svg version="1.1" id="Layer_1" xmlns="http://www.w3.org/2000/svg" xmlns:xlink="http://www.w3.org/1999/xlink" x="0px" y="0px"
	 viewBox="0 0 3000 588.7" style="enable-background:new 0 0 3000 588.7;" xml:space="preserve">
<style type="text/css">
	.st0{fill:#060B27;}
	.st1{fill:#FFF682;}
	.st2{fill:#8E31F7;}
	.st3{opacity:0.26;}
	.st4{fill:#1D2232;}
	.st5{opacity:0.15;fill:#1D2232;}
	.st6{opacity:8.000000e-02;fill:#1D2232;}
	.st7{fill:#FFFFFF;}
	.st8{fill:#7F7F7F;}
	.st9{fill:#636363;}
	.st10{opacity:0.15;}
	.st11{opacity:8.000000e-02;}
	.st12{fill:#E2E2E2;}
	.st13{fill:#969696;}
</style>
<g>
	<path class="st2" d="M978.3,494.5h-82.7L830.6,363h-68.5v131.6h-71.4V147.2h157.5c36.9,0,65.4,10,85.6,29.8
		c20.2,19.9,30.3,46.1,30.3,78.8c0,23.5-5.3,43.9-15.9,61.1c-10.6,17.3-25.9,30-45.7,38.1L978.3,494.5z M881.4,286.4
		c7.5-7.3,11.2-17.5,11.2-30.6s-3.8-23.5-11.5-31.3c-7.7-7.8-18.7-11.7-33-11.7h-86.1v84.6h86.1
		C862.8,297.4,873.9,293.7,881.4,286.4z"/>
	<path class="st2" d="M1057.4,494.5h-74.7l125.2-347.3h80.7l124.9,347.3h-71.1l-21.1-59.7h-142.7L1057.4,494.5z M1150.6,235.2
		l-1.1,0.1l-48.1,135.5h97.2L1150.6,235.2z"/>
	<path class="st2" d="M1666,494.5h-88l-98.7-149.3l-52.9,57.8v91.5h-71.4V147.2h71.4v165.3l141.4-165.3h92.9l-132.1,144.3
		L1666,494.5z"/>
	<path class="st2" d="M1943.8,429v65.5h-249.9V147.2h249.9v65.6h-178.5v72.9h171.2v65.5h-171.2V429H1943.8z"/>
	<path class="st7" d="M2299,191.3c33.9,34.2,50.9,77.5,50.9,129.6s-17,95.4-50.9,129.6c-33.9,34.2-77.1,51.4-129.6,51.4
		c-52.5,0-95.7-17.1-129.6-51.4c-33.9-34.2-50.9-77.4-50.9-129.6s17-95.4,50.9-129.6c33.9-34.2,77.1-51.3,129.6-51.3
		C2221.8,139.9,2265,157,2299,191.3z M2245.2,402.8c19.6-20.7,29.3-48,29.3-81.9s-9.8-61.2-29.3-81.9
		c-19.6-20.7-44.8-31.1-75.8-31.1c-31,0-56.3,10.4-75.8,31.1c-19.6,20.7-29.3,48-29.3,81.9s9.8,61.2,29.3,81.9
		c19.6,20.7,44.8,31.1,75.8,31.1C2200.3,433.9,2225.6,423.5,2245.2,402.8z"/>
	<path class="st7" d="M2478.5,494.5h-71.4V147.2h230.4v65.6h-159v72.9h151.6v65.5h-151.6V494.5z"/>
	<path class="st7" d="M2759.7,494.5h-71.4V147.2h230.4v65.6h-159v72.9h151.6v65.5h-151.6V494.5z"/>
	<g>
		<path class="st2" d="M487.1,263.7c0,76.3-47.2,141.7-113.8,168.7c-11.3,4.7-23.1,8.1-35.3,10.4c-6.8,1.3-13.8,2.2-20.9,2.7
			c-4,0.3-8.1,0.4-12.2,0.4H196.4l-24.3-19.1l-90-70.9h224c1.1,0,2.3,0,3.4-0.1c51.3-2.6,91.7-47.3,87.2-100.2
			c-4.1-48.3-46.6-84.2-95-84.2H81.3V115c0-18.5,15.1-33.6,33.6-33.6h61.7V37.8c0-5.3,4.3-9.5,9.5-9.5h37.3c5.3,0,9.5,4.3,9.5,9.5
			v43.6h37.1V37.8c0-5.3,4.3-9.5,9.5-9.5h37.8c5.3,0,9.5,4.3,9.5,9.5v45C417,93.7,487.1,170.7,487.1,263.7z"/>
	</g>
	<g class="st3">
		<path class="st4" d="M443.4,218.7v2.7c-1.5,73.6-60.7,132.7-133.9,134.4c21.3-1.1,40.7-9.4,55.8-22.6c0,0,0,0,0.1,0
			c0.2-0.1,0.3-0.2,0.5-0.4c0.7-0.7,2.3-2,4.3-4c18.4-18.4,29-44.5,26.6-73.1c-4.1-48.3-46.6-84.2-95-84.2H81.3V115
			c0-18.5,15.1-33.6,33.7-33.6h61.7V37.8c0-5.3,4.3-9.5,9.5-9.5h37.3c5.3,0,9.5,4.2,9.5,9.5v43.6h37.1V37.8c0-5.3,4.3-9.5,9.5-9.5
			h37.7c5.3,0,9.5,4.2,9.5,9.5V83C392.9,93,443.4,150,443.4,218.7z"/>
	</g>
	<path class="st5" d="M373.2,432.4c-11.3,4.7-23.1,8.1-35.3,10.4c-6.8,1.3-13.8,2.2-20.9,2.7c-4,0.3-8.1,0.4-12.2,0.4H196.4
		l-24.3-19.1l-90-70.9h193.9l59.5,46.9l20.9,16.4L373.2,432.4z"/>
	<polygon class="st7" points="487.1,560.4 341.7,560.4 196.4,445.9 172.1,426.8 82.1,355.9 81.3,355.3 81.3,240.9 203.3,336.8 
		227.5,355.9 317,426.4 337.9,442.8 487,560.3 	"/>
	<g>
		<path class="st7" d="M226.8,560.4H114.9c-18.6,0-33.6-15.1-33.6-33.6v-80.8L226.8,560.4z"/>
	</g>
	<path class="st6" d="M443.4,218.7v2.7c-1.5,73.6-60.7,132.7-133.9,134.4c21.3-1.1,40.7-9.4,55.8-22.6c0,0,0,0,0.1,0
		c0.2-0.1,0.3-0.2,0.5-0.4c0.7-0.7,2.3-2,4.3-4c14.5-14,56.2-60.3,46.2-119.9C406,147.5,359.7,95.4,168.2,81.4h8.5V37.8
		c0-5.3,4.3-9.5,9.5-9.5h37.3c5.3,0,9.5,4.2,9.5,9.5v43.6h37.1V37.8c0-5.3,4.3-9.5,9.5-9.5h37.7c5.3,0,9.5,4.2,9.5,9.5V83
		C392.9,93,443.4,150,443.4,218.7z"/>
</g>
</svg>
