<?xml version="1.0" encoding="utf-8"?>
<!-- Generator: Adobe Illustrator 27.0.0, SVG Export Plug-In . SVG Version: 6.00 Build 0)  -->
<svg version="1.1" id="Layer_1" xmlns="http://www.w3.org/2000/svg" xmlns:xlink="http://www.w3.org/1999/xlink" x="0px" y="0px"
	 viewBox="0 0 3000 3000" style="enable-background:new 0 0 3000 3000;" xml:space="preserve">
<style type="text/css">
	.st0{fill:#060B27;}
	.st1{fill:#FFF682;}
	.st2{fill:#8E31F7;}
	.st3{opacity:0.26;}
	.st4{fill:#1D2232;}
	.st5{opacity:0.15;fill:#1D2232;}
	.st6{opacity:8.000000e-02;fill:#1D2232;}
	.st7{fill:#FFFFFF;}
	.st8{fill:#7F7F7F;}
	.st9{fill:#636363;}
	.st10{opacity:0.15;}
	.st11{opacity:8.000000e-02;}
	.st12{fill:#E2E2E2;}
	.st13{fill:#969696;}
</style>
<g>
	<g>
		<path class="st12" d="M2580.7,1336.6c0,406.4-251.3,755.1-606.5,898.9c-60.1,25.1-123.1,43.3-188,55.4
			c-36.2,7-73.6,11.7-111.2,14.4c-21.4,1.6-43.3,2.1-65.1,2.1h-577.9l-129.3-101.6l-479.4-377.5h1193.5c5.7,0,12.1,0,17.9-0.6
			c273.4-14,488.7-252.1,464.8-533.8c-21.9-257.1-248.3-448.7-506.2-448.7H419.1V544.9c0-98.7,80.3-179,179.1-179h328.9V133.5
			c0-28,22.7-50.7,50.7-50.7h198.9c28,0,50.7,22.7,50.7,50.7v232.4h197.4V133.5c0-28,22.7-50.7,50.7-50.7h201.2
			c28,0,50.7,22.7,50.7,50.7v239.8C2207.4,431.3,2580.7,841.4,2580.7,1336.6z"/>
	</g>
	<g class="st3">
		<path class="st13" d="M2348.1,1097.1v14.5c-8.2,392.2-323.3,707-713.3,716.2c113.4-5.9,216.9-50.1,297.3-120.6c0,0,0,0,0.3,0
			c1-0.7,1.7-1.3,2.6-2.3c4-3.6,12.2-10.9,22.7-21.4c97.9-98.2,154.6-237.3,141.7-389.6c-21.8-257.1-248.2-448.6-506.3-448.6H419
			V544.7c0-98.6,80.4-179,179.3-179h328.9V133.4c0-28,22.7-50.4,50.8-50.4h198.8c28,0,50.8,22.4,50.8,50.4v232.4h197.4V133.4
			c0-28,22.7-50.4,50.8-50.4h201.1c28,0,50.8,22.4,50.8,50.4V374C2079.2,427.7,2348.1,731.3,2348.1,1097.1z"/>
	</g>
	<path class="st10" d="M1974.2,2235.6c-60.2,25-123,43.1-188,55.4c-36.2,6.9-73.5,11.7-111.3,14.4c-21.3,1.6-43.1,2.1-65,2.1h-577.8
		l-129.4-101.7l-479.3-377.6h1033.1l316.9,249.8l111.3,87.3L1974.2,2235.6z"/>
	<polygon class="st7" points="2581,2917.2 1806.2,2917.2 1031.9,2307.5 902.5,2205.7 423.2,1828.2 419,1825 419,1215.2 
		1068.7,1726.5 1198.1,1828.2 1674.7,2203.6 1786,2290.9 2580.5,2916.7 	"/>
	<g>
		<path class="st7" d="M1193.9,2917.2H598.2c-98.9,0-179.1-80.2-179.1-179.1v-430.7L1193.9,2917.2z"/>
	</g>
	<path class="st11" d="M2348.1,1097.1v14.5c-8.2,392.2-323.3,707-713.3,716.2c113.4-5.9,216.9-50.1,297.3-120.6c0,0,0,0,0.3,0
		c1-0.7,1.7-1.3,2.6-2.3c4-3.6,12.2-10.9,22.7-21.4c77.5-74.8,299.3-321.4,245.9-638.8c-55-327-301.9-604.5-1321.7-679h45.2V133.4
		c0-28,22.7-50.4,50.8-50.4h198.8c28,0,50.8,22.4,50.8,50.4v232.4h197.4V133.4c0-28,22.7-50.4,50.8-50.4h201.1
		c28,0,50.8,22.4,50.8,50.4V374C2079.2,427.7,2348.1,731.3,2348.1,1097.1z"/>
</g>
</svg>
