<svg xmlns="http://www.w3.org/2000/svg" xmlns:xlink="http://www.w3.org/1999/xlink" width="940" zoomAndPan="magnify" viewBox="0 0 705 591.000005" height="788" preserveAspectRatio="xMidYMid meet" version="1.0"><defs><clipPath id="7c96e010e3"><path d="M 253 142.34375 L 270 142.34375 L 270 363 L 253 363 Z M 253 142.34375 " clip-rule="nonzero"/></clipPath><clipPath id="e81bf3cfc0"><path d="M 241.875 346 L 290 346 L 290 363 L 241.875 363 Z M 241.875 346 " clip-rule="nonzero"/></clipPath><clipPath id="16ae8379f4"><path d="M 241.875 142.34375 L 290 142.34375 L 290 160 L 241.875 160 Z M 241.875 142.34375 " clip-rule="nonzero"/></clipPath><clipPath id="61b3d43601"><path d="M 416 143 L 463.5 143 L 463.5 161 L 416 161 Z M 416 143 " clip-rule="nonzero"/></clipPath><clipPath id="5e452ebfc8"><path d="M 241.875 142.34375 L 463.5 142.34375 L 463.5 378.195312 L 241.875 378.195312 Z M 241.875 142.34375 " clip-rule="nonzero"/></clipPath></defs><g clip-path="url(#7c96e010e3)"><path stroke-linecap="butt" transform="matrix(0.672711, 0, 0, 0.671175, 169.676155, 90.128026)" fill="none" stroke-linejoin="miter" d="M 136.527247 90.322142 L 136.527247 393.847622 " stroke="#000000" stroke-width="25" stroke-opacity="1" stroke-miterlimit="10"/></g><g clip-path="url(#e81bf3cfc0)"><path stroke-linecap="butt" transform="matrix(0.672711, 0, 0, 0.671175, 169.676155, 90.128026)" fill="none" stroke-linejoin="miter" d="M 107.598125 393.847622 L 165.462176 393.847622 " stroke="#000000" stroke-width="25" stroke-opacity="1" stroke-miterlimit="10"/></g><g clip-path="url(#16ae8379f4)"><path stroke-linecap="butt" transform="matrix(0.672711, 0, 0, 0.671175, 169.676155, 90.128026)" fill="none" stroke-linejoin="miter" d="M 107.598125 90.322142 L 165.462176 90.322142 " stroke="#000000" stroke-width="25" stroke-opacity="1" stroke-miterlimit="10"/></g><path stroke-linecap="butt" transform="matrix(0.672711, 0, 0, 0.671175, 169.676155, 90.128026)" fill="none" stroke-linejoin="miter" d="M 190.117545 91.672386 L 247.981596 91.672386 " stroke="#000000" stroke-width="25" stroke-opacity="1" stroke-miterlimit="10"/><g clip-path="url(#61b3d43601)"><path stroke-linecap="butt" transform="matrix(0.672711, 0, 0, 0.671175, 169.676155, 90.128026)" fill="none" stroke-linejoin="miter" d="M 378.691056 91.672386 L 436.5493 91.672386 " stroke="#000000" stroke-width="25" stroke-opacity="1" stroke-miterlimit="10"/></g><g clip-path="url(#5e452ebfc8)"><path stroke-linecap="butt" transform="matrix(0.672711, 0, 0, 0.671175, 169.676155, 90.128026)" fill="none" stroke-linejoin="miter" d="M 203.560122 91.672386 L 321.308964 392.497379 L 421.242763 91.672386 " stroke="#000000" stroke-width="25" stroke-opacity="1" stroke-miterlimit="10"/></g></svg>