<svg xmlns="http://www.w3.org/2000/svg" xmlns:xlink="http://www.w3.org/1999/xlink" width="940" zoomAndPan="magnify" viewBox="0 0 705 591.000005" height="788" preserveAspectRatio="xMidYMid meet" version="1.0"><defs><clipPath id="b30a2ce5e8"><path d="M 211.738281 199 L 480 199 L 480 405.160156 L 211.738281 405.160156 Z M 211.738281 199 " clip-rule="nonzero"/></clipPath><clipPath id="1e6e70ca72"><path d="M 225 185.03125 L 493.261719 185.03125 L 493.261719 392 L 225 392 Z M 225 185.03125 " clip-rule="nonzero"/></clipPath></defs><g clip-path="url(#b30a2ce5e8)"><path fill="#aeb3b7" d="M 249.324219 405.109375 C 248.816406 405.109375 248.421875 405.082031 248.167969 405.058594 C 247.761719 405.023438 247.464844 404.984375 247.253906 404.953125 C 246.957031 404.90625 246.660156 404.851562 246.367188 404.789062 C 246.089844 404.726562 245.769531 404.648438 245.5 404.566406 L 245.453125 404.554688 C 245.183594 404.476562 244.875 404.375 244.625 404.285156 C 244.234375 404.144531 243.828125 403.976562 243.4375 403.792969 C 243.085938 403.621094 241.367188 402.761719 225.617188 394.878906 L 219.386719 391.757812 C 214.671875 389.398438 211.742188 384.65625 211.742188 379.378906 L 211.742188 355.605469 C 211.742188 352.824219 212.605469 350.046875 214.183594 347.75 C 215.96875 345.042969 218.191406 343.875 219.828125 343.011719 C 221.242188 342.269531 223.675781 341.058594 229 338.398438 C 230.988281 337.40625 233.371094 336.21875 236.214844 334.796875 C 233.6875 333.53125 230.269531 331.820312 225.617188 329.492188 L 219.386719 326.375 C 214.671875 324.015625 211.742188 319.269531 211.742188 313.992188 L 211.742188 290.222656 C 211.742188 287.4375 212.605469 284.664062 214.183594 282.367188 C 215.96875 279.65625 218.191406 278.488281 219.828125 277.628906 C 221.242188 276.882812 223.675781 275.671875 229 273.015625 C 230.988281 272.019531 233.371094 270.835938 236.214844 269.414062 C 233.6875 268.144531 230.269531 266.433594 225.617188 264.109375 L 219.386719 260.988281 C 214.671875 258.628906 211.742188 253.886719 211.742188 248.609375 L 211.742188 224.835938 C 211.742188 222.050781 212.605469 219.277344 214.183594 216.984375 C 215.96875 214.273438 218.191406 213.101562 219.828125 212.242188 C 221.242188 211.5 223.675781 210.285156 229 207.628906 C 232.429688 205.917969 237.007812 203.632812 243.136719 200.566406 C 245.046875 199.609375 247.1875 199.105469 249.324219 199.105469 C 251.460938 199.105469 253.601562 199.609375 255.511719 200.566406 L 279.261719 212.453125 C 282.503906 214.085938 284.984375 216.9375 286.152344 220.332031 C 286.472656 221.167969 286.660156 221.722656 286.765625 222.882812 L 299.542969 222.882812 C 312.140625 222.882812 322.390625 233.144531 322.390625 245.753906 L 322.390625 278.863281 C 323.382812 278.957031 324.351562 279.15625 325.289062 279.449219 L 325.289062 221.898438 C 325.289062 210.753906 334.34375 201.691406 345.480469 201.691406 L 459.015625 201.691406 C 470.148438 201.691406 479.207031 210.753906 479.207031 221.898438 L 479.207031 374.878906 C 479.207031 384.644531 472.246094 392.816406 463.03125 394.683594 C 459.902344 399.453125 454.523438 402.523438 448.515625 402.523438 L 443.019531 402.523438 C 437.1875 402.523438 431.941406 399.628906 428.777344 395.085938 L 375.714844 395.085938 C 372.550781 399.628906 367.308594 402.523438 361.472656 402.523438 L 355.976562 402.523438 C 349.972656 402.523438 344.589844 399.453125 341.460938 394.683594 C 332.246094 392.816406 325.289062 384.644531 325.289062 374.878906 L 325.289062 325.140625 C 324.351562 325.433594 323.382812 325.632812 322.390625 325.726562 L 322.390625 358.835938 C 322.390625 371.445312 312.140625 381.703125 299.542969 381.703125 L 286.707031 381.703125 C 285.980469 386.019531 283.269531 389.753906 279.261719 391.761719 L 255.511719 403.648438 C 255.390625 403.707031 255.253906 403.773438 255.113281 403.839844 C 254.753906 404.003906 254.390625 404.152344 254.007812 404.292969 C 253.757812 404.382812 253.429688 404.488281 253.148438 404.570312 C 253.035156 404.601562 252.6875 404.699219 252.289062 404.785156 C 252.007812 404.847656 251.710938 404.902344 251.414062 404.949219 C 251.085938 405 250.800781 405.03125 250.476562 405.058594 C 250.214844 405.082031 249.824219 405.109375 249.324219 405.109375 " fill-opacity="1" fill-rule="nonzero"/></g><g clip-path="url(#1e6e70ca72)"><path fill="#cb6ce6" d="M 473.066406 187.625 L 359.53125 187.625 C 348.398438 187.625 339.339844 196.691406 339.339844 207.835938 L 339.339844 265.382812 C 338.402344 265.089844 337.433594 264.890625 336.445312 264.796875 L 336.445312 231.691406 C 336.445312 219.078125 326.191406 208.820312 313.59375 208.820312 L 300.820312 208.820312 C 300.710938 207.65625 300.523438 207.101562 300.207031 206.265625 C 299.035156 202.875 296.554688 200.023438 293.316406 198.390625 L 269.5625 186.5 C 267.652344 185.546875 265.511719 185.039062 263.378906 185.039062 C 261.238281 185.039062 259.101562 185.546875 257.191406 186.5 C 251.058594 189.570312 246.480469 191.855469 243.050781 193.566406 C 237.726562 196.222656 235.292969 197.4375 233.878906 198.179688 C 232.246094 199.039062 230.019531 200.207031 228.234375 202.917969 C 226.660156 205.214844 225.792969 207.988281 225.792969 210.773438 L 225.792969 234.542969 C 225.792969 239.820312 228.722656 244.566406 233.441406 246.925781 L 239.671875 250.042969 C 244.320312 252.371094 247.738281 254.082031 250.269531 255.347656 C 247.425781 256.769531 245.042969 257.957031 243.050781 258.949219 C 237.726562 261.609375 235.292969 262.820312 233.878906 263.5625 C 232.246094 264.421875 230.019531 265.59375 228.234375 268.304688 C 226.660156 270.597656 225.792969 273.375 225.792969 276.15625 L 225.792969 299.925781 C 225.792969 305.203125 228.722656 309.949219 233.441406 312.308594 L 239.671875 315.429688 C 244.320312 317.753906 247.738281 319.464844 250.269531 320.734375 C 247.425781 322.152344 245.042969 323.34375 243.050781 324.335938 C 237.726562 326.992188 235.292969 328.203125 233.878906 328.949219 C 232.246094 329.808594 230.019531 330.976562 228.234375 333.6875 C 226.660156 335.984375 225.792969 338.757812 225.792969 341.542969 L 225.792969 365.3125 C 225.792969 370.589844 228.722656 375.335938 233.441406 377.695312 L 239.671875 380.8125 C 255.417969 388.695312 257.136719 389.558594 257.492188 389.726562 C 257.878906 389.914062 258.285156 390.082031 258.675781 390.21875 C 258.929688 390.3125 259.234375 390.410156 259.507812 390.492188 L 259.550781 390.503906 C 259.820312 390.582031 260.140625 390.664062 260.421875 390.722656 C 260.710938 390.789062 261.007812 390.84375 261.304688 390.886719 C 261.515625 390.921875 261.8125 390.960938 262.222656 390.996094 C 262.472656 391.015625 262.871094 391.046875 263.378906 391.046875 C 263.878906 391.046875 264.269531 391.015625 264.527344 390.996094 C 264.851562 390.96875 265.136719 390.9375 265.464844 390.886719 C 265.765625 390.839844 266.0625 390.785156 266.34375 390.722656 C 266.738281 390.632812 267.085938 390.539062 267.199219 390.503906 C 267.480469 390.425781 267.8125 390.316406 268.058594 390.226562 C 268.441406 390.089844 268.804688 389.941406 269.164062 389.773438 C 269.304688 389.710938 269.445312 389.644531 269.5625 389.582031 L 293.3125 377.695312 C 297.324219 375.691406 300.035156 371.957031 300.757812 367.640625 L 313.59375 367.640625 C 326.191406 367.640625 336.445312 357.382812 336.445312 344.769531 L 336.445312 311.664062 C 337.433594 311.570312 338.402344 311.371094 339.339844 311.078125 L 339.339844 360.8125 C 339.339844 370.582031 346.300781 378.75 355.515625 380.621094 C 358.644531 385.390625 364.023438 388.460938 370.027344 388.460938 L 375.527344 388.460938 C 381.359375 388.460938 386.605469 385.5625 389.769531 381.023438 L 442.832031 381.023438 C 445.992188 385.5625 451.238281 388.460938 457.070312 388.460938 L 462.570312 388.460938 C 468.574219 388.460938 473.953125 385.390625 477.082031 380.621094 C 486.300781 378.75 493.257812 370.582031 493.257812 360.8125 L 493.257812 207.835938 C 493.257812 196.691406 484.199219 187.625 473.066406 187.625 " fill-opacity="1" fill-rule="nonzero"/></g><path fill="#000000" d="M 469.777344 223.035156 C 467.730469 223.035156 466.066406 224.699219 466.066406 226.75 L 466.066406 238.125 C 466.066406 240.175781 467.730469 241.839844 469.777344 241.839844 C 471.828125 241.839844 473.492188 240.175781 473.492188 238.125 L 473.492188 226.75 C 473.492188 224.699219 471.828125 223.035156 469.777344 223.035156 " fill-opacity="1" fill-rule="nonzero"/><path fill="#000000" d="M 466.066406 330.523438 L 466.066406 341.898438 C 466.066406 343.949219 467.730469 345.617188 469.777344 345.617188 C 471.828125 345.617188 473.492188 343.949219 473.492188 341.898438 L 473.492188 330.523438 C 473.492188 328.476562 471.828125 326.808594 469.777344 326.808594 C 467.730469 326.808594 466.066406 328.476562 466.066406 330.523438 " fill-opacity="1" fill-rule="nonzero"/><path fill="#000000" d="M 457.070312 377.207031 L 462.570312 377.207031 C 465.570312 377.207031 468.070312 375.035156 468.589844 372.179688 L 451.050781 372.179688 C 451.566406 375.035156 454.070312 377.207031 457.070312 377.207031 " fill-opacity="1" fill-rule="nonzero"/><path fill="#000000" d="M 475.679688 238.125 C 475.679688 241.007812 473.605469 243.410156 470.871094 243.925781 L 470.871094 324.722656 C 473.605469 325.238281 475.679688 327.644531 475.679688 330.523438 L 475.679688 341.898438 C 475.679688 344.78125 473.605469 347.183594 470.871094 347.699219 L 470.871094 357.523438 C 470.871094 358.128906 470.382812 358.617188 469.777344 358.617188 L 362.816406 358.617188 C 362.214844 358.617188 361.726562 358.128906 361.726562 357.523438 L 361.726562 211.125 C 361.726562 210.519531 362.214844 210.03125 362.816406 210.03125 L 469.777344 210.03125 C 470.382812 210.03125 470.871094 210.519531 470.871094 211.125 L 470.871094 220.949219 C 473.605469 221.464844 475.679688 223.867188 475.679688 226.75 Z M 473.066406 198.875 L 359.53125 198.875 C 354.585938 198.875 350.582031 202.886719 350.582031 207.835938 L 350.582031 360.8125 C 350.582031 365.761719 354.585938 369.773438 359.53125 369.773438 L 473.066406 369.773438 C 478.007812 369.773438 482.015625 365.761719 482.015625 360.8125 L 482.015625 207.835938 C 482.015625 202.886719 478.007812 198.875 473.066406 198.875 " fill-opacity="1" fill-rule="nonzero"/><path fill="#000000" d="M 398.3125 314.957031 C 383.886719 314.957031 372.144531 303.207031 372.144531 288.769531 C 372.144531 274.328125 383.886719 262.578125 398.3125 262.578125 C 412.742188 262.578125 424.480469 274.328125 424.480469 288.769531 C 424.480469 303.207031 412.742188 314.957031 398.3125 314.957031 Z M 463.878906 341.898438 L 463.878906 330.523438 C 463.878906 327.644531 465.953125 325.238281 468.6875 324.722656 L 468.6875 243.925781 C 465.953125 243.410156 463.878906 241.007812 463.878906 238.125 L 463.878906 226.75 C 463.878906 223.867188 465.953125 221.464844 468.6875 220.949219 L 468.6875 212.21875 L 363.910156 212.21875 L 363.910156 356.429688 L 468.6875 356.429688 L 468.6875 347.699219 C 465.953125 347.183594 463.878906 344.78125 463.878906 341.898438 " fill-opacity="1" fill-rule="nonzero"/><path fill="#000000" d="M 417.199219 277.855469 C 417.5 278.378906 417.320312 279.046875 416.796875 279.347656 L 408.796875 283.972656 C 409.324219 285.121094 409.667969 286.363281 409.789062 287.675781 L 419.027344 287.675781 C 419.628906 287.675781 420.121094 288.164062 420.121094 288.769531 C 420.121094 289.371094 419.628906 289.863281 419.027344 289.863281 L 409.789062 289.863281 C 409.667969 291.171875 409.324219 292.417969 408.796875 293.5625 L 416.796875 298.1875 C 417.320312 298.488281 417.5 299.15625 417.199219 299.679688 C 416.996094 300.03125 416.628906 300.226562 416.25 300.226562 C 416.066406 300.226562 415.878906 300.179688 415.703125 300.082031 L 407.703125 295.457031 C 406.953125 296.503906 406.039062 297.417969 404.996094 298.164062 L 409.617188 306.175781 C 409.917969 306.699219 409.738281 307.367188 409.214844 307.667969 C 409.042969 307.769531 408.855469 307.816406 408.671875 307.816406 C 408.292969 307.816406 407.925781 307.621094 407.722656 307.269531 L 403.105469 299.261719 C 401.957031 299.789062 400.714844 300.132812 399.40625 300.253906 L 399.40625 309.5 C 399.40625 310.105469 398.914062 310.59375 398.3125 310.59375 C 397.710938 310.59375 397.21875 310.105469 397.21875 309.5 L 397.21875 300.253906 C 395.910156 300.132812 394.667969 299.789062 393.519531 299.261719 L 388.902344 307.269531 C 388.699219 307.621094 388.332031 307.816406 387.953125 307.816406 C 387.769531 307.816406 387.582031 307.769531 387.410156 307.667969 C 386.886719 307.367188 386.707031 306.699219 387.007812 306.175781 L 391.632812 298.164062 C 390.585938 297.417969 389.671875 296.503906 388.925781 295.457031 L 380.921875 300.082031 C 380.75 300.179688 380.558594 300.226562 380.375 300.226562 C 379.996094 300.226562 379.628906 300.03125 379.429688 299.679688 C 379.125 299.15625 379.304688 298.488281 379.828125 298.1875 L 387.828125 293.5625 C 387.300781 292.417969 386.957031 291.171875 386.835938 289.863281 L 377.597656 289.863281 C 376.996094 289.863281 376.507812 289.371094 376.507812 288.769531 C 376.507812 288.164062 376.996094 287.675781 377.597656 287.675781 L 386.835938 287.675781 C 386.957031 286.363281 387.300781 285.121094 387.828125 283.972656 L 379.828125 279.347656 C 379.304688 279.046875 379.125 278.378906 379.429688 277.855469 C 379.730469 277.332031 380.398438 277.152344 380.921875 277.453125 L 388.925781 282.082031 C 389.667969 281.035156 390.585938 280.117188 391.632812 279.371094 L 387.007812 271.363281 C 386.707031 270.839844 386.886719 270.171875 387.410156 269.867188 C 387.933594 269.566406 388.601562 269.746094 388.902344 270.269531 L 393.519531 278.273438 C 394.667969 277.75 395.910156 277.402344 397.21875 277.28125 L 397.21875 268.039062 C 397.21875 267.433594 397.710938 266.941406 398.3125 266.941406 C 398.914062 266.941406 399.40625 267.433594 399.40625 268.039062 L 399.40625 277.28125 C 400.714844 277.402344 401.957031 277.75 403.105469 278.273438 L 407.722656 270.269531 C 408.027344 269.746094 408.695312 269.566406 409.214844 269.867188 C 409.738281 270.171875 409.917969 270.839844 409.617188 271.363281 L 404.996094 279.371094 C 406.039062 280.117188 406.953125 281.035156 407.703125 282.082031 L 415.703125 277.453125 C 416.226562 277.152344 416.898438 277.332031 417.199219 277.855469 Z M 398.3125 264.765625 C 385.089844 264.765625 374.332031 275.535156 374.332031 288.769531 C 374.332031 302.003906 385.089844 312.769531 398.3125 312.769531 C 411.535156 312.769531 422.292969 302.003906 422.292969 288.769531 C 422.292969 275.535156 411.535156 264.765625 398.3125 264.765625 " fill-opacity="1" fill-rule="nonzero"/><path fill="#000000" d="M 398.3125 279.414062 C 393.160156 279.414062 388.964844 283.609375 388.964844 288.769531 C 388.964844 293.925781 393.160156 298.121094 398.3125 298.121094 C 403.464844 298.121094 407.660156 293.925781 407.660156 288.769531 C 407.660156 283.609375 403.464844 279.414062 398.3125 279.414062 " fill-opacity="1" fill-rule="nonzero"/><path fill="#000000" d="M 370.027344 377.207031 L 375.527344 377.207031 C 378.527344 377.207031 381.027344 375.035156 381.546875 372.179688 L 364.007812 372.179688 C 364.527344 375.035156 367.027344 377.207031 370.027344 377.207031 " fill-opacity="1" fill-rule="nonzero"/><path fill="#000000" d="M 284.539062 232.941406 L 265.964844 242.238281 L 265.964844 224.261719 C 267.585938 223.453125 282.300781 216.085938 284.539062 214.964844 Z M 263.378906 219.761719 L 245.414062 210.773438 L 263.378906 201.78125 L 281.339844 210.773438 Z M 288.285156 208.453125 L 264.535156 196.566406 C 263.804688 196.199219 262.949219 196.199219 262.21875 196.566406 C 236.304688 209.535156 238.0625 208.515625 237.53125 209.25 C 237.199219 209.710938 237.035156 210.25 237.035156 210.773438 L 237.035156 234.542969 C 237.035156 235.523438 237.589844 236.421875 238.46875 236.859375 C 243.90625 239.582031 262.1875 248.734375 262.296875 248.785156 C 262.308594 248.792969 262.382812 248.828125 262.5 248.871094 C 262.511719 248.875 262.605469 248.90625 262.660156 248.921875 C 262.679688 248.925781 262.765625 248.949219 262.820312 248.960938 C 262.867188 248.972656 262.925781 248.984375 262.988281 248.992188 C 263.039062 249 263.078125 249.007812 263.160156 249.011719 C 263.21875 249.019531 263.28125 249.023438 263.378906 249.023438 C 263.472656 249.023438 263.535156 249.019531 263.59375 249.011719 C 263.671875 249.007812 263.710938 249.003906 263.765625 248.992188 C 263.824219 248.984375 263.886719 248.972656 263.933594 248.960938 C 263.988281 248.949219 264.078125 248.925781 264.09375 248.921875 C 264.148438 248.90625 264.238281 248.875 264.253906 248.871094 C 264.375 248.828125 264.445312 248.792969 264.457031 248.785156 L 264.535156 248.75 L 288.285156 236.859375 C 289.164062 236.421875 289.71875 235.523438 289.71875 234.542969 C 289.714844 208.742188 289.773438 210.558594 289.601562 210.011719 C 289.394531 209.332031 288.921875 208.773438 288.285156 208.453125 " fill-opacity="1" fill-rule="nonzero"/><path fill="#000000" d="M 284.539062 298.328125 L 265.964844 307.621094 L 265.964844 289.648438 C 267.585938 288.835938 282.300781 281.472656 284.539062 280.351562 Z M 263.378906 285.148438 L 245.414062 276.15625 L 263.378906 267.164062 L 281.339844 276.15625 Z M 288.285156 273.839844 L 264.535156 261.949219 C 263.804688 261.585938 262.949219 261.585938 262.21875 261.949219 C 236.304688 274.921875 238.0625 273.898438 237.53125 274.632812 C 237.199219 275.09375 237.035156 275.636719 237.035156 276.15625 L 237.035156 299.925781 C 237.035156 300.910156 237.589844 301.808594 238.46875 302.246094 C 243.90625 304.96875 262.1875 314.121094 262.296875 314.171875 C 262.308594 314.175781 262.382812 314.214844 262.5 314.253906 C 262.511719 314.261719 262.605469 314.292969 262.660156 314.308594 C 262.679688 314.3125 262.765625 314.335938 262.820312 314.347656 C 262.867188 314.359375 262.925781 314.371094 262.988281 314.378906 C 263.039062 314.386719 263.078125 314.390625 263.160156 314.398438 C 263.21875 314.402344 263.28125 314.410156 263.378906 314.410156 C 263.472656 314.410156 263.535156 314.402344 263.59375 314.398438 C 263.671875 314.390625 263.710938 314.386719 263.765625 314.378906 C 263.824219 314.367188 263.886719 314.359375 263.933594 314.347656 C 263.988281 314.335938 264.078125 314.308594 264.09375 314.308594 C 264.148438 314.292969 264.238281 314.261719 264.253906 314.253906 C 264.375 314.210938 264.445312 314.175781 264.457031 314.171875 L 264.535156 314.132812 L 288.285156 302.246094 C 289.164062 301.808594 289.71875 300.910156 289.71875 299.925781 C 289.714844 274.125 289.773438 275.945312 289.601562 275.394531 C 289.394531 274.71875 288.921875 274.160156 288.285156 273.839844 " fill-opacity="1" fill-rule="nonzero"/><path fill="#000000" d="M 284.539062 363.710938 L 265.964844 373.007812 L 265.964844 355.03125 C 267.585938 354.222656 282.300781 346.855469 284.539062 345.734375 Z M 263.378906 350.53125 L 245.414062 341.542969 L 263.378906 332.550781 L 281.339844 341.542969 Z M 289.601562 340.78125 C 289.394531 340.105469 288.921875 339.542969 288.285156 339.222656 L 264.535156 327.335938 C 263.804688 326.96875 262.949219 326.96875 262.21875 327.335938 C 236.304688 340.308594 238.0625 339.285156 237.53125 340.019531 C 237.199219 340.476562 237.035156 341.019531 237.035156 341.542969 L 237.035156 365.3125 C 237.035156 366.296875 237.589844 367.195312 238.46875 367.632812 C 243.90625 370.351562 262.1875 379.503906 262.296875 379.554688 C 262.308594 379.5625 262.382812 379.597656 262.5 379.640625 C 262.511719 379.644531 262.605469 379.675781 262.660156 379.691406 C 262.679688 379.695312 262.765625 379.722656 262.820312 379.734375 C 262.867188 379.742188 262.925781 379.753906 262.988281 379.761719 C 263.039062 379.769531 263.078125 379.777344 263.160156 379.785156 C 263.21875 379.789062 263.28125 379.792969 263.378906 379.792969 C 263.472656 379.792969 263.535156 379.789062 263.59375 379.785156 C 263.671875 379.777344 263.710938 379.769531 263.765625 379.761719 C 263.824219 379.753906 263.886719 379.742188 263.933594 379.734375 C 263.988281 379.722656 264.078125 379.695312 264.09375 379.691406 C 264.148438 379.675781 264.238281 379.644531 264.253906 379.640625 C 264.375 379.597656 264.445312 379.5625 264.457031 379.554688 L 264.535156 379.519531 L 288.285156 367.632812 C 289.164062 367.195312 289.71875 366.296875 289.71875 365.3125 C 289.714844 339.511719 289.773438 341.328125 289.601562 340.78125 " fill-opacity="1" fill-rule="nonzero"/><path fill="#000000" d="M 337.164062 276.851562 C 336.007812 275.695312 334.132812 275.695312 332.976562 276.851562 C 331.820312 278.007812 331.820312 279.882812 332.976562 281.039062 L 337.199219 285.269531 L 325.203125 285.269531 L 325.203125 231.691406 C 325.203125 225.28125 319.992188 220.070312 313.59375 220.070312 L 299.007812 220.070312 C 297.371094 220.070312 296.046875 221.398438 296.046875 223.035156 C 296.046875 224.667969 297.371094 225.996094 299.007812 225.996094 L 313.59375 225.996094 C 316.730469 225.996094 319.28125 228.550781 319.28125 231.691406 L 319.28125 285.269531 L 299.007812 285.269531 C 297.371094 285.269531 296.046875 286.59375 296.046875 288.230469 C 296.046875 289.867188 297.371094 291.191406 299.007812 291.191406 L 319.28125 291.191406 L 319.28125 344.769531 C 319.28125 347.910156 316.730469 350.464844 313.59375 350.464844 L 299.007812 350.464844 C 297.371094 350.464844 296.046875 351.789062 296.046875 353.425781 C 296.046875 355.0625 297.371094 356.390625 299.007812 356.390625 L 313.59375 356.390625 C 319.992188 356.390625 325.203125 351.179688 325.203125 344.769531 L 325.203125 291.191406 L 337.199219 291.191406 L 332.976562 295.417969 C 331.820312 296.578125 331.820312 298.453125 332.976562 299.609375 C 333.554688 300.1875 334.3125 300.476562 335.070312 300.476562 C 335.828125 300.476562 336.585938 300.1875 337.164062 299.609375 L 346.441406 290.324219 C 346.996094 289.769531 347.308594 289.015625 347.308594 288.230469 C 347.308594 287.445312 346.996094 286.691406 346.441406 286.136719 L 337.164062 276.851562 " fill-opacity="1" fill-rule="nonzero"/></svg>