<?xml version="1.0" encoding="UTF-8"?>
<svg id="Layer_1" data-name="Layer 1" xmlns="http://www.w3.org/2000/svg" viewBox="0 0 1000 1000">
  <defs>
    <style>
      .cls-1 {
        fill: #e53223;
      }
    </style>
  </defs>
  <g>
    <polygon class="cls-1" points="622.45 446.44 622.45 446.44 622.45 446.43 622.45 446.44"/>
    <polygon class="cls-1" points="599.19 569.18 599.19 569.19 599.2 569.19 599.19 569.18"/>
    <path d="M425.72,730.28l3.2-9.77h0c-90.68-29.7-156.24-115-156.23-215.63,0-54.45,19.13-104.42,51.11-143.52l.07-.08,1.17-1.56c1.15,.33,2.33,.56,3.59,.56,7.23,0,13.09-5.86,13.09-13.09,0-1.57-.32-3.06-.83-4.46l1.53-1.5-.03,.03c24.45-23.55,54.22-41.65,87.29-52.35l-3.17-9.79h0c-34.59,11.19-65.71,30.11-91.26,54.73l-.05,.04-1.34,1.31c-1.61-.7-3.38-1.11-5.24-1.11-7.23,0-13.09,5.86-13.09,13.09,0,2.18,.59,4.21,1.53,6.02l-1.36,1.81h0c-33.35,40.84-53.31,93.07-53.3,149.87,0,105.19,68.51,194.36,163.31,225.4Zm-97.1-389.34c3.45,0,6.23,2.79,6.24,6.24,0,3.44-2.79,6.23-6.24,6.23-3.44,0-6.23-2.79-6.23-6.23,0-3.45,2.79-6.23,6.23-6.24Z"/>
    <polygon class="cls-1" points="573.86 730.14 573.86 730.14 573.86 730.14 573.86 730.14"/>
    <path d="M736.69,510.79c4.72-1.98,8.04-6.64,8.04-12.08,0-5.71-3.67-10.51-8.76-12.3l-.14-2.15v-.03s0-.06,0-.06c-8.09-94.31-71.33-172.71-157.32-203.03l-3.42,9.7c82.25,29.01,142.76,104.02,150.49,194.2l.14,2.07c-4.23,2.17-7.16,6.52-7.16,11.61,0,5.37,3.24,9.96,7.86,11.99l-.07,1.6v.04c-3.1,97.24-67.49,179.02-155.68,208.03l3.21,9.77c92.21-30.32,159.48-115.8,162.75-217.47v.04s.08-1.92,.08-1.92Zm-5.05-18.32c3.44,0,6.23,2.79,6.23,6.24,0,3.45-2.79,6.23-6.23,6.24-3.44,0-6.23-2.79-6.24-6.24,0-3.44,2.8-6.23,6.24-6.24Z"/>
    <polygon class="cls-1" points="575.07 290.83 575.07 290.83 575.07 290.83 575.07 290.83"/>
    <path d="M747.67,447.54c0,5.15,4.18,9.33,9.33,9.33s9.33-4.17,9.33-9.33-3.95-9-8.89-9.24c-10.58-41.09-30.6-78.4-57.82-109.24l-.89-1.01c1.41-2.09,2.23-4.61,2.24-7.32,0-7.23-5.86-13.09-13.09-13.09-2.6,0-5.01,.78-7.04,2.09l-1.08-.94h0c-44.72-41.08-103.61-67.04-168.37-69.81h-.07s-1.4,0-1.4,0c-1.42-5.7-6.53-9.95-12.67-9.95-6.24,0-11.44,4.37-12.76,10.22h-1.44c-139.21,8.62-249.37,124.21-249.37,265.63,0,22.89,2.91,45.03,8.32,66.25h0l.38,1.67c-3.54,2.34-5.89,6.35-5.89,10.92,0,7.23,5.86,13.09,13.09,13.09,.17,0,.33-.04,.5-.05l.41,1.34,.03,.09,.04,.11c37.78,100.93,135.1,172.68,249.23,172.68,29.49,0,57.94-4.79,84.47-13.67h0s1.8-.56,1.8-.56c2.4,2.86,5.96,4.71,9.98,4.71,7.23,0,13.09-5.86,13.09-13.09,0-.28-.07-.55-.08-.83l1.49-.62,.05-.02,.06-.03c65.51-30.05,116.65-85.97,140.54-154.65,4.47-.69,7.95-4.39,7.95-9.05,0-5.16-4.18-9.33-9.33-9.33s-9.33,4.17-9.33,9.33c0,3.13,1.64,5.76,4.01,7.45-23.36,66.58-73.07,120.82-136.66,149.99l-.96,.4c-2.35-3.46-6.32-5.74-10.83-5.74-7.23,0-13.09,5.86-13.09,13.09,0,.72,.1,1.41,.21,2.1l-.94,.29-.06,.02h-.02c-25.84,8.67-53.59,13.34-82.36,13.34-111.16,0-205.95-69.88-242.78-168.17l-.38-1.24c3.63-2.33,6.04-6.37,6.04-11.01,0-7.23-5.86-13.09-13.09-13.09-.23,0-.43,.05-.66,.07l-.25-1.09v-.05s-.02-.03-.02-.03c-5.28-20.72-8.12-42.3-8.12-64.64,0-137.76,107.3-250.35,242.87-258.77h1.44c1.69,5.27,6.58,9.11,12.41,9.11,5.93,0,10.89-3.97,12.49-9.38h1.38c63.13,2.71,120.49,28.01,164.07,68.08l.05,.05,1.01,.88c-.91,1.78-1.47,3.77-1.47,5.91,0,7.23,5.86,13.09,13.09,13.09,2.03,0,3.93-.5,5.64-1.33l.95,1.09c26.65,30.19,46.2,66.73,56.47,106.99-1.97,1.71-3.28,4.15-3.28,6.97Zm-151.64,294.61c3.44,0,6.23,2.79,6.23,6.23,0,3.45-2.79,6.23-6.23,6.24-3.44,0-6.23-2.79-6.24-6.24,0-3.44,2.79-6.23,6.24-6.23Zm-340.22-158.43c0,3.44-2.79,6.23-6.23,6.24-3.45,0-6.23-2.79-6.24-6.24,0-3.44,2.79-6.23,6.24-6.24,3.44,0,6.23,2.79,6.23,6.24ZM497.24,248.35c-3.44,0-6.23-2.8-6.24-6.24,0-3.44,2.79-6.23,6.24-6.24,3.44,0,6.23,2.79,6.24,6.24,0,3.44-2.8,6.23-6.24,6.24Zm184.4,72.38c0-3.44,2.8-6.23,6.24-6.24,3.44,0,6.23,2.8,6.24,6.24,0,3.44-2.8,6.23-6.24,6.24-3.44,0-6.23-2.8-6.24-6.24Z"/>
    <g>
      <path class="cls-1" d="M548.19,741.5v-43.77c86.43-21.62,150.45-99.75,150.45-192.88,0-93.13-64.03-171.27-150.45-192.88v-43.78h-27.43v38.93c-6.89-.72-13.88-1.11-20.96-1.11s-14.1,.39-21,1.11v-38.94h-27.43v43.79c-86.41,21.63-150.41,99.76-150.42,192.88,0,93.12,64.01,171.25,150.42,192.88v43.78h27.43v-38.92c6.9,.72,13.91,1.11,21,1.11,7.08,0,14.07-.39,20.96-1.11v38.92h27.43Zm-48.39-65.24c-47.38,0-90.15-19.17-121.21-50.21-31.04-31.06-50.2-73.83-50.21-121.21,0-47.38,19.17-90.15,50.21-121.21,31.06-31.04,73.83-50.2,121.21-50.21,47.38,0,90.15,19.17,121.21,50.21,31.04,31.06,50.2,73.83,50.21,121.21,0,47.38-19.17,90.15-50.21,121.21-31.06,31.04-73.83,50.2-121.21,50.21Z"/>
      <path class="cls-1" d="M369.91,496.4c.09,.69,.21,1.11,.22,1.15l.2,.63,.66-.03s2.05-.1,4.73-.84c2.66-.73,6.12-2.06,8.92-4.52h.01s.71-.67,.71-.67h.01s.72-.74,.72-.74l.02-.02,1.34-1.52,.02-.03,1.18-1.63h.01s1.06-1.64,1.06-1.64c.61-.95,1.14-1.88,1.59-2.74h0s.62-1.23,.62-1.23l.55-1.05c.69-1.35,1.04-2.24,1.05-2.26l.55-1.39-1.48,.23s-2.12,.33-5.07,1.13c-.71,.19-1.53,.41-2.34,.69-.78,.26-1.62,.56-2.45,.88-1.67,.65-3.38,1.42-4.98,2.32-1.27,.7-2.34,1.49-3.3,2.31-1.5,1.29-2.58,2.71-3.29,4.12v.02c-.68,1.4-1.03,2.75-1.2,3.91-.09,.69-.14,1.31-.14,1.87l.07,1.03v.02s0,.01,0,.01h0Z"/>
      <path class="cls-1" d="M468.06,628.12l-1.16-.25c-.8-.19-1.57-.34-2.3-.54-.78-.21-1.57-.43-2.38-.65l-1.68-.49c1.14,.22,2.12,.32,2.59,.32h.36s.7-.05,.7-.05l.1-.7s.12-.88,.12-2.23c0-.7-.03-1.53-.12-2.45-.14-1.34-.39-2.87-.88-4.45v-.03s-.4-1.13-.4-1.13v-.02s-.47-1.19-.47-1.19v-.02s-.01-.01-.01-.01c-.35-.8-.76-1.61-1.27-2.41h0c-1.01-1.6-2.3-2.95-3.6-4.25-.67-.67-1.37-1.27-2.06-1.82l-1-.79-.94-.76h-.01c-1.26-.99-2.41-1.76-3.25-2.3-.84-.58-1.36-.89-1.37-.9l-1.27-.77-.03,1.48v.12c0,.25,0,.91,.04,1.86,.03,1.25,.16,2.9,.42,4.79,.27,1.89,.69,4.01,1.29,6.08,.63,2.04,1.47,4.01,2.51,5.69h0s.78,1.15,.78,1.15l.02,.03,.44,.54v.02s.45,.48,.45,.48l.04,.04,1.84,1.54,.05,.04,1.88,1.11,.06,.03,.89,.36-.97-.28h-.02s-.01-.01-.01-.01c-6.38-1.91-12.51-4.56-17.04-6.67-1.11-.56-2.16-1.07-3.06-1.51l-1.26-.63-1.05-.57c-1.27-.71-1.99-1.11-1.99-1.11-.01,0-.73-.4-2.01-1.1-.61-.35-1.34-.8-2.18-1.32,.71,.39,1.37,.7,1.86,.88h.03s.78,.25,.78,.25h.03s.33,.08,.33,.08l.68,.15,.28-.64s.21-.49,.47-1.28c.25-.78,.56-1.88,.82-3.22,.24-1.29,.42-2.79,.42-4.39,0-1.69-.2-3.51-.75-5.32h0s0-.02,0-.02h0c-.5-1.8-1.33-3.5-2.29-5.05h0s0-.02,0-.02h0c-.92-1.57-1.94-3.06-2.94-4.31l-1.33-1.7h0s-1.12-1.35-1.12-1.35h-.01c-.66-.77-1.1-1.2-1.11-1.21l-1.01-.98-.41,1.35s-.22,.72-.5,1.9c-.28,1.18-.63,2.83-.91,4.72-.14,.95-.28,1.98-.35,3.03-.05,.84-.08,1.7-.08,2.57v.59c.02,1.05,.08,2.13,.21,3.17,.14,1.02,.31,2.04,.61,2.99h0s0,.01,0,.01c.57,1.85,1.44,3.38,2.42,4.6l.03,.04,1.48,1.52,.05,.05,1.13,.82c-.56-.35-1.09-.68-1.72-1.07-4.15-2.74-9.58-6.55-14.52-10.88-3.92-3.41-7.56-7.06-10.52-10.27,.71,.78,1.4,1.42,2,1.82h0s.95,.57,.95,.57l.62,.37,.47-.56s1.3-1.54,2.53-3.95c1.23-2.4,2.48-5.71,2.49-9.32v-.32c0-1.28-.15-2.58-.4-3.84-.13-.67-.31-1.32-.49-1.96l-.53-1.84c-.33-1.08-.7-2.08-1.07-2.98l-.27-.64-.24-.62-.45-1.11v-.02c-.6-1.39-1.06-2.24-1.07-2.25l-.68-1.26-.79,1.19s-1.16,1.75-2.49,4.38c-.34,.65-.69,1.36-1.03,2.13l-.51,1.16v.02s-.48,1.18-.48,1.18v.03s0,0,0,0c-.6,1.62-1.14,3.37-1.5,5.12-.15,.67-.26,1.34-.35,1.99-.09,.69-.11,1.33-.11,1.94,0,1.95,.4,3.66,.97,5.11h0s0,.03,0,.03c.57,1.32,1.32,2.36,2.04,3.22-.65-.71-1.31-1.43-1.88-2.09l-1.13-1.34-1-1.23c-.64-.77-1.19-1.45-1.65-2.02h0s-.98-1.3-.98-1.3l-.35-.47s-.48-.65-1.34-1.82c-.44-.6-.97-1.27-1.51-2.07-.55-.83-1.18-1.77-1.86-2.79l-1.06-1.59-1.06-1.73c-.72-1.2-1.47-2.47-2.25-3.78-.71-1.36-1.46-2.75-2.21-4.16l-.57-1.05-.51-1.08-.13-.28,.67,1.27,.03,.05,.74,1.01,.03,.04,.76,.81,.49,.53,.61-.4s1.7-1.13,3.58-3.11v-.02s1.4-1.59,1.4-1.59l.02-.02c.51-.62,.98-1.28,1.44-1.97,.92-1.41,1.74-3,2.27-4.76v-.02s.33-1.29,.33-1.29v-.02s.28-1.34,.28-1.34v-.02s0-.02,0-.02c.14-.91,.24-1.84,.27-2.76v-.02c0-.74,.02-1.48,.02-2.21,0-1-.02-1.99-.1-2.9-.06-.77-.14-1.48-.22-2.12-.05-.65-.11-1.22-.18-1.72v-.02s0,0,0,0c-.11-.97-.22-1.55-.23-1.57l-.28-1.43-1.12,.94s-.59,.49-1.49,1.35c-.9,.84-2.13,2.05-3.45,3.52-1.28,1.46-2.61,3.16-3.77,4.98-.59,.9-1.14,1.83-1.62,2.78-.47,.96-.84,1.9-1.12,2.83-.28,.93-.45,1.84-.55,2.68v.02l-.07,1.22v.62s0,.04,0,.04l.06,.59,.85-.09-.85,.11c.19,1.5,.62,2.82,1.1,3.89l-.84-1.79c-2.71-5.88-4.96-11.98-6.24-16.63l-.5-1.68-.41-1.51c-.23-.96-.45-1.8-.59-2.47-.33-1.4-.54-2.2-.54-2.2l-.13-.54c-.07-.32-.16-.89-.3-1.6-.13-.69-.28-1.53-.45-2.5l-.1-.6c.42,2.2,1.22,3.56,1.25,3.63l.35,.58,.65-.21s1.96-.65,4.33-2.08c1.2-.71,2.51-1.62,3.76-2.73,.63-.56,1.23-1.16,1.8-1.82h0s.01-.02,.01-.02h0c.6-.66,1.18-1.37,1.69-2.15,.52-.78,.96-1.61,1.35-2.45,.4-.88,.67-1.73,.99-2.55h0c.63-1.74,1.04-3.47,1.34-4.98h0v-.03s0,0,0,0c.37-1.54,.59-2.89,.73-3.84,.13-.99,.17-1.58,.17-1.6l.09-1.45-1.32,.63s-.69,.33-1.78,.91c-1.1,.59-2.59,1.44-4.24,2.51-1.64,1.07-3.48,2.38-5.08,3.84-1.59,1.44-3.08,3.02-4.18,4.67h0s0,.02,0,.02h0c-.6,.85-.96,1.69-1.28,2.45v.02s-.01,0-.01,0c-.3,.8-.51,1.6-.65,2.36-.14,.75-.21,1.47-.22,2.16h0v.23s.15,1.53,.15,1.53c-.14-.72-.29-1.43-.37-2.22v-.02c-.16-1.21-.34-2.51-.52-3.89l-.14-1.03-.1-1.07c-.05-.73-.12-1.48-.17-2.22v-.03c-.31-2.96-.31-6.18-.41-9.44,.1-3.25,.1-6.47,.41-9.44v-.03c.06-.74,.13-1.48,.18-2.21l.1-1.06,.14-1.04c.18-1.38,.35-2.69,.51-3.89v-.02h0c.12-1.16,.36-2.22,.55-3.22,.17-.97,.33-1.82,.46-2.51,.13-.7,.23-1.26,.3-1.59l.14-.56s.2-.79,.53-2.18c.15-.68,.37-1.52,.6-2.49l.4-1.49,.5-1.68v-.02c1.1-3.98,2.93-9.03,5.13-14.09-.27,.76-.46,1.46-.55,1.95-.14,.7-.14,1.13-.14,1.18v.69s.66,.15,.66,.15c.04,.01,2,.47,4.79,.48h.25c1.34,0,2.83-.1,4.41-.38,1.7-.27,3.47-.75,5.2-1.53,.86-.39,1.66-.86,2.44-1.38h0s.01,0,.01,0h.01s0-.01,0-.01c.81-.49,1.6-1.04,2.32-1.61,.75-.59,1.42-1.19,2.06-1.78,.63-.57,1.28-1.14,1.85-1.72h.01s1.51-1.58,1.51-1.58l.02-.02,.63-.7,.53-.57c.69-.74,1.07-1.21,1.08-1.22l.97-1.21-1.53-.18s-.78-.09-2.05-.17c-.92-.06-2.15-.12-3.52-.12l-1.49,.03c-1.96,.06-4.17,.24-6.36,.6h-.02s-1.61,.3-1.61,.3h-.03s-1.54,.42-1.54,.42h-.02c-1.03,.3-2.02,.66-2.93,1.08-.9,.4-1.71,.87-2.44,1.39h0s0,0,0,0h-.01c-.77,.54-1.36,1.12-1.88,1.66v.02c-.94,1.01-1.59,2.04-2.1,3l.58-1.32c.35-.73,.7-1.48,1.04-2.21l.5-1.07,.57-1.06c.75-1.42,1.5-2.81,2.21-4.16,.78-1.31,1.53-2.58,2.25-3.79l1.05-1.73,1.06-1.59c.68-1.02,1.31-1.97,1.86-2.8,.54-.79,1.07-1.47,1.51-2.07,.85-1.15,1.34-1.81,1.34-1.81l.35-.48,.99-1.3c.46-.56,1.01-1.24,1.64-2.01l.36-.44c-1.36,1.71-1.86,3.13-1.88,3.19l-.23,.69,.64,.34s1.8,.96,4.51,1.72c1.35,.37,2.92,.7,4.62,.86,.64,.06,1.28,.09,1.93,.09,1.12,0,2.26-.09,3.45-.26,.98-.15,1.91-.39,2.82-.68h.02s.01-.01,.01-.01l1.3-.47h.02s.63-.26,.63-.26l.65-.26c1.76-.71,3.35-1.57,4.73-2.37h0s.03-.01,.03-.01h0c1.43-.76,2.6-1.51,3.43-2.04h.02s.95-.68,.95-.68l.34-.21,1.43-.91-2.08-.8h-.01s-1.39-.49-1.39-.49h-.02c-1.17-.39-2.84-.89-4.77-1.35-.97-.23-2-.45-3.07-.64l-1.6-.26h-.03s-1.62-.17-1.62-.17c-.96-.08-1.9-.12-2.83-.12-1.24,0-2.45,.08-3.6,.26-2,.34-3.65,1.05-5,1.84-.68,.4-1.31,.84-1.84,1.31l-.03,.03-1.19,1.25,.31-.39,1.14-1.34c3.21-3.69,7.79-8.44,12.76-12.77,3.75-3.29,7.78-6.28,11.32-8.73-.65,.5-1.21,.98-1.58,1.36h-.01s-.53,.6-.53,.6l-.03,.03-.19,.27-.42,.6,.52,.51s.38,.36,1.03,.89c.66,.53,1.62,1.24,2.81,1.95,1.19,.73,2.6,1.47,4.19,2.08,.8,.29,1.64,.58,2.52,.79,.88,.22,1.77,.37,2.7,.49,.71,.09,1.41,.12,2.11,.12,2.12,0,4.21-.33,6.15-.65h.03c1.12-.22,2.16-.49,3.12-.73h.01s.01,0,.01,0h0c.96-.22,1.85-.45,2.58-.66,1.48-.43,2.4-.8,2.42-.8l1.42-.56-1.22-.92s-1.69-1.28-4.26-2.83c-1.28-.77-2.78-1.62-4.44-2.4-1.63-.77-3.36-1.45-5.11-1.98-1.35-.4-2.7-.72-4.01-.86l-1.46-.07c-3.17,0-5.68,.96-7.45,2.14,.78-.53,1.57-1.07,2.28-1.54,2.13-1.3,3.89-2.42,5.12-3.13,1.28-.7,2.01-1.11,2.01-1.11,0,0,.72-.4,2-1.11l1.04-.57,1.26-.62,.77-.38c.5,.04,1.07,.07,1.75,.07l1.5-.04c2.8-.13,6.43-.7,9.7-2.48h0s.01,0,.01,0h0c1.68-.87,3.25-2.04,4.61-3.28h0c.64-.62,1.31-1.23,1.95-1.85h.01s1.71-1.83,1.71-1.83l.02-.02,.02-.02c.98-1.18,1.9-2.19,2.53-3,.61-.78,.95-1.27,.96-1.28l.9-1.28-1.56-.07s-.76-.03-2.02-.04h-.39c-1.22,0-2.83,.04-4.62,.18l-1.53,.14h-.02s-1.56,.22-1.56,.22c-1.07,.16-2.15,.37-3.22,.62-2.12,.51-4.29,1.15-6.04,2.13h0s0,0,0,0c-1.74,.94-3.09,2.1-4.13,3.28l-.02,.02h0c-1,1.22-1.62,2.48-2.07,3.56v.02c-.4,1.05-.61,1.95-.7,2.67l-1.26,.63h-.03s-1.08,.61-1.08,.61c-1.29,.71-2.03,1.12-2.03,1.12,0,0-.74,.4-2.04,1.12h-.02c-1.2,.71-2.85,1.75-4.8,2.96,1.16-1.31,2.29-2.93,3.13-5.08,.5-1.23,.96-2.58,1.35-4.03,.49-1.78,.89-3.68,1.24-5.51,.37-1.77,.69-3.52,.94-5.06,.25-1.53,.45-2.85,.59-3.78l.15-1.1,.04-.29v-.08s.01-.02,.01-.02h0v-.02h0s0-.1,0-.1v-1.52l-1.3,.78s-1.12,.67-2.77,1.82c-.81,.56-1.77,1.26-2.78,2.05l-.03,.02c-.98,.83-2.03,1.75-3.06,2.75-.64,.62-1.25,1.25-1.85,1.9l-.45,.49-.03,.03-.42,.52-.02,.02-.79,1.04h-.01c-1.05,1.44-1.94,2.94-2.57,4.44-.43,1-.69,2.03-.87,2.97v.02c-.17,.95-.26,1.88-.27,2.78v.35c0,1.64,.24,3.11,.57,4.37,.34,1.35,.77,2.43,1.12,3.2v.02c.36,.75,.61,1.18,.62,1.19l.37,.64,.13-.05c-2.74,2-5.62,4.23-8.38,6.65-4.77,4.16-9.12,8.64-12.38,12.31l.27-.53c.64-1.47,1.1-3.22,1.29-5.25,.11-.95,.15-1.98,.15-3.03,0-1.12-.05-2.28-.13-3.45-.17-2.27-.37-4.49-.61-6.54-.25-2.04-.51-3.84-.69-5.14-.21-1.29-.33-2.08-.33-2.08l-.26-1.73-1.6,1.68-.02,.02-1.03,1.23c-.86,1.05-2.04,2.53-3.24,4.26l-.02,.03c-1.15,1.79-2.32,3.84-3.28,5.95h0c-.92,2.18-1.57,4.44-1.8,6.55v.02l-.08,1.5v.05s.08,1.47,.08,1.47v.02s0,.03,0,.03c.11,.98,.3,1.89,.54,2.74l.82-.23-.82,.24c.49,1.71,1.2,3.18,1.92,4.39,1.44,2.38,2.9,3.73,2.94,3.77l.49,.45,.23-.15-.4,.52-.36,.48s-.5,.68-1.36,1.84h0c-.41,.58-.97,1.29-1.55,2.15-.57,.85-1.2,1.8-1.88,2.83l-1.08,1.61-1.1,1.81c-.72,1.22-1.5,2.51-2.29,3.86v.02s-.02,.02-.02,.02c-.73,1.36-1.48,2.78-2.24,4.22l-.58,1.08h0s-.53,1.15-.53,1.15l-.54,1.16,.24-.92c.09-.81,.09-1.66,.09-2.5,0-.91-.1-1.86-.27-2.85-.18-1.01-.45-2.04-.76-3.09l-.51-1.59-.53-1.58c-.74-2.14-1.61-4.26-2.42-6.17-.42-.94-.79-1.83-1.15-2.65-.35-.8-.67-1.51-.93-2.11-.53-1.21-.86-1.92-.86-1.93l-.72-1.54-.81,1.5s-.4,.74-.98,1.96h0c-.33,.65-.62,1.4-.93,2.2-.33,.85-.67,1.79-.99,2.79l-.48,1.53v.02s-.43,1.62-.43,1.62v.02s0,.02,0,.02c-.24,1.11-.45,2.27-.61,3.41-.15,1.15-.25,2.31-.25,3.44,.02,1.16,.12,2.28,.33,3.34,.41,2.11,1.18,3.92,2.11,5.45h0c.96,1.54,2.06,2.77,3.09,3.75,2.06,1.94,3.87,2.85,3.92,2.88l.66,.33,.06-.09c-1.58,3.94-2.91,7.74-3.78,10.92l-.5,1.7-.44,1.54v.02s-.01,.02-.01,.02c-.23,.97-.44,1.82-.6,2.53-.34,1.38-.53,2.18-.53,2.18l-.13,.58c-.11,.42-.19,.98-.33,1.67-.12,.7-.29,1.57-.47,2.55-.15,.87-.36,1.92-.52,3.06l-.08-.8h0v-.02c-.27-1.55-.76-3.27-1.73-5.09v-.03s-1.05-1.78-1.05-1.78v-.02s-.6-.92-.6-.92l-.59-.91h-.01c-1.04-1.55-2.2-3.1-3.38-4.58-1.16-1.47-2.33-2.88-3.31-4.06-2-2.41-3.51-4.09-3.52-4.1l-1.16-1.28-.33,1.69s-.24,1.25-.48,3.19c-.15,1.03-.2,2.18-.24,3.41l-.02,1.61c0,.77,.01,1.58,.05,2.39h0v.02c.02,.89,.14,1.78,.26,2.64l.85-.12-.85,.13c.13,.86,.28,1.73,.48,2.59,.41,1.7,.89,3.35,1.72,4.84,1.02,1.9,2.3,3.44,3.64,4.64,1.34,1.21,2.72,2.09,4.01,2.74,2.57,1.3,4.56,1.69,4.61,1.7l.67,.13,.12-.27-.07,.94c-.32,3.11-.32,6.4-.43,9.66v.05c.11,3.26,.11,6.54,.43,9.67,.06,.76,.12,1.51,.17,2.25v.02l.1,1.08v.02s.14,1.08,.14,1.08c.14,1.06,.27,2.04,.39,3l-.27-.67c-.35-.72-.8-1.47-1.33-2.21h0s-.84-1.09-.84-1.09l-.02-.02-.49-.55-.48-.54h-.01c-2.76-2.98-7.07-5.92-10.44-8.3-1.73-1.19-3.29-2.21-4.42-2.95-1.15-.73-1.86-1.16-1.86-1.16l-1.5-.9,.21,1.73s.1,.82,.33,2.14c.23,1.32,.57,3.14,1.1,5.16v.02s.01,0,.01,0c.61,2.02,1.4,4.24,2.4,6.34v.02s.82,1.52,.82,1.52l.02,.03,.92,1.45v.02s.01,0,.01,0c.64,.95,1.34,1.85,2.1,2.64,.75,.77,1.51,1.45,2.36,2.04h0s0,0,0,0c.82,.58,1.65,1.05,2.47,1.45,1.66,.8,3.26,1.27,4.66,1.56,1.8,.36,3.28,.43,4.12,.43l.76-.02,.69-.05,.04-.3,.14,.73,.13,.56s.19,.81,.54,2.2c.16,.71,.37,1.56,.6,2.52v.02s.45,1.55,.45,1.55l.5,1.71c1.22,4.47,3.32,10.15,5.84,15.77l-.55-.67-.83-.85-.02-.02-.95-.86h-.01s-.01-.02-.01-.02c-.7-.59-1.5-1.15-2.39-1.68-.89-.53-1.87-1.03-2.91-1.5h-.01s-.01-.01-.01-.01c-.99-.49-2.04-.95-3.1-1.39-2.14-.89-4.39-1.69-6.41-2.38-1.98-.7-3.73-1.3-5.02-1.72-1.28-.42-2.07-.65-2.08-.65l-1.68-.5,.63,1.63s.31,.78,.87,2c.27,.6,.62,1.35,1.06,2.16,.45,.8,.95,1.66,1.5,2.56,.56,.91,1.18,1.84,1.83,2.78h.01s.51,.7,.51,.7v.02s.57,.69,.57,.69h.01s1.15,1.33,1.15,1.33h.01c.8,.89,1.64,1.73,2.5,2.48h.01s1.29,1.06,1.29,1.06l.04,.03,1.4,.89h.02s.01,.02,.01,.02c1.92,1.11,3.83,1.76,5.62,2.11,.9,.18,1.77,.27,2.58,.32l.05-.86-.04,.86,.99,.02,1.36-.05c2.88-.19,4.78-.87,4.83-.88l.69-.25-.04-.21c.51,.95,1.02,1.92,1.51,2.84h0s.01,.04,.01,.04c.79,1.33,1.56,2.63,2.28,3.84l1.09,1.79v.02s1.1,1.63,1.1,1.63c.68,1.03,1.31,1.98,1.88,2.83,.59,.87,1.15,1.58,1.55,2.14,.87,1.17,1.36,1.84,1.36,1.84l.36,.49,1.04,1.35h0s.01,.02,.01,.02c.46,.56,1.02,1.25,1.66,2.04l1.02,1.25,.81,.96-.5-.35h0s0,0,0,0c-1.37-.87-3.04-1.63-5.08-2.16-.68-.18-1.4-.33-2.1-.47-.73-.15-1.46-.27-2.22-.39-3.76-.57-7.97-.77-11.12-.97-3.22-.18-5.51-.21-5.52-.21l-1.82-.03,1.14,1.42s.8,1,2.14,2.45h.01c1.34,1.54,3.35,3.35,5.58,5.12h.01s1.03,.8,1.03,.8l.02,.02,.54,.39h.02s.57,.38,.57,.38c.77,.49,1.55,.96,2.34,1.39,.78,.43,1.58,.82,2.39,1.16h.01s0,0,0,0h0c.79,.34,1.59,.65,2.45,.85,1.56,.39,3.07,.55,4.47,.55,2.45,0,4.6-.49,6.32-1.09,2.72-.96,4.36-2.13,4.4-2.16l.65-.47h0c2.35,2.39,4.95,4.89,7.7,7.28,4.72,4.13,9.8,7.75,13.89,10.49l-.5-.17h-.02c-1.47-.44-3.18-.71-5.14-.71h-.39c-1.04,.03-2.11,.08-3.24,.19-1.12,.11-2.28,.27-3.43,.47-1.16,.18-2.33,.4-3.45,.62-1.11,.22-2.2,.45-3.23,.65-2.08,.45-3.92,.86-5.24,1.19-1.33,.32-2.13,.54-2.14,.54l-1.78,.49,1.52,1.05s.69,.48,1.86,1.21h0c.58,.37,1.28,.79,2.07,1.25l1.25,.7h.02s1.41,.71,1.41,.71h.02c.98,.47,2.02,.92,3.09,1.37h.02s1.63,.62,1.63,.62l.84,.3h.02s.88,.26,.88,.26c2.31,.63,4.66,1.06,6.85,1.06h.07c4.48-.13,7.93-1.81,10.24-3.42,1.16-.79,2.07-1.62,2.67-2.22l.9-.98,.58-.63h-.02s.92,.49,.92,.49c.02,0,.75,.42,2.03,1.12l1.07,.59h.02s1.31,.65,1.31,.65c.92,.46,1.96,.97,3.11,1.53h.02c4.22,1.98,9.85,4.39,15.8,6.29l-.53-.04h-.2c-.77,0-1.58,.05-2.42,.17h-.01s-.7,.12-.7,.12l-.67,.11h-.03s-1.44,.33-1.44,.33h-.02s-.01,.01-.01,.01c-2,.54-4.15,1.41-6.29,2.39h0s-.01,0-.01,0c-2.1,.92-4.19,1.95-6.07,2.92-1.88,.97-3.56,1.89-4.71,2.5-1.19,.63-1.9,1.04-1.91,1.04l-1.6,.91,2.27,.85h.02s.01,.01,.01,.01c.31,.1,.86,.32,1.57,.52,1.32,.37,3.19,.87,5.31,1.3l1.63,.3h.03s1.73,.22,1.73,.22c1.19,.12,2.39,.22,3.6,.25l.93,.02c2.11,0,4.2-.29,6.04-.8,4.27-1.17,7.16-3.79,8.94-5.95,1.78-2.17,2.55-3.99,2.57-4.04l.27-.66-.08-.05,.73,.2c.83,.23,1.64,.38,2.39,.56l.34,.07c.11,.03,1.1,.29,2.7,.92,5.09,2,15.55,7.5,18.42,19.35l1.9,7.79-.73-28.05-20.78-2.73Z"/>
      <path class="cls-1" d="M621.57,594l.54-.4,1.05-.79h.01c2.23-1.78,4.24-3.6,5.58-5.12h.01c1.34-1.47,2.13-2.45,2.14-2.46l1.15-1.42-1.83,.03s-2.31,.04-5.52,.21c-3.15,.2-7.37,.41-11.13,.97-.75,.12-1.5,.24-2.23,.39-.7,.14-1.42,.29-2.11,.48-2.03,.53-3.7,1.29-5.07,2.16h-.01s0,0,0,0l-.51,.36,.81-.96,1.03-1.25c.64-.8,1.2-1.48,1.66-2.05v-.02s1.04-1.34,1.04-1.34l.36-.49s.5-.68,1.36-1.84h.01c.4-.58,.96-1.28,1.56-2.15,.56-.85,1.19-1.8,1.88-2.83l1.08-1.62,1.1-1.8c.74-1.22,1.5-2.52,2.29-3.85v-.02s.02-.02,.02-.02c.5-.94,1.03-1.94,1.56-2.92l-.05,.3,.66,.24c.05,.02,1.95,.7,4.83,.88l1.35,.05,1-.02-.04-.86,.05,.86c.8-.05,1.67-.14,2.57-.32,1.79-.35,3.71-1,5.62-2.11l.03-.02,1.36-.86,.04-.03,1.32-1.07,.02-.02c.87-.76,1.7-1.59,2.51-2.47l1.14-1.32v-.02s.57-.67,.57-.67l.02-.02,.51-.7c.67-.94,1.29-1.88,1.85-2.79,.56-.89,1.06-1.75,1.5-2.55,.46-.81,.79-1.57,1.06-2.15,.57-1.23,.87-2,.87-2.01l.64-1.63-1.68,.5s-.81,.24-2.09,.66c-1.29,.42-3.04,1.01-5.03,1.72-2.02,.68-4.26,1.49-6.4,2.37-1.07,.45-2.12,.9-3.11,1.39h0s-.01,.01-.01,.01c-1.03,.47-2,.97-2.89,1.49-.9,.54-1.69,1.1-2.39,1.69l-.03,.02-.93,.85h-.01s-.86,.88-.86,.88h-.01s-.53,.66-.53,.66c2.52-5.62,4.61-11.3,5.84-15.77l.49-1.69,.43-1.54v-.04s.01,0,.01,0c.23-.97,.43-1.82,.6-2.52,.33-1.4,.53-2.2,.53-2.2l.14-.57,.14-.74,.05,.31,.68,.05,.76,.02c.84,0,2.31-.07,4.11-.43,1.4-.29,3.01-.76,4.66-1.56,.82-.4,1.66-.87,2.49-1.45h0s0,0,0,0c.85-.58,1.61-1.27,2.36-2.04,.75-.78,1.45-1.68,2.09-2.64l.91-1.44,.02-.03,.81-1.54v-.02s.02-.01,.02-.01c1-2.1,1.79-4.32,2.4-6.34v-.03c.54-2.02,.89-3.84,1.12-5.16,.22-1.32,.32-2.13,.32-2.14l.21-1.74-1.5,.9s-.71,.43-1.86,1.16c-1.13,.74-2.69,1.76-4.42,2.95-3.37,2.39-7.69,5.32-10.45,8.3l-.49,.55-.48,.54-.02,.02-.84,1.08-.02,.02c-.55,.75-.97,1.5-1.33,2.21l-.26,.65c.12-.96,.25-1.93,.4-2.98l.13-1.08,.1-1.12c.05-.76,.11-1.5,.17-2.26,.32-3.11,.32-6.4,.42-9.67v-.05c-.11-3.26-.11-6.56-.43-9.67l-.07-.9,.11,.25,.68-.13c.06,0,2.04-.39,4.61-1.7,1.3-.65,2.67-1.54,4.01-2.74,1.33-1.2,2.61-2.73,3.65-4.64h0s0,0,0,0h0c.84-1.5,1.32-3.14,1.72-4.82,.2-.86,.35-1.73,.48-2.6h0c.13-.88,.24-1.78,.27-2.66,.03-.78,.04-1.55,.04-2.29l-.02-1.72c-.05-1.24-.08-2.38-.24-3.41h0c-.24-1.93-.48-3.17-.49-3.19l-.33-1.69-1.15,1.28s-1.5,1.68-3.5,4.1c-.97,1.18-2.16,2.59-3.32,4.07-1.17,1.47-2.34,3.02-3.38,4.56l-.6,.92-.59,.9-.02,.03-1.03,1.79v.02s-.01,0-.01,0c-.96,1.82-1.46,3.54-1.73,5.09h0s0,.02,0,.02l-.08,.79c-.15-1.13-.37-2.19-.52-3.04-.18-.99-.35-1.86-.48-2.56-.12-.7-.21-1.25-.31-1.68l-.14-.57s-.19-.8-.52-2.19c-.17-.7-.37-1.55-.61-2.52v-.02s-.44-1.55-.44-1.55l-.5-1.71c-.88-3.17-2.2-6.98-3.79-10.93l.07,.09,.66-.33c.05-.02,1.85-.93,3.91-2.87,1.04-.97,2.14-2.21,3.1-3.73h0c.93-1.54,1.69-3.35,2.12-5.45,.19-1.07,.3-2.18,.33-3.33h0v-.03c-.01-1.12-.11-2.28-.26-3.43-.15-1.15-.36-2.31-.61-3.42v-.02s-.44-1.61-.44-1.61v-.02s-.48-1.53-.48-1.53c-.33-1.01-.67-1.94-.99-2.79-.33-.83-.61-1.59-.93-2.23-.58-1.21-.97-1.93-.97-1.94l-.8-1.49-.72,1.53s-.35,.73-.88,1.94c-.26,.59-.58,1.31-.92,2.1-.36,.81-.74,1.71-1.15,2.64-.81,1.91-1.67,4.04-2.41,6.17l-.54,1.57-.51,1.58v.03c-.32,1.05-.58,2.08-.76,3.08-.19,.98-.27,1.93-.27,2.83h0v.65c0,.64,.01,1.27,.09,1.87l.24,.91-.54-1.15-.53-1.11h0s-.59-1.12-.59-1.12c-.77-1.44-1.52-2.86-2.25-4.22h0s-.01-.03-.01-.03c-.79-1.34-1.56-2.64-2.29-3.85l-1.08-1.78v-.02s-1.09-1.63-1.09-1.63c-.69-1.03-1.31-1.98-1.87-2.82h-.01c-.59-.87-1.15-1.58-1.55-2.15h-.01s0-.02,0-.02c-.87-1.16-1.36-1.83-1.36-1.83l-.36-.48-.39-.52,.21,.14,.49-.44s1.52-1.39,2.96-3.77c.73-1.2,1.43-2.68,1.91-4.39h0c.25-.86,.43-1.78,.54-2.75v-.02s.09-1.45,.09-1.45v-.04s-.07-1.53-.07-1.53v-.02s0-.02,0-.02c-.22-2.12-.87-4.37-1.79-6.54v-.02c-.97-2.11-2.14-4.16-3.3-5.95h0s0-.02,0-.02c-1.2-1.73-2.35-3.2-3.23-4.26l-1.03-1.21-.02-.02-.42-.44-1.19-1.25-.28,1.7s-.13,.79-.33,2.07c-.19,1.31-.46,3.11-.69,5.15-.25,2.05-.44,4.27-.62,6.53-.08,1.17-.13,2.32-.13,3.43,0,1.06,.05,2.08,.15,3.05h0s0,.02,0,.02c.18,2.01,.64,3.76,1.29,5.24l.27,.53c-3.26-3.68-7.62-8.17-12.39-12.33-2.75-2.41-5.63-4.64-8.37-6.64l.11,.04,.37-.63s.27-.46,.62-1.22c.35-.77,.78-1.86,1.13-3.2,.32-1.26,.57-2.74,.57-4.39v-.33c-.02-.89-.1-1.82-.28-2.78-.19-.95-.44-1.98-.88-2.99-.62-1.49-1.52-2.99-2.56-4.42h-.01s-.79-1.06-.79-1.06h-.01s-.42-.53-.42-.53l-.02-.02-.46-.5c-.59-.65-1.22-1.28-1.84-1.9-1.03-1-2.07-1.93-3.07-2.76l-.02-.02h0c-1.01-.79-1.96-1.48-2.79-2.05-1.63-1.15-2.74-1.82-2.76-1.82l-1.3-.78v1.6c.01,.07,.28,2.24,.79,5.3,.26,1.54,.58,3.28,.94,5.07,.35,1.82,.75,3.71,1.24,5.5,.39,1.44,.85,2.8,1.36,4.03,.84,2.14,1.96,3.76,3.12,5.06-1.94-1.2-3.6-2.24-4.8-2.94h-.01c-1.3-.72-2.04-1.13-2.04-1.13,.01,0-.73-.41-2.02-1.12l-1.08-.59h-.02s-1.26-.63-1.26-.63c-.1-.72-.3-1.64-.71-2.69-.44-1.09-1.05-2.35-2.07-3.58h-.01c-1.03-1.19-2.39-2.35-4.12-3.29h0s0,0,0,0c-1.75-.98-3.92-1.62-6.04-2.13-1.08-.25-2.16-.46-3.22-.62l-1.54-.22h-.02l-1.54-.15c-1.81-.14-3.41-.19-4.63-.19h-.39c-1.25,.01-2.01,.04-2.01,.04l-1.54,.07,.87,1.27s.35,.51,.97,1.28h0s0,.01,0,.01h0c.63,.81,1.55,1.82,2.51,2.99l.02,.02c.53,.6,1.11,1.23,1.75,1.86,.62,.62,1.31,1.24,1.92,1.83h0s.01,.02,.01,.02c1.37,1.24,2.92,2.4,4.62,3.27h0s.01,0,.01,0h0s0,0,0,0c3.27,1.78,6.9,2.35,9.71,2.48l1.49,.04c.68,0,1.25-.03,1.75-.07l.77,.38,1.25,.61,1.05,.58c1.28,.71,2.02,1.12,2.02,1.12-.01,0,.72,.4,2,1.12,1.22,.7,2.97,1.82,5.1,3.12,.71,.46,1.49,1,2.27,1.53-1.76-1.17-4.28-2.12-7.43-2.13l-1.45,.07c-1.33,.14-2.69,.46-4.02,.86-1.75,.53-3.49,1.21-5.12,1.98-1.65,.79-3.16,1.63-4.44,2.41-2.57,1.54-4.24,2.81-4.26,2.83l-1.21,.92,1.42,.56s.94,.37,2.42,.8c.73,.21,1.61,.44,2.58,.66h.02s.01,.01,.01,.01c.95,.25,1.98,.51,3.1,.73h.02s.01,0,.01,0c1.94,.31,4.03,.65,6.15,.65,.7,0,1.4-.04,2.1-.12,.95-.12,1.84-.27,2.72-.49,.87-.2,1.71-.49,2.5-.78,1.59-.61,3.02-1.35,4.22-2.09,1.18-.71,2.14-1.42,2.79-1.95,.66-.53,1.02-.88,1.04-.89l.53-.52-.59-.83-.03-.04-.55-.61-.02-.02h0c-.42-.43-1.11-1-1.87-1.56,3.62,2.49,7.75,5.54,11.62,8.92,4.97,4.33,9.54,9.08,12.77,12.78l1.12,1.33,.29,.36-1.13-1.18-.03-.03-.03-.02c-.54-.47-1.17-.91-1.84-1.31-1.35-.8-3-1.51-5-1.85-1.16-.19-2.37-.26-3.61-.26-.93,0-1.87,.04-2.81,.12l-1.61,.16h-.02s-1.63,.26-1.63,.26c-1.09,.19-2.11,.41-3.09,.64-1.93,.46-3.59,.96-4.76,1.34h-.02s-1.37,.48-1.37,.48h-.02s-.51,.2-.51,.2l-1.56,.61,1.75,1.14,.93,.65,.02,.02c.82,.54,2,1.29,3.43,2.04h0l.03,.02h0c1.37,.8,2.96,1.66,4.72,2.36l.65,.26,.64,.25h.02s1.29,.48,1.29,.48h.03s0,.01,0,.01c.91,.29,1.85,.53,2.8,.68,1.2,.17,2.35,.26,3.47,.26,.65,0,1.3-.03,1.93-.09,1.7-.16,3.27-.48,4.62-.86,2.71-.75,4.47-1.7,4.51-1.72l.64-.34-.23-.68c-.02-.07-.52-1.44-1.81-3.1l.28,.34c.63,.78,1.18,1.45,1.64,2.01l.99,1.3,.36,.48s.48,.66,1.34,1.82c.44,.6,.97,1.28,1.5,2.07,.55,.83,1.18,1.77,1.86,2.79l1.06,1.59,1.06,1.74c.71,1.2,1.47,2.47,2.26,3.78,.72,1.34,1.45,2.74,2.21,4.16l.56,1.05,.52,1.09c.33,.73,.68,1.48,1.02,2.21l.53,1.21c-.5-.93-1.14-1.93-2.04-2.91h-.01c-.52-.55-1.11-1.14-1.87-1.67-.73-.51-1.55-.98-2.46-1.39-.9-.42-1.89-.77-2.92-1.07h-.02s-1.51-.41-1.51-.41h-.02s-1.65-.32-1.65-.32h-.02c-2.2-.37-4.41-.55-6.37-.61l-1.48-.03c-1.38,0-2.61,.06-3.53,.12-1.27,.08-2.03,.17-2.05,.17l-1.55,.19,.99,1.21s.39,.47,1.07,1.21l.55,.58,.6,.68h0s1.53,1.6,1.53,1.6h0s0,.02,0,.02c.58,.56,1.21,1.13,1.85,1.71h0s0,.01,0,.01c.64,.59,1.31,1.19,2.04,1.77,.73,.57,1.5,1.12,2.32,1.61h0s.01,.01,.01,.01h.01s0,0,0,0c.78,.52,1.59,.98,2.46,1.38,1.71,.78,3.49,1.25,5.2,1.53,1.55,.27,3.05,.37,4.39,.37h.25c2.79-.01,4.75-.47,4.8-.48l.68-.16-.02-.7s-.01-.46-.13-1.15h0s0-.03,0-.03c-.09-.45-.27-1.09-.5-1.77,2.17,5.01,3.99,9.99,5.06,13.93l.51,1.7,.4,1.48c.23,.97,.44,1.8,.59,2.48,.34,1.4,.53,2.18,.53,2.18l.13,.57c.08,.3,.17,.88,.31,1.59,.13,.69,.29,1.53,.46,2.5,.18,1.01,.42,2.07,.54,3.22h0v.03c.12,.9,.26,1.9,.39,2.9-.18-1.14-.52-2.46-1.18-3.84v-.02c-.72-1.41-1.82-2.83-3.3-4.11-.96-.82-2.03-1.61-3.31-2.31h0s-.01,0-.01,0h0c-1.59-.9-3.3-1.67-4.96-2.32-.83-.32-1.66-.62-2.46-.88-.8-.28-1.62-.5-2.33-.69-2.95-.8-5.06-1.13-5.08-1.13l-1.48-.23,.56,1.4s.37,.91,1.06,2.25l.55,1.06,.59,1.21h0s0,.02,0,.02c.45,.86,.98,1.79,1.6,2.74l1.05,1.61v.02s1.17,1.61,1.17,1.61l.02,.03,1.34,1.53,.02,.02,.75,.74h0s.72,.67,.72,.67l.02,.02c2.81,2.46,6.25,3.79,8.94,4.52,2.67,.74,4.67,.84,4.71,.84l.68,.03,.18-.65s.12-.45,.22-1.13h0s0-.02,0-.02h0l.07-1.08c0-.52-.04-1.1-.12-1.72l.11,.81,.14,1.03,.1,1.08c.05,.72,.11,1.47,.18,2.23,.3,2.97,.3,6.2,.41,9.45-.11,3.26-.11,6.48-.41,9.44-.07,.77-.12,1.53-.18,2.26l-.1,1.05-.14,1.03c-.17,1.38-.35,2.68-.52,3.89v.03c-.08,.79-.23,1.49-.37,2.2l.15-1.49v-.25c-.02-.66-.08-1.39-.22-2.15-.15-.76-.36-1.55-.66-2.36v-.02s0,0,0,0c-.31-.77-.68-1.61-1.27-2.46h0s0-.01,0-.01c-1.11-1.64-2.59-3.23-4.19-4.68-1.58-1.45-3.44-2.76-5.07-3.83-1.65-1.08-3.15-1.92-4.25-2.51-1.09-.58-1.77-.9-1.78-.91l-1.34-.63,.12,1.48s.05,.6,.17,1.57c.13,.97,.36,2.32,.73,3.85h0s0,.04,0,.04h0c.29,1.52,.7,3.24,1.33,4.97v.02c.33,.81,.61,1.66,1.01,2.52h0s0,.02,0,.02c.37,.85,.82,1.68,1.34,2.46,.52,.77,1.08,1.48,1.68,2.14h.01s0,.02,0,.02c.57,.67,1.19,1.27,1.8,1.81,1.25,1.12,2.57,2.02,3.76,2.74,2.39,1.43,4.3,2.06,4.34,2.08l.65,.21,.36-.58c.04-.06,.83-1.42,1.25-3.6l-.1,.57c-.17,.98-.33,1.82-.46,2.5-.14,.72-.23,1.29-.3,1.58v.02s-.14,.57-.14,.57c0,0-.18,.79-.53,2.17h0c-.15,.7-.36,1.54-.59,2.49l-.4,1.49h0s-.5,1.68-.5,1.68v.02c-1.27,4.65-3.53,10.75-6.26,16.64-.28,.6-.56,1.21-.84,1.81,.49-1.07,.92-2.4,1.12-3.91v-.02h0s.05-.57,.05-.57v-.02l.02-.6v-.04l-.07-1.22v-.05c-.1-.85-.27-1.76-.55-2.69-.29-.93-.65-1.87-1.11-2.81v-.02c-.5-.95-1.04-1.88-1.63-2.79-1.17-1.81-2.49-3.51-3.76-4.96-1.33-1.48-2.56-2.69-3.47-3.54-.89-.84-1.47-1.33-1.48-1.34l-1.12-.94-.27,1.44s-.11,.6-.23,1.58c-.06,.46-.13,1.04-.18,1.69-.08,.64-.16,1.37-.22,2.16-.08,.94-.1,1.96-.1,3.01,0,.69,0,1.4,.02,2.1v.02h0c.04,.92,.12,1.85,.28,2.77h0s.27,1.34,.27,1.34v.03s.32,1.29,.32,1.29v.02s.01,.02,.01,.02c.53,1.76,1.36,3.35,2.27,4.76,.45,.7,.95,1.36,1.44,1.97v.02s1.4,1.59,1.4,1.59h.01s.01,.03,.01,.03c1.88,1.99,3.54,3.09,3.57,3.11l.61,.4,1.22-1.31,.04-.04,.73-1,.04-.05,.74-1.4h0c-.05,.11-.11,.22-.17,.34l-.53,1.1-.55,1.05c-.76,1.42-1.49,2.81-2.22,4.16-.78,1.31-1.54,2.58-2.26,3.79l-1.05,1.72-1.06,1.59c-.68,1.02-1.31,1.96-1.86,2.8-.53,.79-1.06,1.46-1.51,2.07-.85,1.15-1.34,1.8-1.34,1.81l-.36,.48-.99,1.3c-.46,.56-1.01,1.24-1.64,2l-1.01,1.24-1.13,1.35c-.57,.65-1.23,1.37-1.87,2.08,.72-.85,1.46-1.9,2.04-3.22v-.03s.01,0,.01,0c.58-1.46,.96-3.16,.97-5.11,0-.61-.02-1.26-.12-1.94-.08-.65-.2-1.32-.34-1.99-.37-1.75-.9-3.49-1.52-5.13l-.45-1.18v-.02s-.52-1.16-.52-1.16v-.02c-.36-.75-.7-1.46-1.04-2.12-1.34-2.63-2.49-4.37-2.5-4.38l-.79-1.2-.68,1.26s-.46,.86-1.06,2.25l-.46,1.12-.24,.62-.27,.63v.02c-.37,.89-.73,1.89-1.06,2.96v.02s-.54,1.84-.54,1.84c-.19,.65-.35,1.3-.48,1.97-.28,1.29-.41,2.65-.41,3.95v.18c0,3.63,1.26,6.94,2.5,9.35,1.21,2.41,2.49,3.91,2.52,3.95l.47,.55,1.54-.92h.02s.02-.02,.02-.02c.6-.4,1.29-1.04,2.01-1.82-2.96,3.21-6.6,6.86-10.51,10.27-4.95,4.34-10.38,8.16-14.54,10.89l-1.66,1.02,1.02-.74,.06-.04,1.5-1.54,.02-.03,.03-.03c.99-1.23,1.86-2.76,2.42-4.61h0s0-.01,0-.01h0c.31-.95,.48-1.97,.61-2.98,.12-1.05,.19-2.12,.2-3.19v-.61c0-.85-.03-1.7-.08-2.54-.07-1.05-.2-2.08-.34-3.04-.29-1.89-.63-3.54-.92-4.72-.28-1.17-.49-1.88-.5-1.89l-.4-1.36-1.01,.99s-.45,.44-1.11,1.2h-.01s-1.11,1.34-1.11,1.34l-1.36,1.73c-.99,1.24-2.01,2.72-2.93,4.3h0s0,.01,0,.01h0c-.96,1.56-1.79,3.26-2.3,5.06h0s0,.02,0,.02h0c-.55,1.81-.76,3.63-.76,5.33,0,1.59,.18,3.08,.43,4.38,.25,1.33,.55,2.42,.82,3.22h0s0,.02,0,.02c.25,.77,.45,1.23,.46,1.25l.28,.65,.98-.21h.03s.79-.24,.79-.24h.03s.03-.02,.03-.02c.46-.17,1.08-.47,1.75-.82-.79,.49-1.5,.93-2.07,1.26-1.27,.7-1.99,1.1-1.99,1.1-.01,0-.74,.41-2.02,1.12l-1.04,.57-1.26,.63c-.91,.44-1.95,.95-3.08,1.51-4.53,2.11-10.66,4.76-17.04,6.67h-.04s-.96,.29-.96,.29l.82-.33,.05-.02,1.87-1.11,.06-.03,1.85-1.55,.05-.04,.46-.49,.02-.02,.43-.53,.02-.02,.8-1.15h.01s.01-.04,.01-.04c1.04-1.67,1.87-3.65,2.5-5.66,.62-2.1,1.02-4.21,1.29-6.1,.26-1.89,.4-3.53,.43-4.81,.03-.84,.04-1.46,.04-1.75v-1.7s-1.3,.78-1.3,.78c-.01,0-.54,.33-1.37,.9-.86,.54-2,1.31-3.25,2.28l-.96,.77-.99,.78c-.69,.56-1.39,1.16-2.06,1.82-1.3,1.31-2.6,2.66-3.61,4.27l.73,.46-.73-.45c-.49,.78-.91,1.6-1.27,2.41l-.47,1.2v.02s-.4,1.16-.4,1.16v.02s0,0,0,0c-.48,1.57-.73,3.1-.87,4.44-.1,.95-.13,1.81-.13,2.52,0,1.3,.11,2.12,.11,2.15l.09,.7,.71,.04h.37c.48,.01,1.45-.09,2.6-.31l-1.68,.49c-.8,.22-1.59,.43-2.37,.65-.73,.2-1.51,.34-2.3,.54l-1.15,.25-20.79,2.73-.73,28.03,1.9-7.77c1.93-7.91,7.19-12.97,12.02-16.08,2.41-1.55,4.71-2.61,6.4-3.27,1.59-.62,2.58-.88,2.69-.92l.33-.07h.02c.74-.18,1.55-.33,2.39-.56l.72-.2-.08,.05,.28,.66c.02,.05,.78,1.87,2.57,4.05,1.77,2.16,4.67,4.78,8.94,5.95,1.84,.51,3.93,.8,6.04,.8l.95-.02c1.19-.03,2.39-.12,3.56-.25l1.73-.21h.03s1.64-.31,1.64-.31c2.13-.43,4-.93,5.33-1.31,.7-.19,1.24-.41,1.55-.51h.02s.56-.22,.56-.22l1.7-.64-1.58-.9s-.71-.41-1.89-1.04c-1.16-.61-2.83-1.54-4.72-2.5-1.88-.97-3.99-2-6.08-2.92h0s0,0,0,0c-2.14-.98-4.28-1.84-6.28-2.39h-.01s-1.43-.33-1.43-.33h-.03s-.72-.12-.72-.12l-.65-.11h-.01s-.02,0-.02,0c-.85-.11-1.66-.17-2.44-.17h-.2s-.52,.05-.52,.05c5.96-1.91,11.58-4.32,15.79-6.29h.01c1.14-.57,2.2-1.08,3.12-1.54l1.29-.63h.02s1.09-.61,1.09-.61c1.29-.71,2.03-1.12,2.04-1.13h0s.96-.53,.96-.53l-.06,.05,1.44,1.57,.02,.02h.01c.6,.6,1.49,1.44,2.67,2.23,2.3,1.61,5.76,3.29,10.24,3.42h.08c2.18,0,4.53-.42,6.84-1.05l.86-.24h.03s.85-.31,.85-.31l1.64-.61h.02c1.09-.45,2.13-.91,3.1-1.37h.01s1.4-.69,1.4-.69h.01s1.26-.72,1.26-.72c.81-.46,1.5-.89,2.09-1.25,1.16-.73,1.85-1.2,1.86-1.21l1.54-1.05-1.8-.48s-.82-.22-2.13-.54c-1.33-.32-3.16-.74-5.23-1.18-1.05-.21-2.14-.43-3.24-.66-1.14-.22-2.3-.44-3.47-.62-1.15-.19-2.3-.35-3.42-.46-1.14-.11-2.2-.16-3.24-.19h-.39c-1.97,0-3.68,.27-5.14,.7h-.02s-.52,.19-.52,.19c4.09-2.74,9.17-6.35,13.9-10.49,2.75-2.4,5.34-4.9,7.7-7.3v.02s.64,.47,.64,.47c.05,.03,1.68,1.2,4.4,2.16,1.72,.6,3.87,1.09,6.33,1.09,1.4,0,2.91-.16,4.49-.55,.85-.2,1.66-.51,2.46-.85,.79-.33,1.6-.73,2.39-1.16,.79-.43,1.57-.9,2.33-1.38l.56-.37,.03-.02Z"/>
    </g>
  </g>
  <path class="cls-1" d="M525.11,570.45l-31.09-54.91h-13.32v54.91h-28.26v-140.9h52.89c10.9,0,20.19,1.92,27.86,5.75,7.67,3.84,13.42,9.02,17.26,15.54,3.84,6.53,5.75,13.83,5.75,21.9,0,9.29-2.69,17.66-8.07,25.13-5.38,7.47-13.39,12.62-24.02,15.44l33.71,57.13h-32.7Zm-44.41-76.1h23.62c7.67,0,13.39-1.85,17.16-5.55,3.77-3.7,5.65-8.85,5.65-15.44s-1.89-11.47-5.65-15.04c-3.77-3.56-9.49-5.35-17.16-5.35h-23.62v41.38Z"/>
</svg>