<?xml version="1.0" encoding="UTF-8"?>
<svg id="Layer_1" data-name="Layer 1" xmlns="http://www.w3.org/2000/svg" viewBox="0 0 1000 1000">
  <defs>
    <style>
      .cls-1 {
        fill: #fff;
      }

      .cls-2 {
        fill: #e53223;
      }
    </style>
  </defs>
  <rect x="0" width="1000" height="1000"/>
  <g>
    <g>
      <polyline class="cls-1" points="358.79 399 358.79 601 364.49 601 364.49 399"/>
      <g>
        <g>
          <polygon class="cls-2" points="280.63 482.92 280.63 482.91 280.63 482.91 280.63 482.92"/>
          <polygon class="cls-2" points="273.21 522.07 273.21 522.07 273.21 522.07 273.21 522.07"/>
          <path class="cls-1" d="M217.88,573.46l1.02-3.12h0c-28.92-9.47-49.84-36.68-49.83-68.78,0-17.37,6.1-33.31,16.3-45.78l.02-.03,.37-.5c.37,.1,.74,.18,1.14,.18,2.31,0,4.18-1.87,4.18-4.18,0-.5-.1-.98-.27-1.42l.49-.48h-.01c7.8-7.5,17.29-13.28,27.85-16.69l-1.01-3.12h0c-11.03,3.57-20.96,9.61-29.11,17.46h-.01s-.43,.43-.43,.43c-.51-.22-1.08-.35-1.67-.35-2.31,0-4.18,1.87-4.18,4.18,0,.7,.19,1.34,.49,1.92l-.43,.58h0c-10.64,13.03-17,29.69-17,47.81,0,33.56,21.85,62,52.09,71.9Zm-30.97-124.19c1.1,0,1.99,.89,1.99,1.99,0,1.1-.89,1.99-1.99,1.99-1.1,0-1.99-.89-1.99-1.99,0-1.1,.89-1.99,1.99-1.99Z"/>
          <polygon class="cls-2" points="265.13 573.41 265.13 573.41 265.13 573.41 265.13 573.41"/>
          <path class="cls-1" d="M317.07,503.44c1.51-.63,2.56-2.12,2.57-3.85,0-1.82-1.17-3.35-2.8-3.92l-.05-.69h0s0-.03,0-.03c-2.58-30.08-22.75-55.09-50.18-64.76l-1.09,3.09c26.24,9.25,45.54,33.18,48,61.95l.04,.66c-1.35,.69-2.28,2.08-2.28,3.7,0,1.71,1.03,3.18,2.51,3.82l-.02,.51h0c-.99,31.03-21.53,57.12-49.66,66.37l1.03,3.12c29.41-9.67,50.87-36.94,51.91-69.37h0s.02-.6,.02-.6Zm-1.61-5.84c1.1,0,1.99,.89,1.99,1.99,0,1.1-.89,1.99-1.99,1.99-1.1,0-1.99-.89-1.99-1.99,0-1.1,.89-1.99,1.99-1.99Z"/>
          <polygon class="cls-2" points="265.52 433.28 265.52 433.28 265.52 433.28 265.52 433.28"/>
          <path class="cls-1" d="M320.58,483.26c0,1.64,1.33,2.98,2.98,2.98s2.98-1.33,2.98-2.98-1.26-2.87-2.84-2.95c-3.38-13.11-9.76-25.01-18.44-34.85l-.28-.32c.45-.67,.71-1.47,.71-2.33,0-2.31-1.87-4.18-4.18-4.18-.83,0-1.6,.25-2.25,.67l-.35-.3h0c-14.26-13.1-33.05-21.38-53.71-22.27h-.02s-.45,0-.45,0c-.45-1.82-2.08-3.17-4.04-3.17-1.99,0-3.65,1.4-4.07,3.26h-.46c-44.41,2.75-79.55,39.62-79.55,84.73,0,7.3,.93,14.36,2.65,21.13h0l.12,.53c-1.13,.75-1.88,2.03-1.88,3.48,0,2.31,1.87,4.18,4.18,4.18,.05,0,.1-.01,.16-.02l.13,.43v.03s.02,.04,.02,.04c12.05,32.2,43.1,55.08,79.5,55.08,9.41,0,18.48-1.53,26.94-4.36h0s.57-.18,.57-.18c.77,.91,1.9,1.5,3.18,1.5,2.31,0,4.18-1.87,4.18-4.18,0-.09-.02-.18-.03-.26l.48-.2h.02s.02-.02,.02-.02c20.9-9.59,37.21-27.42,44.83-49.33,1.42-.22,2.53-1.4,2.53-2.89,0-1.64-1.33-2.98-2.98-2.98s-2.98,1.33-2.98,2.98c0,1,.52,1.84,1.28,2.38-7.45,21.24-23.31,38.54-43.59,47.85l-.31,.13c-.75-1.1-2.02-1.83-3.45-1.83-2.31,0-4.18,1.87-4.18,4.18,0,.23,.03,.45,.07,.67l-.3,.09h-.02s0,0,0,0c-8.24,2.76-17.09,4.25-26.27,4.25-35.46,0-65.69-22.29-77.44-53.64l-.12-.4c1.16-.74,1.93-2.03,1.93-3.51,0-2.31-1.87-4.18-4.18-4.18-.07,0-.14,.02-.21,.02l-.08-.35v-.02s0,0,0,0c-1.68-6.61-2.59-13.49-2.59-20.62,0-43.94,34.23-79.86,77.47-82.54h.46c.54,1.68,2.1,2.91,3.96,2.91,1.89,0,3.47-1.27,3.99-2.99h.44c20.14,.87,38.43,8.94,52.34,21.72l.02,.02,.32,.28c-.29,.57-.47,1.2-.47,1.88,0,2.31,1.87,4.18,4.18,4.18,.65,0,1.25-.16,1.8-.42l.3,.35c8.5,9.63,14.74,21.29,18.01,34.13-.63,.55-1.05,1.32-1.05,2.22Zm-48.37,93.97c1.1,0,1.99,.89,1.99,1.99,0,1.1-.89,1.99-1.99,1.99-1.1,0-1.99-.89-1.99-1.99,0-1.1,.89-1.99,1.99-1.99Zm-108.53-50.54c0,1.1-.89,1.99-1.99,1.99-1.1,0-1.99-.89-1.99-1.99,0-1.1,.89-1.99,1.99-1.99,1.1,0,1.99,.89,1.99,1.99Zm77.01-106.97c-1.1,0-1.99-.89-1.99-1.99,0-1.1,.89-1.99,1.99-1.99,1.1,0,1.99,.89,1.99,1.99,0,1.1-.89,1.99-1.99,1.99Zm58.82,23.09c0-1.1,.89-1.99,1.99-1.99,1.1,0,1.99,.89,1.99,1.99,0,1.1-.89,1.99-1.99,1.99-1.1,0-1.99-.89-1.99-1.99Z"/>
          <g>
            <path class="cls-2" d="M256.95,577.03v-13.96c27.57-6.9,47.99-31.82,47.99-61.53,0-29.71-20.42-54.63-47.99-61.53v-13.97h-8.75v12.42c-2.2-.23-4.43-.35-6.69-.35s-4.5,.12-6.7,.35v-12.42h-8.75v13.97c-27.56,6.9-47.98,31.82-47.98,61.52,0,29.7,20.42,54.63,47.98,61.52v13.96h8.75v-12.42c2.2,.23,4.44,.35,6.7,.35,2.26,0,4.49-.12,6.69-.35v12.41h8.75Zm-15.44-20.81c-15.11,0-28.76-6.11-38.66-16.02-9.9-9.91-16.01-23.55-16.02-38.66,0-15.11,6.11-28.76,16.02-38.66,9.91-9.9,23.55-16.01,38.66-16.02,15.11,0,28.76,6.11,38.66,16.02,9.9,9.91,16.01,23.55,16.02,38.66,0,15.11-6.11,28.76-16.02,38.66-9.91,9.9-23.55,16.01-38.66,16.02Z"/>
            <path class="cls-2" d="M200.07,498.85c.03,.22,.07,.35,.07,.37l.06,.2h.21s.65-.04,1.51-.28c.85-.23,1.95-.66,2.84-1.44h0s.23-.21,.23-.21h0s.23-.23,.23-.23h0s.43-.49,.43-.49h0s.37-.53,.37-.53h0s.34-.52,.34-.52c.2-.3,.37-.6,.51-.87h0s.2-.39,.2-.39l.17-.34c.22-.43,.33-.71,.33-.72l.17-.44-.47,.07s-.68,.11-1.62,.36c-.23,.06-.49,.13-.75,.22-.25,.08-.52,.18-.78,.28-.53,.21-1.08,.45-1.59,.74-.41,.22-.75,.48-1.05,.74-.48,.41-.82,.87-1.05,1.31h0c-.21,.45-.33,.88-.38,1.25-.03,.22-.04,.42-.04,.6l.02,.33h0s0,.01,0,.01Z"/>
            <path class="cls-2" d="M231.38,540.87l-.37-.08c-.25-.06-.5-.11-.73-.17-.25-.07-.5-.14-.76-.21l-.54-.15c.36,.07,.67,.1,.83,.1h.12s.22-.02,.22-.02l.03-.22s.04-.28,.04-.71c0-.22,0-.49-.04-.78-.04-.43-.12-.92-.28-1.42h0s-.12-.37-.12-.37h0s-.15-.39-.15-.39h0s0-.01,0-.01c-.11-.25-.24-.51-.4-.77h0c-.32-.51-.73-.94-1.15-1.36-.21-.21-.44-.4-.66-.58l-.32-.25-.3-.24h0c-.4-.32-.77-.56-1.04-.73-.27-.18-.43-.29-.44-.29l-.4-.25v.47s-.01,.04-.01,.04c0,.08,0,.29,.01,.59,0,.4,.05,.92,.14,1.53,.09,.6,.22,1.28,.41,1.94,.2,.65,.47,1.28,.8,1.81h0s.25,.37,.25,.37h0s.14,.18,.14,.18h0s.14,.16,.14,.16h.01s.59,.5,.59,.5h.02s.6,.37,.6,.37h.02s.28,.12,.28,.12l-.31-.09h0s0,0,0,0c-2.04-.61-3.99-1.45-5.44-2.13-.35-.18-.69-.34-.98-.48l-.4-.2-.34-.18c-.41-.23-.64-.35-.64-.35,0,0-.23-.13-.64-.35-.19-.11-.43-.26-.7-.42,.23,.12,.44,.22,.59,.28h.01s.25,.08,.25,.08h0s.1,.03,.1,.03l.22,.05,.09-.2s.07-.16,.15-.41c.08-.25,.18-.6,.26-1.03,.08-.41,.13-.89,.13-1.4,0-.54-.07-1.12-.24-1.7h0s0,0,0,0h0c-.16-.57-.43-1.12-.73-1.61h0s0,0,0,0h0c-.29-.5-.62-.98-.94-1.37l-.43-.54h0s-.36-.43-.36-.43h0c-.21-.25-.35-.38-.35-.39l-.32-.31-.13,.43s-.07,.23-.16,.61c-.09,.38-.2,.9-.29,1.5-.05,.3-.09,.63-.11,.97-.02,.27-.03,.54-.03,.82v.19c0,.34,.03,.68,.07,1.01,.04,.33,.1,.65,.2,.95h0s0,0,0,0c.18,.59,.46,1.08,.77,1.47h0s.47,.5,.47,.5l.02,.02,.36,.26c-.18-.11-.35-.22-.55-.34-1.32-.87-3.06-2.09-4.63-3.47-1.25-1.09-2.41-2.25-3.35-3.28,.23,.25,.45,.45,.64,.58h0s.3,.18,.3,.18l.2,.12,.15-.18s.42-.49,.81-1.26c.39-.76,.79-1.82,.79-2.97v-.1c0-.41-.05-.82-.13-1.23-.04-.21-.1-.42-.16-.62l-.17-.59c-.11-.35-.22-.66-.34-.95l-.09-.2-.08-.2-.14-.35h0c-.19-.45-.34-.72-.34-.72l-.22-.4-.25,.38s-.37,.56-.8,1.4c-.11,.21-.22,.43-.33,.68l-.16,.37h0s-.15,.38-.15,.38h0s0,0,0,0c-.19,.52-.36,1.08-.48,1.63-.05,.21-.08,.43-.11,.63-.03,.22-.03,.42-.03,.62,0,.62,.13,1.17,.31,1.63h0s0,0,0,0c.18,.42,.42,.75,.65,1.03-.21-.23-.42-.46-.6-.67l-.36-.43-.32-.39c-.2-.25-.38-.46-.53-.64h0s-.31-.42-.31-.42l-.11-.15s-.15-.21-.43-.58c-.14-.19-.31-.4-.48-.66-.18-.26-.38-.56-.59-.89l-.34-.51-.34-.55c-.23-.38-.47-.79-.72-1.21-.23-.43-.46-.88-.7-1.33l-.18-.33-.16-.35-.04-.09,.21,.4v.02s.25,.32,.25,.32h0s.24,.27,.24,.27l.16,.17,.19-.13s.54-.36,1.14-.99h0s.44-.51,.44-.51h0c.16-.2,.31-.41,.46-.64,.29-.45,.56-.96,.72-1.52h0s.1-.42,.1-.42h0s.09-.43,.09-.43h0s0-.01,0-.01c.04-.29,.08-.59,.09-.88h0c0-.24,0-.48,0-.71,0-.32,0-.63-.03-.93-.02-.24-.04-.47-.07-.68-.02-.21-.03-.39-.06-.55h0c-.04-.32-.07-.5-.07-.51l-.09-.46-.36,.3s-.19,.16-.48,.43c-.29,.27-.68,.65-1.1,1.12-.41,.46-.83,1.01-1.2,1.59-.19,.29-.36,.59-.52,.89-.15,.31-.27,.61-.36,.9-.09,.3-.14,.59-.18,.86h0s-.02,.4-.02,.4h0s0,.2,0,.2h0s.02,.2,.02,.2l.27-.03-.27,.03c.06,.48,.2,.9,.35,1.24l-.27-.57c-.87-1.88-1.58-3.82-1.99-5.31l-.16-.54-.13-.48c-.07-.31-.14-.58-.19-.79-.11-.45-.17-.7-.17-.7l-.04-.17c-.02-.1-.05-.28-.1-.51-.04-.22-.09-.49-.14-.8l-.03-.19c.13,.7,.39,1.14,.4,1.16l.11,.19,.21-.07s.62-.21,1.38-.66c.38-.23,.8-.52,1.2-.87,.2-.18,.39-.37,.57-.58h0s0,0,0,0h0c.19-.21,.38-.44,.54-.69,.17-.25,.31-.51,.43-.78,.13-.28,.21-.55,.32-.81h0c.2-.56,.33-1.11,.43-1.59h0c.12-.5,.19-.93,.23-1.24,.04-.31,.05-.51,.05-.51l.03-.46-.42,.2s-.22,.1-.57,.29c-.35,.19-.83,.46-1.35,.8-.52,.34-1.11,.76-1.62,1.22-.51,.46-.98,.96-1.33,1.49h0s0,0,0,0h0c-.19,.27-.31,.54-.41,.78h0c-.09,.27-.16,.52-.21,.76-.04,.24-.07,.47-.07,.69h0v.07s.05,.49,.05,.49c-.04-.23-.09-.45-.12-.71h0c-.05-.39-.11-.81-.16-1.25l-.04-.33-.03-.34c-.02-.23-.04-.47-.06-.71h0c-.1-.95-.1-1.98-.13-3.02,.03-1.04,.03-2.07,.13-3.01h0c.02-.24,.04-.48,.06-.71l.03-.34,.04-.33c.06-.44,.11-.86,.16-1.24h0s0,0,0,0c.04-.37,.11-.71,.17-1.03,.06-.31,.1-.58,.15-.8,.04-.22,.07-.4,.1-.51l.04-.18s.07-.25,.17-.7c.05-.22,.12-.48,.19-.79l.13-.47,.16-.54h0c.35-1.28,.93-2.88,1.64-4.5-.09,.24-.15,.46-.18,.62-.04,.22-.05,.36-.05,.38v.22s.21,.05,.21,.05c.01,0,.64,.15,1.53,.15h.08c.43,0,.9-.03,1.41-.12,.54-.09,1.11-.24,1.66-.49,.27-.13,.53-.28,.78-.44h0s0,0,0,0h0s0,0,0,0c.26-.16,.51-.33,.74-.51,.24-.19,.45-.38,.66-.57,.2-.18,.41-.37,.59-.55h0s.48-.5,.48-.5h0s.2-.23,.2-.23l.17-.18c.22-.24,.34-.38,.34-.39l.31-.38-.49-.06s-.25-.03-.65-.06c-.29-.02-.68-.04-1.12-.04h-.48c-.62,.03-1.33,.09-2.03,.2h0s-.51,.1-.51,.1h-.01s-.49,.13-.49,.13h0c-.33,.1-.64,.21-.93,.34-.29,.13-.55,.28-.78,.44h0s0,0,0,0h0c-.25,.17-.43,.36-.6,.53h0c-.29,.33-.5,.65-.67,.96l.18-.42c.11-.23,.22-.47,.33-.7l.16-.34,.18-.34c.24-.45,.48-.9,.7-1.33,.25-.42,.49-.82,.72-1.21l.34-.55,.34-.51c.22-.33,.42-.63,.59-.89,.17-.25,.34-.47,.48-.66,.27-.37,.43-.58,.43-.58l.11-.15,.32-.41c.15-.18,.32-.39,.52-.64l.11-.14c-.43,.54-.59,1-.6,1.02l-.07,.22,.2,.11s.58,.31,1.44,.55c.43,.12,.93,.22,1.47,.27,.2,.02,.41,.03,.62,.03,.36,0,.72-.03,1.1-.08,.31-.05,.61-.12,.9-.22h0s0,0,0,0l.41-.15h0s.2-.08,.2-.08l.21-.08c.56-.23,1.07-.5,1.51-.76h0s0,0,0,0h0c.46-.24,.83-.48,1.09-.65h0s.3-.22,.3-.22l.11-.07,.45-.29-.66-.26h0s-.44-.15-.44-.15h0c-.37-.12-.91-.28-1.52-.43-.31-.07-.64-.14-.98-.2l-.51-.08h0s-.52-.05-.52-.05c-.31-.03-.61-.04-.9-.04-.4,0-.78,.02-1.15,.08-.64,.11-1.16,.33-1.59,.59-.22,.13-.42,.27-.59,.42h0s-.38,.41-.38,.41l.1-.13,.36-.43c1.02-1.18,2.48-2.69,4.07-4.07,1.2-1.05,2.48-2,3.61-2.78-.21,.16-.39,.31-.5,.43h0s-.17,.19-.17,.19h0s-.06,.1-.06,.1l-.13,.19,.17,.16s.12,.12,.33,.29c.21,.17,.52,.39,.9,.62,.38,.23,.83,.47,1.34,.66,.26,.09,.52,.18,.81,.25,.28,.07,.56,.12,.86,.16,.23,.03,.45,.04,.67,.04,.68,0,1.34-.11,1.96-.21h0c.36-.07,.69-.15,1-.23h0s0,0,0,0h0c.31-.07,.59-.14,.82-.21,.47-.14,.77-.25,.77-.26l.45-.18-.39-.29s-.54-.41-1.36-.9c-.41-.25-.89-.52-1.42-.77-.52-.24-1.07-.46-1.63-.63-.43-.13-.86-.23-1.28-.27l-.47-.02c-1.01,0-1.81,.31-2.38,.68,.25-.17,.5-.34,.73-.49,.68-.41,1.24-.77,1.63-1,.41-.22,.64-.36,.64-.36,0,0,.23-.13,.64-.35l.33-.18,.4-.2,.25-.12c.16,.01,.34,.02,.56,.02h.48c.89-.05,2.05-.24,3.09-.8h0s0,0,0,0h0c.54-.28,1.04-.65,1.47-1.05h0c.2-.2,.42-.39,.62-.59h0s.54-.58,.54-.58h0s0-.01,0-.01c.31-.37,.61-.7,.81-.96,.19-.25,.3-.41,.31-.41l.29-.41-.5-.02s-.24-.01-.64-.01h-.12c-.39,0-.9,.01-1.47,.06l-.49,.05h0s-.5,.07-.5,.07c-.34,.05-.69,.12-1.03,.2-.68,.16-1.37,.37-1.93,.68h0s0,0,0,0c-.56,.3-.99,.67-1.32,1.05h0c-.32,.4-.52,.8-.66,1.14h0c-.13,.34-.19,.63-.22,.86l-.4,.2h0s-.34,.19-.34,.19c-.41,.23-.65,.36-.65,.36,0,0-.23,.13-.65,.36h0c-.38,.23-.91,.56-1.53,.94,.37-.42,.73-.93,1-1.62,.16-.39,.31-.82,.43-1.28,.16-.57,.28-1.17,.4-1.76,.12-.57,.22-1.12,.3-1.61,.08-.49,.14-.91,.19-1.21l.05-.35v-.09s.02-.02,.02-.02h0s0-.04,0-.04v-.48l-.41,.25s-.36,.21-.88,.58c-.26,.18-.56,.4-.89,.65h0c-.31,.27-.65,.56-.97,.88-.2,.2-.4,.4-.59,.61l-.14,.16h0s-.13,.18-.13,.18h0s-.25,.34-.25,.34h0c-.33,.46-.62,.94-.82,1.42-.14,.32-.22,.65-.28,.95h0c-.05,.31-.08,.6-.09,.89v.11c0,.52,.08,.99,.18,1.39,.11,.43,.25,.78,.36,1.02h0c.11,.25,.19,.38,.2,.39l.12,.2,.04-.02c-.88,.64-1.79,1.35-2.67,2.12-1.52,1.33-2.91,2.76-3.95,3.93l.09-.17c.2-.47,.35-1.03,.41-1.67,.03-.3,.05-.63,.05-.97,0-.36-.02-.73-.04-1.1-.05-.72-.12-1.43-.2-2.09-.08-.65-.16-1.22-.22-1.64-.07-.41-.1-.66-.1-.66l-.08-.55-.51,.54h0s-.33,.4-.33,.4c-.28,.34-.65,.81-1.03,1.36h0c-.37,.58-.74,1.23-1.05,1.91h0c-.29,.7-.5,1.42-.57,2.09h0s-.02,.49-.02,.49v.02s.03,.47,.03,.47h0s0,.01,0,.01c.04,.31,.1,.6,.17,.87l.26-.07-.26,.08c.16,.55,.38,1.02,.61,1.4,.46,.76,.93,1.19,.94,1.2l.16,.14,.07-.05-.13,.17-.12,.15s-.16,.22-.43,.59h0c-.13,.19-.31,.41-.5,.69-.18,.27-.38,.58-.6,.9l-.35,.51-.35,.58c-.23,.39-.48,.8-.73,1.23h0s0,.01,0,.01c-.23,.43-.47,.89-.72,1.35l-.18,.34h0s-.17,.37-.17,.37l-.17,.37,.08-.29c.03-.26,.03-.53,.03-.8,0-.29-.03-.59-.09-.91-.06-.32-.14-.65-.24-.99l-.16-.51-.17-.5c-.24-.68-.51-1.36-.77-1.97-.13-.3-.25-.59-.37-.84-.11-.26-.21-.48-.3-.67-.17-.38-.27-.61-.28-.62l-.23-.49-.26,.48s-.13,.23-.31,.62h0c-.11,.21-.2,.45-.3,.7-.1,.27-.21,.57-.32,.89l-.15,.49h0s-.14,.52-.14,.52h0s0,.01,0,.01c-.08,.35-.14,.72-.19,1.09-.05,.37-.08,.74-.08,1.1,0,.37,.04,.73,.1,1.07,.13,.67,.38,1.25,.67,1.74h0c.31,.49,.66,.88,.99,1.19,.66,.62,1.23,.91,1.25,.92l.21,.11,.02-.03c-.51,1.26-.93,2.47-1.2,3.48l-.16,.54-.14,.49h0s0,.01,0,.01c-.07,.31-.14,.58-.19,.81-.11,.44-.17,.7-.17,.7l-.04,.18c-.03,.14-.06,.31-.1,.53-.04,.22-.09,.5-.15,.81-.05,.28-.12,.61-.16,.98l-.02-.26h0c-.09-.5-.24-1.05-.55-1.63h0s-.33-.58-.33-.58h0s-.19-.3-.19-.3l-.19-.29h0c-.33-.5-.7-.99-1.08-1.46-.37-.47-.74-.92-1.06-1.3-.64-.77-1.12-1.31-1.12-1.31l-.37-.41-.1,.54s-.08,.4-.15,1.02c-.05,.33-.06,.69-.08,1.09v.51c0,.25,0,.5,0,.76h0c0,.29,.04,.57,.08,.85l.27-.04-.27,.04c.04,.28,.09,.55,.15,.83,.13,.54,.28,1.07,.55,1.54,.33,.61,.73,1.1,1.16,1.48,.43,.38,.87,.67,1.28,.87,.82,.42,1.45,.54,1.47,.54l.21,.04,.04-.09-.02,.3c-.1,.99-.1,2.04-.14,3.08h0v.02c.03,1.04,.03,2.09,.14,3.08,.02,.24,.04,.48,.06,.72h0s.03,.35,.03,.35h0s.04,.35,.04,.35c.04,.34,.09,.65,.13,.96l-.09-.21c-.11-.23-.25-.47-.42-.7h0s-.27-.35-.27-.35h0s-.16-.18-.16-.18l-.15-.17h0c-.88-.95-2.26-1.89-3.33-2.65-.55-.38-1.05-.71-1.41-.94-.37-.23-.59-.37-.59-.37l-.48-.29,.07,.55s.03,.26,.1,.68c.07,.42,.18,1,.35,1.65h0s0,0,0,0c.2,.65,.45,1.35,.76,2.02h0s.26,.49,.26,.49h0s.29,.47,.29,.47h0c.2,.31,.43,.6,.67,.85,.24,.25,.48,.46,.75,.65h0s0,0,0,0c.26,.18,.53,.33,.79,.46,.53,.25,1.04,.4,1.49,.5,.57,.12,1.05,.14,1.31,.14h.24s.22-.02,.22-.02v-.1s.06,.23,.06,.23l.04,.18s.06,.26,.17,.7c.05,.23,.12,.5,.19,.8h0s.14,.5,.14,.5l.16,.55c.39,1.43,1.06,3.24,1.86,5.03l-.18-.21-.26-.27h0s-.3-.28-.3-.28h0s0,0,0,0c-.22-.19-.48-.37-.76-.54-.29-.17-.6-.33-.93-.48h0s0,0,0,0c-.32-.16-.65-.3-.99-.44-.68-.28-1.4-.54-2.05-.76-.63-.22-1.19-.41-1.6-.55-.41-.13-.66-.21-.66-.21l-.54-.16,.2,.52s.1,.25,.28,.64c.09,.19,.2,.43,.34,.69,.14,.26,.3,.53,.48,.82,.18,.29,.38,.59,.59,.89h0s.16,.22,.16,.22h0s.18,.22,.18,.22h0s.37,.42,.37,.42h0c.26,.29,.52,.55,.8,.79h0s.41,.34,.41,.34h.01s.45,.3,.45,.3h0s0,0,0,0c.61,.35,1.22,.56,1.79,.67,.29,.06,.56,.09,.82,.1v-.27s0,.27,0,.27h.32s.43,0,.43,0c.92-.06,1.52-.28,1.54-.28l.22-.08v-.07c.15,.3,.31,.61,.47,.91h0s0,.01,0,.01c.25,.43,.5,.84,.73,1.22l.35,.57h0s.35,.53,.35,.53c.22,.33,.42,.63,.6,.9,.19,.28,.37,.5,.5,.68,.28,.37,.43,.59,.43,.59l.12,.16,.33,.43h0s0,0,0,0c.15,.18,.33,.4,.53,.65l.33,.4,.26,.31-.16-.11h0s0,0,0,0c-.44-.28-.97-.52-1.62-.69-.22-.06-.45-.1-.67-.15-.23-.05-.47-.09-.71-.12-1.2-.18-2.54-.25-3.55-.31-1.03-.06-1.76-.07-1.76-.07h-.58s.36,.44,.36,.44c0,0,.26,.32,.68,.78h0c.43,.49,1.07,1.07,1.78,1.63h0s.33,.25,.33,.25h0s.17,.13,.17,.13h0s.18,.12,.18,.12c.24,.16,.49,.31,.75,.44,.25,.14,.5,.26,.76,.37h0s0,0,0,0h0c.25,.11,.51,.21,.78,.27,.5,.12,.98,.18,1.43,.18,.78,0,1.47-.16,2.02-.35,.87-.31,1.39-.68,1.4-.69l.21-.15h0c.75,.76,1.58,1.56,2.46,2.32,1.51,1.32,3.12,2.47,4.43,3.34l-.16-.06h0c-.47-.14-1.02-.23-1.64-.23h-.12c-.33,0-.67,.03-1.03,.06-.36,.04-.73,.09-1.09,.15-.37,.06-.74,.13-1.1,.2-.35,.07-.7,.14-1.03,.21-.66,.14-1.25,.28-1.67,.38-.42,.1-.68,.17-.68,.17l-.57,.15,.49,.33s.22,.15,.59,.38h0c.18,.12,.41,.25,.66,.4l.4,.22h0s.45,.23,.45,.23h0c.31,.15,.64,.29,.99,.44h0s.52,.2,.52,.2l.27,.1h0s.28,.08,.28,.08c.74,.2,1.49,.34,2.18,.34h.02c1.43-.04,2.53-.58,3.27-1.09,.37-.25,.66-.52,.85-.71l.29-.31,.18-.2h0s.29,.16,.29,.16c0,0,.24,.13,.65,.36l.34,.19h0s.42,.21,.42,.21c.29,.15,.63,.31,.99,.49h0c1.35,.63,3.14,1.4,5.04,2.01h-.17s-.06-.01-.06-.01c-.25,0-.5,.02-.77,.05h0s-.22,.04-.22,.04l-.21,.03h0s-.46,.11-.46,.11h0s0,0,0,0c-.64,.17-1.32,.45-2.01,.76h0s0,0,0,0c-.67,.29-1.34,.62-1.94,.93-.6,.31-1.13,.6-1.5,.8-.38,.2-.61,.33-.61,.33l-.51,.29,.73,.27h0s0,0,0,0c.1,.03,.28,.1,.5,.16,.42,.12,1.02,.28,1.69,.41l.52,.1h0s.55,.07,.55,.07c.38,.04,.76,.07,1.15,.08h.3c.67,0,1.34-.09,1.93-.25,1.36-.37,2.28-1.21,2.85-1.9,.57-.69,.81-1.27,.82-1.29l.09-.21-.03-.02,.23,.06c.26,.07,.52,.12,.76,.18l.11,.02s.35,.09,.86,.29c1.62,.64,4.96,2.39,5.88,6.17l.61,2.48-.23-8.95-6.63-.87Z"/>
            <path class="cls-2" d="M280.35,529.98l.17-.13,.34-.25h0c.71-.57,1.35-1.15,1.78-1.63h0c.43-.47,.68-.78,.68-.79l.37-.45h-.58s-.74,.02-1.76,.08c-1.01,.06-2.35,.13-3.55,.31-.24,.04-.48,.08-.71,.12-.22,.05-.45,.09-.67,.15-.65,.17-1.18,.41-1.62,.69h0s0,0,0,0l-.16,.11,.26-.31,.33-.4c.21-.26,.38-.47,.53-.65h0s.33-.43,.33-.43l.12-.16s.16-.22,.43-.59h0c.13-.18,.31-.41,.5-.69,.18-.27,.38-.57,.6-.9l.34-.52,.35-.58c.23-.39,.48-.8,.73-1.23h0s0-.01,0-.01c.16-.3,.33-.62,.5-.93l-.02,.1,.21,.08s.62,.22,1.54,.28h.43s.32,0,.32,0v-.27s0,.27,0,.27c.26-.01,.53-.04,.82-.1,.57-.11,1.18-.32,1.79-.67h.01s.43-.28,.43-.28h.01s.42-.35,.42-.35h0c.28-.25,.54-.51,.8-.79l.36-.42h0s.18-.22,.18-.22h0s.16-.23,.16-.23c.21-.3,.41-.6,.59-.89,.18-.29,.34-.56,.48-.81,.15-.26,.25-.5,.34-.69,.18-.39,.28-.64,.28-.64l.2-.52-.54,.16s-.26,.08-.67,.21c-.41,.13-.97,.32-1.6,.55-.64,.22-1.36,.47-2.04,.76-.34,.14-.68,.29-.99,.44h0s0,0,0,0c-.33,.15-.64,.31-.92,.48-.29,.17-.54,.35-.76,.54h0s-.3,.28-.3,.28h0s-.27,.28-.27,.28h0s-.17,.21-.17,.21c.81-1.79,1.47-3.6,1.86-5.03l.16-.54,.14-.49h0s0-.01,0-.01c.07-.31,.14-.58,.19-.8,.11-.45,.17-.7,.17-.7l.04-.18,.04-.24v.1s.23,.02,.23,.02h.24c.27,0,.74-.01,1.31-.13,.45-.09,.96-.24,1.49-.5,.26-.13,.53-.28,.79-.46h0s0,0,0,0c.27-.19,.51-.4,.75-.65,.24-.25,.46-.54,.67-.84l.29-.46h0s.26-.5,.26-.5h0s0,0,0,0c.32-.67,.57-1.38,.77-2.02h0c.17-.65,.28-1.24,.35-1.65,.07-.42,.1-.68,.1-.68l.07-.55-.48,.29s-.23,.14-.59,.37c-.36,.24-.86,.56-1.41,.94-1.08,.76-2.45,1.7-3.33,2.65l-.16,.17-.15,.17h0s-.27,.35-.27,.35h0c-.17,.25-.31,.48-.43,.71l-.08,.21c.04-.31,.08-.61,.13-.95l.04-.34,.03-.36c.02-.24,.03-.48,.06-.72,.1-.99,.1-2.04,.14-3.08h0v-.02c-.03-1.04-.03-2.09-.14-3.09l-.02-.29,.03,.08,.22-.04s.65-.13,1.47-.54c.41-.21,.85-.49,1.28-.87,.42-.38,.83-.87,1.16-1.48h0s0,0,0,0h0c.27-.48,.42-1,.55-1.54,.06-.27,.11-.55,.15-.83h0c.04-.28,.08-.57,.09-.85,0-.25,.01-.49,.01-.73v-.55c-.02-.39-.03-.76-.08-1.09h0c-.08-.62-.15-1.01-.16-1.02l-.1-.54-.37,.41s-.48,.54-1.12,1.31c-.31,.38-.69,.83-1.06,1.3-.37,.47-.75,.96-1.08,1.45l-.19,.29-.19,.29h0s-.33,.58-.33,.58h0s0,0,0,0c-.31,.58-.46,1.13-.55,1.62h0s0,0,0,0l-.02,.25c-.05-.36-.12-.7-.16-.97-.06-.32-.11-.59-.15-.82-.04-.22-.07-.4-.1-.54l-.04-.18s-.06-.26-.17-.7c-.06-.22-.12-.49-.19-.8h0s-.14-.5-.14-.5l-.16-.55c-.28-1.01-.7-2.23-1.21-3.49l.02,.03,.21-.11s.59-.3,1.25-.92c.33-.31,.68-.7,.99-1.19h0c.3-.49,.54-1.07,.68-1.74,.06-.34,.1-.7,.1-1.06h0c0-.37-.03-.73-.08-1.1-.05-.37-.12-.74-.19-1.09h0s-.14-.52-.14-.52h0s-.15-.49-.15-.49c-.1-.32-.21-.62-.32-.89-.1-.26-.2-.51-.3-.71-.18-.38-.31-.62-.31-.62l-.26-.47-.23,.49s-.11,.23-.28,.62c-.08,.19-.18,.42-.29,.67-.12,.26-.24,.54-.37,.84-.26,.61-.53,1.29-.77,1.97l-.17,.5-.16,.5h0c-.1,.34-.18,.67-.24,.99-.06,.31-.09,.62-.09,.9h0v.21c0,.2,0,.4,.03,.6l.08,.29-.17-.37-.17-.35h0s-.19-.36-.19-.36c-.24-.46-.48-.91-.72-1.35h0s0-.01,0-.01c-.25-.43-.5-.84-.73-1.23l-.35-.57h0s-.35-.52-.35-.52c-.22-.33-.42-.63-.6-.9h0c-.19-.28-.37-.5-.49-.68h0s0,0,0,0c-.28-.37-.43-.58-.43-.58l-.12-.15-.13-.16,.07,.04,.16-.14s.48-.44,.94-1.2c.23-.38,.45-.85,.61-1.4h0c.08-.27,.14-.57,.17-.88h0s.03-.47,.03-.47h0s-.02-.5-.02-.5h0c-.07-.69-.28-1.41-.57-2.1h0c-.31-.68-.68-1.33-1.05-1.9h0s0,0,0,0c-.38-.55-.75-1.02-1.03-1.36l-.33-.39h0s-.13-.15-.13-.15l-.38-.4-.09,.54s-.04,.25-.1,.66c-.06,.42-.15,.99-.22,1.64-.08,.65-.14,1.36-.2,2.08-.03,.37-.04,.74-.04,1.09,0,.34,.01,.66,.05,.97h0s0,0,0,0c.06,.64,.2,1.2,.41,1.67l.09,.17c-1.04-1.17-2.43-2.6-3.95-3.93-.88-.77-1.79-1.48-2.67-2.12h.03s.12-.19,.12-.19c0,0,.09-.15,.2-.39,.11-.25,.25-.59,.36-1.02,.1-.4,.18-.88,.18-1.4v-.1c0-.29-.03-.58-.09-.89-.06-.3-.14-.63-.28-.95-.2-.48-.48-.95-.82-1.41h0s-.25-.34-.25-.34h0s-.13-.17-.13-.17h0s-.15-.17-.15-.17c-.19-.21-.39-.41-.59-.61-.33-.32-.66-.61-.98-.88h0s0,0,0,0c-.32-.25-.62-.47-.89-.65-.52-.37-.87-.58-.88-.58l-.41-.25v.51s.09,.71,.25,1.69c.08,.49,.18,1.05,.3,1.62,.11,.58,.24,1.18,.4,1.75,.12,.46,.27,.89,.43,1.29,.27,.68,.62,1.2,.99,1.61-.62-.38-1.15-.72-1.53-.94h0c-.41-.23-.65-.36-.65-.36,0,0-.23-.13-.64-.36l-.34-.19h0s-.4-.2-.4-.2c-.03-.23-.1-.52-.23-.86-.14-.35-.34-.75-.66-1.14h0c-.33-.38-.76-.75-1.31-1.05h0s0,0,0,0c-.56-.31-1.25-.52-1.93-.68-.35-.08-.69-.15-1.03-.2l-.49-.07h0l-.49-.05c-.58-.05-1.09-.06-1.48-.06h-.12c-.4,0-.64,.01-.64,.01l-.49,.02,.28,.41s.11,.16,.31,.41h0s0,0,0,0h0c.2,.26,.5,.58,.8,.95h0c.17,.2,.35,.4,.56,.6,.2,.2,.42,.39,.61,.59h0s0,0,0,0c.44,.39,.93,.76,1.47,1.04h0s0,0,0,0h0s0,0,0,0c1.04,.57,2.2,.75,3.1,.79h.48c.22,.01,.4,0,.56-.01l.25,.12,.4,.2,.33,.18c.41,.23,.64,.36,.64,.36,0,0,.23,.13,.64,.36,.39,.22,.95,.58,1.63,1,.23,.15,.48,.32,.72,.49-.56-.37-1.36-.68-2.37-.68l-.46,.02c-.42,.05-.86,.15-1.28,.27-.56,.17-1.11,.39-1.63,.63-.53,.25-1.01,.52-1.42,.77-.82,.49-1.35,.9-1.36,.9l-.39,.29,.45,.18s.3,.12,.77,.26c.23,.07,.51,.14,.82,.21h0s0,0,0,0c.3,.08,.63,.16,.99,.23h0s0,0,0,0c.62,.1,1.28,.21,1.96,.21,.22,0,.45-.01,.67-.04,.3-.04,.59-.09,.87-.16,.28-.06,.55-.16,.8-.25,.51-.2,.96-.43,1.34-.67,.38-.23,.68-.45,.89-.62,.21-.17,.33-.28,.33-.29l.17-.16-.19-.26h0s-.18-.21-.18-.21h0s0,0,0,0c-.13-.13-.35-.32-.6-.5,1.15,.79,2.47,1.77,3.71,2.85,1.59,1.38,3.04,2.9,4.07,4.08l.36,.42,.09,.11-.36-.37h0s0-.02,0-.02c-.17-.15-.37-.29-.59-.42-.43-.26-.96-.48-1.59-.59-.37-.06-.76-.08-1.15-.08-.3,0-.6,.01-.89,.04l-.51,.05h0s-.52,.08-.52,.08c-.35,.06-.67,.13-.98,.2-.61,.15-1.14,.31-1.52,.43h0s-.44,.15-.44,.15h0s-.16,.06-.16,.06l-.5,.19,.56,.36,.3,.21h0c.26,.18,.64,.42,1.09,.66h.01s0,0,0,0c.44,.26,.94,.53,1.51,.76l.21,.08,.2,.08h0s.41,.15,.41,.15h0s0,0,0,0c.29,.09,.59,.17,.89,.22,.38,.05,.75,.08,1.11,.08,.21,0,.41,0,.62-.03,.54-.05,1.04-.15,1.47-.27,.86-.24,1.43-.54,1.44-.55l.2-.11-.07-.22s-.17-.46-.58-.99l.09,.11c.2,.25,.38,.46,.52,.64l.32,.42,.11,.15s.15,.21,.43,.58c.14,.19,.31,.41,.48,.66,.18,.26,.38,.56,.59,.89l.34,.51,.34,.55c.23,.38,.47,.79,.72,1.21,.23,.43,.46,.87,.71,1.33l.18,.34,.17,.35c.11,.23,.22,.47,.33,.71l.17,.39c-.16-.3-.36-.62-.65-.93h0c-.17-.18-.35-.36-.6-.53-.23-.16-.49-.31-.79-.44-.29-.13-.6-.25-.93-.34h0s-.48-.13-.48-.13h0s-.53-.1-.53-.1h0c-.7-.12-1.41-.17-2.03-.19h-.47c-.44,0-.83,.01-1.12,.03-.4,.03-.65,.05-.65,.06l-.49,.06,.32,.39s.12,.15,.34,.39l.17,.18,.19,.22h0s.49,.51,.49,.51h0s0,0,0,0c.18,.18,.38,.36,.59,.54h0s0,0,0,0c.2,.19,.42,.38,.65,.56,.23,.18,.48,.36,.74,.51h0s0,0,0,0h0s0,0,0,0c.25,.16,.51,.31,.79,.44,.55,.25,1.11,.4,1.66,.49,.5,.09,.97,.12,1.4,.12h.08c.89,0,1.52-.15,1.53-.15l.22-.05v-.22s0-.15-.05-.37h0s0,0,0,0c-.03-.14-.09-.35-.16-.57,.69,1.6,1.27,3.19,1.61,4.44l.16,.54,.13,.47c.07,.31,.14,.58,.19,.79,.11,.45,.17,.69,.17,.69l.04,.18c.03,.1,.05,.28,.1,.51,.04,.22,.09,.49,.15,.8,.06,.32,.13,.66,.17,1.03h0c.04,.3,.08,.62,.12,.93-.06-.36-.17-.79-.38-1.22h0c-.23-.45-.58-.91-1.05-1.32-.31-.26-.65-.51-1.06-.74h0s0,0,0,0h0c-.51-.29-1.05-.53-1.58-.74-.27-.1-.53-.2-.78-.28-.26-.09-.52-.16-.74-.22-.94-.26-1.61-.36-1.62-.36l-.47-.07,.18,.45s.12,.29,.34,.72l.18,.34,.19,.39h0s0,0,0,0c.14,.27,.31,.57,.51,.87l.34,.51h0s.37,.52,.37,.52h0s.43,.5,.43,.5h0s.24,.24,.24,.24h0s.23,.21,.23,.21h0c.9,.79,1.99,1.21,2.85,1.45,.85,.24,1.49,.27,1.5,.27h.22s.06-.2,.06-.2c0-.01,.04-.14,.07-.36h0s0,0,0,0h0l.02-.34c0-.16-.01-.35-.04-.55l.03,.26,.04,.33,.03,.34c.02,.23,.04,.47,.06,.71,.1,.95,.1,1.98,.13,3.01-.03,1.04-.04,2.07-.13,3.01-.02,.25-.04,.49-.06,.72l-.03,.34-.04,.33c-.06,.44-.11,.86-.17,1.24h0c-.03,.26-.07,.48-.12,.71l.05-.47v-.08c0-.21-.03-.44-.07-.69-.05-.24-.11-.5-.21-.75h0c-.1-.25-.22-.52-.41-.79h0s0,0,0,0c-.35-.52-.83-1.03-1.34-1.49-.5-.46-1.1-.88-1.62-1.22-.53-.34-1-.61-1.35-.8-.35-.18-.57-.29-.57-.29l-.43-.2,.04,.47s.02,.19,.05,.5c.04,.31,.11,.74,.23,1.23h0s0,.01,0,.01h0c.09,.48,.22,1.03,.43,1.58h0c.1,.27,.19,.54,.32,.81h0s0,0,0,0c.12,.27,.26,.54,.43,.78,.16,.25,.35,.47,.54,.68h0s0,0,0,0c.18,.21,.38,.4,.57,.58,.4,.36,.82,.65,1.2,.87,.76,.45,1.37,.66,1.38,.66l.21,.07,.11-.19s.26-.45,.4-1.15l-.03,.18c-.06,.31-.1,.58-.15,.8-.04,.23-.07,.41-.1,.5h0s-.04,.19-.04,.19c0,0-.06,.25-.17,.69h0c-.05,.22-.11,.49-.19,.8l-.13,.47h0s-.16,.54-.16,.54h0c-.4,1.49-1.13,3.43-1.99,5.31-.09,.19-.18,.38-.27,.58,.16-.34,.29-.77,.36-1.25h0s0-.01,0-.01l.02-.18h0s0-.2,0-.2h0s-.02-.4-.02-.4h0s0-.01,0-.01c-.03-.27-.09-.56-.18-.86-.09-.3-.21-.6-.35-.9h0c-.16-.31-.33-.6-.52-.89-.37-.58-.8-1.12-1.2-1.58-.42-.47-.82-.86-1.11-1.13-.29-.27-.47-.42-.47-.43l-.36-.3-.09,.46s-.04,.19-.07,.51c-.02,.15-.04,.33-.06,.54-.02,.2-.05,.44-.07,.69-.02,.3-.03,.63-.03,.96,0,.22,0,.45,0,.67h0c.01,.3,.04,.59,.09,.89h0s.09,.43,.09,.43h0s.1,.42,.1,.42h0s0,.01,0,.01c.17,.56,.43,1.07,.72,1.52,.14,.22,.3,.43,.46,.63h0s.44,.51,.44,.51h0s0,0,0,0c.6,.63,1.13,.99,1.14,.99l.19,.13,.39-.42h.01s.23-.33,.23-.33v-.02s.25-.45,.25-.45h0s-.04,.07-.05,.11l-.17,.35-.18,.33c-.24,.45-.48,.9-.71,1.33-.25,.42-.49,.82-.72,1.21l-.34,.55-.34,.51c-.22,.33-.42,.63-.59,.89-.17,.25-.34,.46-.48,.66-.27,.37-.43,.58-.43,.58l-.11,.15-.32,.42c-.15,.18-.32,.4-.52,.64l-.32,.4-.36,.43c-.18,.21-.39,.44-.6,.66,.23-.27,.47-.61,.65-1.03h0s0,0,0,0c.18-.46,.31-1.01,.31-1.63,0-.19,0-.4-.04-.62-.02-.21-.06-.42-.11-.63-.12-.56-.29-1.11-.48-1.63l-.14-.38h0s-.16-.38-.16-.38h0c-.11-.25-.22-.47-.33-.68-.43-.84-.79-1.39-.8-1.4l-.25-.38-.22,.4s-.15,.28-.34,.72l-.15,.36-.08,.2-.09,.2h0c-.11,.29-.23,.61-.34,.95h0s-.17,.59-.17,.59c-.06,.21-.11,.42-.15,.63-.09,.41-.13,.84-.13,1.26v.06c0,1.16,.4,2.21,.8,2.98,.39,.77,.79,1.25,.8,1.26l.15,.18,.49-.29h0s0,0,0,0c.19-.13,.41-.33,.64-.58-.94,1.02-2.1,2.19-3.35,3.28-1.58,1.38-3.31,2.6-4.64,3.47l-.53,.33,.32-.24h.02s.48-.51,.48-.51h0s0-.02,0-.02c.32-.39,.59-.88,.77-1.47h0s0,0,0,0h0c.1-.3,.15-.63,.2-.95,.04-.34,.06-.68,.06-1.02v-.19c0-.27,0-.54-.03-.81-.02-.33-.06-.66-.11-.97-.09-.6-.2-1.13-.29-1.51-.09-.37-.16-.6-.16-.6l-.13-.43-.32,.32s-.14,.14-.35,.38h0s-.36,.43-.36,.43l-.43,.55c-.32,.39-.64,.87-.94,1.37h0s0,0,0,0h0c-.31,.5-.57,1.04-.73,1.61h0s0,0,0,0h0c-.18,.58-.24,1.16-.24,1.7,0,.51,.06,.98,.14,1.4,.08,.42,.17,.77,.26,1.03h0s0,0,0,0c.08,.25,.14,.39,.15,.4l.09,.21,.31-.07h0s.25-.08,.25-.08h0s0,0,0,0c.15-.06,.35-.15,.56-.26-.25,.16-.48,.3-.66,.4-.4,.22-.64,.35-.64,.35,0,0-.24,.13-.65,.36l-.33,.18-.4,.2c-.29,.14-.62,.3-.98,.48-1.44,.67-3.4,1.52-5.43,2.13h-.01s-.31,.09-.31,.09l.26-.1h.02s.6-.36,.6-.36h.02s.59-.51,.59-.51h.01s.15-.17,.15-.17h0s.14-.17,.14-.17h0s.26-.37,.26-.37h0s0-.01,0-.01c.33-.53,.6-1.16,.8-1.81,.2-.67,.33-1.34,.41-1.94,.08-.6,.13-1.13,.14-1.53,0-.27,.01-.46,.01-.56v-.54s-.42,.25-.42,.25c0,0-.17,.1-.44,.29-.28,.17-.64,.42-1.04,.73l-.31,.25-.32,.25c-.22,.18-.44,.37-.66,.58-.42,.42-.83,.85-1.15,1.36l.23,.15-.23-.14c-.16,.25-.29,.51-.4,.77l-.15,.38h0s-.13,.38-.13,.38h0c-.15,.51-.23,1-.28,1.42-.03,.3-.04,.58-.04,.8,0,.42,.03,.68,.04,.69l.03,.22h.23s.12,.02,.12,.02c.15,0,.46-.03,.83-.1l-.54,.15c-.26,.07-.51,.14-.76,.21-.23,.06-.48,.11-.73,.17l-.37,.08-6.63,.87-.23,8.94,.61-2.48c.62-2.52,2.29-4.14,3.83-5.13,.77-.5,1.5-.83,2.04-1.04,.51-.2,.82-.28,.86-.29l.11-.02h0c.24-.06,.49-.1,.76-.18l.23-.06-.03,.02,.09,.21s.25,.6,.82,1.29c.57,.69,1.49,1.53,2.85,1.9,.59,.16,1.25,.26,1.93,.26h.3c.38-.01,.76-.04,1.14-.08l.55-.07h0s.52-.1,.52-.1c.68-.14,1.28-.3,1.7-.42,.22-.06,.4-.13,.5-.16h0s.18-.07,.18-.07l.54-.21-.5-.29s-.23-.13-.6-.33c-.37-.19-.9-.49-1.5-.8-.6-.31-1.27-.64-1.94-.93h0s0,0,0,0c-.68-.31-1.36-.59-2-.76h0s-.46-.11-.46-.11h0s-.23-.04-.23-.04l-.21-.04h0s0,0,0,0c-.27-.04-.53-.05-.78-.05h-.06s-.17,.01-.17,.01c1.9-.61,3.69-1.38,5.04-2.01h0c.37-.18,.7-.34,1-.49l.41-.2h0s.35-.2,.35-.2c.41-.23,.65-.36,.65-.36h0s.31-.17,.31-.17l-.02,.02,.46,.5h0s0,0,0,0c.19,.19,.48,.45,.85,.71,.73,.51,1.84,1.05,3.27,1.09h.02c.7,0,1.44-.14,2.18-.34l.27-.08h0s.27-.1,.27-.1l.52-.2h0c.35-.14,.68-.29,.99-.44h0s.45-.22,.45-.22h0s.4-.23,.4-.23c.26-.15,.48-.28,.67-.4,.37-.23,.59-.38,.59-.38l.49-.34-.58-.15s-.26-.07-.68-.17c-.42-.1-1.01-.24-1.67-.38-.34-.07-.68-.14-1.03-.21-.36-.07-.73-.14-1.11-.2-.37-.06-.73-.11-1.09-.15-.36-.04-.7-.05-1.03-.06h-.12c-.63,0-1.17,.09-1.64,.22h0s-.16,.06-.16,.06c1.3-.87,2.93-2.03,4.43-3.35,.88-.76,1.7-1.56,2.46-2.33h0s.21,.16,.21,.16c.01,.01,.54,.38,1.4,.69,.55,.19,1.23,.35,2.02,.35,.45,0,.93-.05,1.43-.18,.27-.06,.53-.16,.78-.27,.25-.11,.51-.23,.76-.37,.25-.14,.5-.29,.74-.44l.18-.12h0Z"/>
          </g>
        </g>
        <path class="cls-2" d="M249.58,522.47l-9.92-17.51h-4.25v17.51h-9.01v-44.94h16.87c3.48,0,6.44,.61,8.89,1.84,2.45,1.22,4.28,2.88,5.51,4.96,1.22,2.08,1.84,4.41,1.84,6.99,0,2.96-.86,5.63-2.58,8.02-1.72,2.38-4.27,4.02-7.66,4.93l10.75,18.22h-10.43Zm-14.17-24.28h7.53c2.45,0,4.27-.59,5.47-1.77,1.2-1.18,1.8-2.82,1.8-4.93s-.6-3.66-1.8-4.8c-1.2-1.14-3.03-1.71-5.47-1.71h-7.53v13.2Z"/>
      </g>
    </g>
    <g>
      <path class="cls-2" d="M436.37,536.23l-15.92-28.11h-6.82v28.11h-14.47v-72.14h27.08c5.58,0,10.34,.98,14.26,2.95,3.93,1.96,6.87,4.62,8.84,7.96,1.96,3.34,2.95,7.08,2.95,11.21,0,4.75-1.38,9.04-4.13,12.87-2.76,3.82-6.86,6.46-12.3,7.91l17.26,29.25h-16.74Zm-22.74-38.97h12.09c3.93,0,6.86-.95,8.79-2.84,1.93-1.89,2.89-4.53,2.89-7.91s-.97-5.87-2.89-7.7c-1.93-1.82-4.86-2.74-8.79-2.74h-12.09v21.19Z"/>
      <path class="cls-2" d="M509.64,522.48h-28.73l-4.75,13.75h-15.19l25.94-72.25h16.85l25.94,72.25h-15.3l-4.75-13.75Zm-3.93-11.58l-10.44-30.18-10.44,30.18h20.88Z"/>
      <path class="cls-2" d="M580.13,536.23l-26.25-32.14v32.14h-14.47v-72.14h14.47v32.35l26.25-32.35h17.47l-29.77,35.76,30.59,36.38h-18.29Z"/>
      <path class="cls-2" d="M622.41,475.76v18.09h24.29v11.47h-24.29v19.12h27.39v11.78h-41.86v-72.25h41.86v11.78h-27.39Z"/>
      <path class="cls-1" d="M677.81,532.2c-5.65-3.17-10.13-7.56-13.44-13.18-3.31-5.62-4.96-11.97-4.96-19.07s1.65-13.35,4.96-18.97c3.31-5.62,7.79-10.01,13.44-13.18,5.65-3.17,11.85-4.75,18.6-4.75s13.04,1.59,18.65,4.75c5.62,3.17,10.06,7.56,13.33,13.18,3.27,5.62,4.91,11.94,4.91,18.97s-1.64,13.45-4.91,19.07c-3.27,5.62-7.74,10.01-13.39,13.18-5.65,3.17-11.85,4.75-18.6,4.75s-12.96-1.58-18.6-4.75Zm30.08-11.11c3.31-1.96,5.89-4.77,7.75-8.42,1.86-3.65,2.79-7.89,2.79-12.71s-.93-9.04-2.79-12.66c-1.86-3.62-4.44-6.39-7.75-8.32-3.31-1.93-7.13-2.89-11.47-2.89s-8.18,.97-11.52,2.89c-3.34,1.93-5.94,4.7-7.8,8.32-1.86,3.62-2.79,7.84-2.79,12.66s.93,9.06,2.79,12.71c1.86,3.65,4.46,6.46,7.8,8.42,3.34,1.96,7.18,2.95,11.52,2.95s8.16-.98,11.47-2.95Z"/>
      <path class="cls-1" d="M788.6,464.08v11.68h-30.08v18.5h23.05v11.47h-23.05v30.49h-14.47v-72.14h44.55Z"/>
      <path class="cls-1" d="M843.38,464.08v11.68h-30.08v18.5h23.05v11.47h-23.05v30.49h-14.47v-72.14h44.55Z"/>
    </g>
  </g>
</svg>